<svg width="1920" height="464" viewBox="0 0 1920 464" fill="none" xmlns="http://www.w3.org/2000/svg">
<path d="M-482 111.14C-381.362 91.9502 -280.723 72.7562 -180.08 51.3723C-79.4421 29.984 21.1961 6.4058 121.834 25.7565C222.473 45.1072 323.111 107.391 423.754 119.68C524.392 131.968 625.031 94.2654 725.669 85.5238C826.307 76.7822 926.95 97.0061 1027.59 76.9882C1128.23 56.9702 1228.86 -3.2897 1329.5 0.14067C1430.15 3.56656 1530.78 70.6828 1631.42 85.5238C1732.06 100.365 1832.7 62.9308 1933.34 51.3723C2033.98 39.8139 2134.62 54.131 2235.26 68.4481V743C2134.62 743 2033.98 743 1933.34 743C1832.7 743 1732.06 743 1631.42 743C1530.78 743 1430.15 743 1329.5 743C1228.86 743 1128.23 743 1027.59 743C926.95 743 826.307 743 725.669 743C625.031 743 524.392 743 423.754 743C323.111 743 222.473 743 121.834 743C21.1961 743 -79.4421 743 -180.08 743C-280.723 743 -381.362 743 -482 743V111.14Z" fill="#3178C6" fill-opacity="0.05"/>
<path d="M-482 244.606C-381.362 263.648 -280.723 282.69 -180.08 261.682C-79.4421 240.679 21.1961 179.631 121.834 167.759C222.473 155.887 323.111 193.191 423.754 201.915C524.392 210.634 625.031 190.768 725.669 201.915C826.307 213.057 926.95 255.211 1027.59 253.147C1128.23 251.078 1228.86 204.794 1329.5 184.835C1430.15 164.879 1530.78 171.252 1631.42 184.835C1732.06 198.417 1832.7 219.21 1933.34 236.066C2033.98 252.923 2134.62 265.843 2235.26 278.762V663C2134.62 663 2033.98 663 1933.34 663C1832.7 663 1732.06 663 1631.42 663C1530.78 663 1430.15 663 1329.5 663C1228.86 663 1128.23 663 1027.59 663C926.95 663 826.307 663 725.669 663C625.031 663 524.392 663 423.754 663C323.111 663 222.473 663 121.834 663C21.1961 663 -79.4421 663 -180.08 663C-280.723 663 -381.362 663 -482 663V244.606Z" fill="#3178C6" fill-opacity="0.05"/>
<path d="M-482 375.235C-381.362 364.052 -280.723 352.87 -180.08 358.154C-79.4421 363.439 21.1961 385.19 121.834 375.235C222.473 365.275 323.111 323.604 423.754 324.003C524.392 324.397 625.031 366.856 725.669 375.235C826.307 383.609 926.95 357.899 1027.59 349.619C1128.23 341.334 1228.86 350.479 1329.5 358.154C1430.15 365.835 1530.78 372.046 1631.42 366.694C1732.06 361.343 1832.7 344.428 1933.34 341.079C2033.98 337.729 2134.62 347.944 2235.26 358.154V580.161C2134.62 580.161 2033.98 580.161 1933.34 580.161C1832.7 580.161 1732.06 580.161 1631.42 580.161C1530.78 580.161 1430.15 580.161 1329.5 580.161C1228.86 580.161 1128.23 580.161 1027.59 580.161C926.95 580.161 826.307 580.161 725.669 580.161C625.031 580.161 524.392 580.161 423.754 580.161C323.111 580.161 222.473 580.161 121.834 580.161C21.1961 580.161 -79.4421 580.161 -180.08 580.161C-280.723 580.161 -381.362 580.161 -482 580.161V375.235Z" fill="#3178C6" fill-opacity="0.05"/>
</svg>
