<svg width="1920" height="464" viewBox="0 0 1920 464" fill="none" xmlns="http://www.w3.org/2000/svg">
<path d="M-108 83.6843C-32.2229 69.2353 43.5542 54.7829 119.335 38.6816C195.112 22.5769 270.889 4.82334 346.666 19.3938C422.443 33.9642 498.221 80.8619 574.001 90.1147C649.778 99.3674 725.555 70.9786 801.333 64.3965C877.11 57.8143 952.89 73.0422 1028.67 57.9694C1104.44 42.8966 1180.22 -2.47703 1256 0.10592C1331.78 2.6855 1407.56 53.2216 1483.33 64.3965C1559.11 75.5713 1634.89 47.3847 1710.67 38.6816C1786.45 29.9785 1862.22 40.7587 1938 51.539V559.453C1862.22 559.453 1786.45 559.453 1710.67 559.453C1634.89 559.453 1559.11 559.453 1483.33 559.453C1407.56 559.453 1331.78 559.453 1256 559.453C1180.22 559.453 1104.44 559.453 1028.67 559.453C952.89 559.453 877.11 559.453 801.333 559.453C725.555 559.453 649.778 559.453 574.001 559.453C498.221 559.453 422.443 559.453 346.666 559.453C270.889 559.453 195.112 559.453 119.335 559.453C43.5542 559.453 -32.2229 559.453 -108 559.453V83.6843Z" fill="#3178C6" fill-opacity="0.05"/>
<path d="M-108 244.417C-32.2229 258.755 43.5542 273.093 119.335 257.275C195.112 241.46 270.889 195.493 346.666 186.554C422.443 177.615 498.221 205.703 574.001 212.272C649.778 218.837 725.555 203.879 801.333 212.272C877.11 220.662 952.89 252.402 1028.67 250.848C1104.44 249.29 1180.22 214.44 1256 199.411C1331.78 184.386 1407.56 189.184 1483.33 199.411C1559.11 209.639 1634.89 225.295 1710.67 237.987C1786.45 250.679 1862.22 260.407 1938 270.136V559.453C1862.22 559.453 1786.45 559.453 1710.67 559.453C1634.89 559.453 1559.11 559.453 1483.33 559.453C1407.56 559.453 1331.78 559.453 1256 559.453C1180.22 559.453 1104.44 559.453 1028.67 559.453C952.89 559.453 877.11 559.453 801.333 559.453C725.555 559.453 649.778 559.453 574.001 559.453C498.221 559.453 422.443 559.453 346.666 559.453C270.889 559.453 195.112 559.453 119.335 559.453C43.5542 559.453 -32.2229 559.453 -108 559.453V244.417Z" fill="#3178C6" fill-opacity="0.05"/>
<path d="M-108 405.15C-32.2229 396.73 43.5542 388.31 119.335 392.289C195.112 396.268 270.889 412.646 346.666 405.15C422.443 397.65 498.221 366.274 574.001 366.574C649.778 366.871 725.555 398.841 801.333 405.15C877.11 411.455 952.89 392.097 1028.67 385.862C1104.44 379.624 1180.22 386.509 1256 392.289C1331.78 398.072 1407.56 402.749 1483.33 398.719C1559.11 394.69 1634.89 381.954 1710.67 379.431C1786.45 376.909 1862.22 384.601 1938 392.289V559.452C1862.22 559.452 1786.45 559.452 1710.67 559.452C1634.89 559.452 1559.11 559.452 1483.33 559.452C1407.56 559.452 1331.78 559.452 1256 559.452C1180.22 559.452 1104.44 559.452 1028.67 559.452C952.89 559.452 877.11 559.452 801.333 559.452C725.555 559.452 649.778 559.452 574.001 559.452C498.221 559.452 422.443 559.452 346.666 559.452C270.889 559.452 195.112 559.452 119.335 559.452C43.5542 559.452 -32.2229 559.452 -108 559.452V405.15Z" fill="#3178C6" fill-opacity="0.05"/>
</svg>
