<svg width="120" height="120" viewBox="0 0 120 120" fill="none" xmlns="http://www.w3.org/2000/svg">
<rect width="120" height="120" fill="#6215B0"/>
<path d="M32.413 87.385C28.871 87.385 25.5087 86.6663 22.326 85.229C19.1947 83.7917 16.4227 81.8153 14.01 79.3C11.6487 76.7333 9.80067 73.756 8.466 70.368C7.13133 66.98 6.464 63.3097 6.464 59.357C6.464 55.6097 7.13133 52.0933 8.466 48.808C9.80067 45.4713 11.6743 42.5453 14.087 40.03C16.4997 37.5147 19.323 35.5383 22.557 34.101C25.791 32.6637 29.3073 31.945 33.106 31.945C38.2393 31.945 42.6283 33.0487 46.273 35.256C49.969 37.412 52.741 40.2867 54.589 43.88L46.658 49.732C45.272 47.0113 43.3213 44.9323 40.806 43.495C38.342 42.0577 35.647 41.339 32.721 41.339C30.411 41.339 28.3063 41.8267 26.407 42.802C24.5077 43.7773 22.865 45.112 21.479 46.806C20.093 48.5 19.015 50.4507 18.245 52.658C17.5263 54.8653 17.167 57.201 17.167 59.665C17.167 62.283 17.552 64.6957 18.322 66.903C19.1433 69.1103 20.2727 71.0353 21.71 72.678C23.1987 74.3207 24.9183 75.6297 26.869 76.605C28.8197 77.529 30.9757 77.991 33.337 77.991C36.109 77.991 38.7527 77.2723 41.268 75.835C43.8347 74.3977 46.2217 72.293 48.429 69.521V79.993C43.8603 84.921 38.5217 87.385 32.413 87.385ZM47.659 66.672H36.648V58.895H56.437V87H47.659V66.672ZM88.2079 87.385C84.6659 87.385 81.3036 86.6663 78.1209 85.229C74.9896 83.7917 72.2176 81.8153 69.8049 79.3C67.4436 76.7333 65.5956 73.756 64.2609 70.368C62.9263 66.98 62.2589 63.3097 62.2589 59.357C62.2589 55.6097 62.9263 52.0933 64.2609 48.808C65.5956 45.4713 67.4693 42.5453 69.8819 40.03C72.2946 37.5147 75.1179 35.5383 78.3519 34.101C81.5859 32.6637 85.1023 31.945 88.9009 31.945C94.0343 31.945 98.4233 33.0487 102.068 35.256C105.764 37.412 108.536 40.2867 110.384 43.88L102.453 49.732C101.067 47.0113 99.1163 44.9323 96.6009 43.495C94.1369 42.0577 91.4419 41.339 88.5159 41.339C86.2059 41.339 84.1013 41.8267 82.2019 42.802C80.3026 43.7773 78.6599 45.112 77.2739 46.806C75.8879 48.5 74.8099 50.4507 74.0399 52.658C73.3213 54.8653 72.9619 57.201 72.9619 59.665C72.9619 62.283 73.3469 64.6957 74.1169 66.903C74.9383 69.1103 76.0676 71.0353 77.5049 72.678C78.9936 74.3207 80.7133 75.6297 82.6639 76.605C84.6146 77.529 86.7706 77.991 89.1319 77.991C91.9039 77.991 94.5476 77.2723 97.0629 75.835C99.6296 74.3977 102.017 72.293 104.224 69.521V79.993C99.6553 84.921 94.3166 87.385 88.2079 87.385ZM103.454 66.672H92.4429V58.895H112.232V87H103.454V66.672Z" fill="white"/>
</svg>
