<svg width="32" height="55" viewBox="0 0 32 55" fill="none" xmlns="http://www.w3.org/2000/svg">
<path d="M1.51275 3.02547C0.675468 3.02547 0 2.34299 0 1.51275C0 0.675468 0.682504 0 1.51275 0C2.34299 0 3.02545 0.682504 3.02545 1.51275C3.02545 2.35002 2.35002 3.02547 1.51275 3.02547Z" fill="white"/>
<path d="M1.51275 16.0208C0.675468 16.0208 0 15.3383 0 14.5081C0 13.6708 0.682504 12.9954 1.51275 12.9954C2.34299 12.9954 3.02545 13.6778 3.02545 14.5081C3.02545 15.3383 2.35002 16.0208 1.51275 16.0208Z" fill="white"/>
<path d="M15.7605 16.0208C14.9233 16.0208 14.2478 15.3383 14.2478 14.5081C14.2478 13.6708 14.9303 12.9954 15.7605 12.9954C16.5978 12.9954 17.2733 13.6778 17.2733 14.5081C17.2803 15.3383 16.5978 16.0208 15.7605 16.0208Z" fill="white"/>
<path d="M1.51275 29.0162C0.675468 29.0162 0 28.3337 0 27.5034C0 26.6662 0.682504 25.9907 1.51275 25.9907C2.34299 25.9907 3.02545 26.6732 3.02545 27.5034C3.02545 28.3337 2.35002 29.0162 1.51275 29.0162Z" fill="white"/>
<path d="M15.7605 29.0162C14.9233 29.0162 14.2478 28.3337 14.2478 27.5034C14.2478 26.6662 14.9303 25.9907 15.7605 25.9907C16.5978 25.9907 17.2733 26.6732 17.2733 27.5034C17.2803 28.3337 16.5978 29.0162 15.7605 29.0162Z" fill="white"/>
<path d="M30.0084 29.0162C29.1711 29.0162 28.4956 28.3337 28.4956 27.5034C28.4956 26.6662 29.1781 25.9907 30.0084 25.9907C30.8456 25.9907 31.5211 26.6732 31.5211 27.5034C31.5281 28.3337 30.8456 29.0162 30.0084 29.0162Z" fill="white"/>
<path d="M1.51275 42.0045C0.675468 42.0045 0 41.322 0 40.4917C0 39.6545 0.682504 38.979 1.51275 38.979C2.34299 38.979 3.02545 39.6615 3.02545 40.4917C3.02545 41.329 2.35002 42.0045 1.51275 42.0045Z" fill="white"/>
<path d="M15.7605 42.0045C14.9233 42.0045 14.2478 41.322 14.2478 40.4917C14.2478 39.6545 14.9303 38.979 15.7605 38.979C16.5978 38.979 17.2733 39.6615 17.2733 40.4917C17.2803 41.329 16.5978 42.0045 15.7605 42.0045Z" fill="white"/>
<path d="M1.51275 55.0001C2.3482 55.0001 3.02545 54.3228 3.02545 53.4874C3.02545 52.6519 2.3482 51.9746 1.51275 51.9746C0.677289 51.9746 0 52.6519 0 53.4874C0 54.3228 0.677289 55.0001 1.51275 55.0001Z" fill="white"/>
</svg>
