<svg width="33" height="33" viewBox="0 0 33 33" fill="none" xmlns="http://www.w3.org/2000/svg">
<path d="M8.34534 25.4947C7.94534 25.228 7.60134 24.888 7.19867 24.4067C6.98969 24.1509 6.78257 23.8935 6.57734 23.6347C5.96 22.868 5.57067 22.5134 5.16934 22.368C5.00047 22.3121 4.84449 22.223 4.71059 22.1059C4.57669 21.9889 4.46757 21.8462 4.38966 21.6863C4.31174 21.5264 4.26661 21.3525 4.25692 21.1749C4.24722 20.9973 4.27317 20.8195 4.33322 20.6521C4.39327 20.4847 4.48621 20.3309 4.60658 20.2C4.72694 20.069 4.8723 19.9635 5.03408 19.8895C5.19586 19.8156 5.3708 19.7748 5.54859 19.7695C5.72639 19.7642 5.90344 19.7945 6.06934 19.8587C7.072 20.2187 7.75067 20.8387 8.66534 21.976C8.54 21.82 9.11867 22.5454 9.24267 22.6947C9.496 22.9974 9.68267 23.1814 9.82934 23.2787C10.1013 23.4614 10.6133 23.54 11.3627 23.4654C11.3947 22.956 11.488 22.4614 11.632 22.0054C7.67467 21.0374 5.43467 18.4854 5.43467 13.4774C5.43467 11.824 5.928 10.336 6.84534 9.08804C6.55467 7.89604 6.59867 6.4547 7.248 4.83204C7.32169 4.64848 7.4353 4.48362 7.58058 4.34941C7.72587 4.21519 7.8992 4.11498 8.088 4.05604C8.196 4.02404 8.25734 4.00937 8.36534 3.99337C9.436 3.82804 10.948 4.22004 12.9187 5.4547C14.093 5.17978 15.2953 5.04197 16.5013 5.04404C17.7173 5.04404 18.9267 5.1827 20.08 5.4547C22.0493 4.2107 23.5653 3.8187 24.6427 3.99337C24.7564 4.01115 24.8533 4.03337 24.9333 4.06004C25.1184 4.12107 25.2879 4.22195 25.4298 4.35556C25.5717 4.48917 25.6826 4.65227 25.7547 4.83337C26.404 6.4547 26.448 7.8947 26.1573 9.0867C27.0787 10.3347 27.568 11.8134 27.568 13.4774C27.568 18.4867 25.336 21.0307 21.3787 22C21.5453 22.5534 21.632 23.1707 21.632 23.84C21.632 24.7267 21.6293 25.572 21.6227 26.52C21.6227 26.7734 21.62 27.0454 21.616 27.4614C21.9155 27.5265 22.1833 27.6929 22.3745 27.9324C22.5657 28.1719 22.6686 28.47 22.6657 28.7765C22.6629 29.0829 22.5546 29.379 22.3591 29.615C22.1635 29.851 21.8926 30.0124 21.592 30.072C20.072 30.3747 18.9467 29.3627 18.9467 28.0387L18.9493 27.4427L18.956 26.5027C18.9627 25.56 18.9667 24.72 18.9667 23.84C18.9667 22.9107 18.7213 22.304 18.3987 22.0254C17.5173 21.2654 17.964 19.82 19.12 19.6907C23.0747 19.2467 24.9013 17.7147 24.9013 13.4774C24.9013 12.204 24.4853 11.152 23.684 10.272C23.5154 10.0866 23.4024 9.85744 23.3581 9.61076C23.3137 9.36408 23.3398 9.1099 23.4333 8.87737C23.6547 8.32537 23.748 7.60137 23.56 6.72537L23.5467 6.72937C22.892 6.9147 22.0667 7.31604 21.0693 7.9947C20.9085 8.10384 20.7258 8.1765 20.5339 8.2076C20.3421 8.23869 20.1457 8.22746 19.9587 8.1747C18.8333 7.86266 17.6705 7.7061 16.5027 7.70937C15.316 7.70937 14.14 7.8667 13.0467 8.17604C12.8605 8.22818 12.6652 8.2392 12.4743 8.20835C12.2835 8.1775 12.1016 8.10551 11.9413 7.99737C10.9373 7.32137 10.1093 6.92137 9.448 6.7347C9.25734 7.60537 9.352 8.3267 9.572 8.87737C9.66508 9.10984 9.69081 9.36383 9.64624 9.61025C9.60167 9.85667 9.48861 10.0856 9.32 10.2707C8.524 11.144 8.10267 12.2147 8.10267 13.476C8.10267 17.7054 9.93067 19.2467 13.8653 19.6894C15.0187 19.8187 15.468 21.2587 14.592 22.02C14.3347 22.244 14.0187 22.996 14.0187 23.8387V28.0387C14.0187 29.352 12.9067 30.3387 11.4053 30.076C11.101 30.0226 10.8247 29.8651 10.6236 29.6306C10.4225 29.396 10.3092 29.0989 10.3029 28.79C10.2966 28.4811 10.3977 28.1796 10.5891 27.937C10.7805 27.6944 11.0501 27.5258 11.352 27.46V26.14C10.1387 26.2214 9.13734 26.0227 8.34667 25.4934" fill="white"/>
</svg>
