<svg width="27" height="27" viewBox="0 0 27 27" fill="none" xmlns="http://www.w3.org/2000/svg">
<path fill-rule="evenodd" clip-rule="evenodd" d="M2.5 2.5V24.5H24.5V2.5H2.5ZM2 0C0.895431 0 0 0.895431 0 2V25C0 26.1046 0.895431 27 2 27H25C26.1046 27 27 26.1046 27 25V2C27 0.895431 26.1046 0 25 0H2Z" fill="white"/>
<path d="M11.98 9.1C11.98 9.63333 11.96 10.1467 11.92 10.64C11.8933 11.1333 11.8667 11.48 11.84 11.68H12C12.24 11.3067 12.52 11.0067 12.84 10.78C13.16 10.54 13.5133 10.3667 13.9 10.26C14.3 10.14 14.72 10.08 15.16 10.08C15.9467 10.08 16.6333 10.22 17.22 10.5C17.8067 10.78 18.26 11.2133 18.58 11.8C18.9133 12.3867 19.08 13.1467 19.08 14.08V21.2H16.1V14.82C16.1 14.0333 15.9533 13.4467 15.66 13.06C15.38 12.66 14.94 12.46 14.34 12.46C13.74 12.46 13.2667 12.6 12.92 12.88C12.5867 13.16 12.3467 13.5667 12.2 14.1C12.0533 14.6333 11.98 15.2867 11.98 16.06V21.2H9V6H11.98V9.1Z" fill="white"/>
</svg>
