<svg width="34" height="34" viewBox="0 0 34 34" fill="none" xmlns="http://www.w3.org/2000/svg">
<path d="M31.7641 28.7938L25.7875 14.3172C25.6772 14.0498 25.4899 13.8213 25.2495 13.6605C25.0091 13.4996 24.7264 13.4138 24.4372 13.4138C24.1479 13.4138 23.8652 13.4996 23.6248 13.6605C23.3844 13.8213 23.1972 14.0498 23.0868 14.3172L17.1102 28.7938C17.0359 28.9713 16.9974 29.1617 16.9969 29.3542C16.9964 29.5467 17.034 29.7373 17.1074 29.9152C17.1808 30.0931 17.2887 30.2548 17.4248 30.3909C17.5608 30.527 17.7225 30.6348 17.9004 30.7083C18.0783 30.7817 18.2689 30.8193 18.4614 30.8188C18.6538 30.8184 18.8443 30.7799 19.0218 30.7056C19.1994 30.6313 19.3605 30.5226 19.4959 30.3859C19.6313 30.2491 19.7384 30.087 19.811 29.9087L21.0282 26.9609H27.8461L29.0634 29.9087C29.1737 30.1762 29.361 30.4049 29.6014 30.5658C29.8419 30.7267 30.1247 30.8125 30.4141 30.8125C30.6541 30.8124 30.8905 30.7531 31.1021 30.6398C31.3138 30.5266 31.4944 30.363 31.6278 30.1634C31.7612 29.9638 31.8433 29.7345 31.867 29.4956C31.8907 29.2567 31.8551 29.0156 31.7634 28.7938H31.7641ZM22.2348 24.0391L24.4375 18.7033L26.6402 24.0391H22.2348ZM17.7862 22.772C18.0132 22.4585 18.1065 22.0677 18.0456 21.6855C17.9847 21.3033 17.7747 20.9608 17.4615 20.7334C17.4482 20.7234 16.4654 19.9943 15.0384 18.4271C17.6714 14.8624 19.1629 10.807 19.7711 8.89844H21.9141C22.3015 8.89844 22.6731 8.74452 22.9471 8.47054C23.2211 8.19656 23.375 7.82496 23.375 7.4375C23.375 7.05004 23.2211 6.67844 22.9471 6.40446C22.6731 6.13048 22.3015 5.97656 21.9141 5.97656H14.2109V4.64844C14.2109 4.26097 14.057 3.88938 13.783 3.6154C13.5091 3.34142 13.1375 3.1875 12.75 3.1875C12.3625 3.1875 11.9909 3.34142 11.717 3.6154C11.443 3.88938 11.2891 4.26097 11.2891 4.64844V5.97656H3.58594C3.19847 5.97656 2.82688 6.13048 2.5529 6.40446C2.27892 6.67844 2.125 7.05004 2.125 7.4375C2.125 7.82496 2.27892 8.19656 2.5529 8.47054C2.82688 8.74452 3.19847 8.89844 3.58594 8.89844H16.6846C16.0524 10.6881 14.8883 13.5137 13.1126 16.0942C11.0268 13.3264 10.2518 11.5354 10.2458 11.5208C10.0931 11.1679 9.80745 10.8895 9.45078 10.7458C9.09411 10.6022 8.69518 10.605 8.34053 10.7535C7.98588 10.9021 7.70411 11.1845 7.55631 11.5395C7.40852 11.8944 7.40663 12.2934 7.55105 12.6497C7.58957 12.7414 8.51727 14.9228 11.0613 18.2232C11.1224 18.3022 11.1828 18.3793 11.2432 18.4563C8.63746 21.4014 6.08082 23.2282 5.01102 23.8179C4.67084 24.0035 4.4183 24.3166 4.30896 24.6883C4.19962 25.06 4.24243 25.46 4.42797 25.8002C4.61351 26.1403 4.92659 26.3929 5.29833 26.5022C5.67007 26.6116 6.07002 26.5687 6.4102 26.3832C6.55363 26.3048 9.63754 24.5975 13.1591 20.6995C14.6545 22.2986 15.6825 23.0529 15.7443 23.0968C15.8996 23.2096 16.0758 23.2907 16.2625 23.3355C16.4493 23.3802 16.6431 23.3877 16.8327 23.3575C17.0224 23.3272 17.2042 23.2599 17.3678 23.1593C17.5315 23.0588 17.6736 22.9269 17.7862 22.7714V22.772Z" fill="black"/>
</svg>
