<svg width="32" height="32" viewBox="0 0 32 32" fill="none" xmlns="http://www.w3.org/2000/svg">
<path d="M24.5 2C25.6935 2 26.8381 2.47411 27.682 3.31802C28.5259 4.16193 29 5.30653 29 6.5V24.5C29 25.6935 28.5259 26.8381 27.682 27.682C26.8381 28.5259 25.6935 29 24.5 29H6.5C5.30653 29 4.16193 28.5259 3.31802 27.682C2.47411 26.8381 2 25.6935 2 24.5V6.5C2 5.30653 2.47411 4.16193 3.31802 3.31802C4.16193 2.47411 5.30653 2 6.5 2H24.5ZM24.5 5H6.5C6.10218 5 5.72064 5.15804 5.43934 5.43934C5.15804 5.72064 5 6.10218 5 6.5V24.5C5 24.8978 5.15804 25.2794 5.43934 25.5607C5.72064 25.842 6.10218 26 6.5 26H24.5C24.8978 26 25.2794 25.842 25.5607 25.5607C25.842 25.2794 26 24.8978 26 24.5V6.5C26 6.10218 25.842 5.72064 25.5607 5.43934C25.2794 5.15804 24.8978 5 24.5 5ZM9.5 12.5C9.8674 12.5 10.222 12.6349 10.4966 12.8791C10.7711 13.1232 10.9465 13.4596 10.9895 13.8245L11 14V21.5C10.9996 21.8823 10.8532 22.25 10.5907 22.5281C10.3283 22.8061 9.96957 22.9734 9.58791 22.9958C9.20625 23.0182 8.83043 22.894 8.53725 22.6486C8.24407 22.4032 8.05566 22.0551 8.0105 21.6755L8 21.5V14C8 13.6022 8.15804 13.2206 8.43934 12.9393C8.72064 12.658 9.10218 12.5 9.5 12.5ZM14 11C14.3513 10.9999 14.6915 11.1232 14.9612 11.3482C15.2309 11.5733 15.4131 11.8859 15.476 12.2315C15.7781 12.057 16.0902 11.9003 16.4105 11.762C17.411 11.3345 18.9095 11.099 20.2625 11.5235C20.972 11.7485 21.6845 12.1685 22.2125 12.884C22.685 13.5215 22.94 14.297 22.991 15.1685L23 15.5V21.5C22.9996 21.8823 22.8532 22.25 22.5907 22.5281C22.3283 22.8061 21.9696 22.9734 21.5879 22.9958C21.2062 23.0182 20.8304 22.894 20.5373 22.6486C20.2441 22.4032 20.0557 22.0551 20.0105 21.6755L20 21.5V15.5C20 15.005 19.88 14.774 19.802 14.6675C19.6899 14.5284 19.5357 14.4294 19.3625 14.3855C18.8405 14.2205 18.089 14.3075 17.5895 14.5205C16.8395 14.8415 16.1525 15.3455 15.6845 15.812L15.5 16.01V21.5C15.4996 21.8823 15.3532 22.25 15.0907 22.5281C14.8283 22.8061 14.4696 22.9734 14.0879 22.9958C13.7062 23.0182 13.3304 22.894 13.0373 22.6486C12.7441 22.4032 12.5557 22.0551 12.5105 21.6755L12.5 21.5V12.5C12.5 12.1022 12.658 11.7206 12.9393 11.4393C13.2206 11.158 13.6022 11 14 11ZM9.5 8C9.89782 8 10.2794 8.15804 10.5607 8.43934C10.842 8.72064 11 9.10218 11 9.5C11 9.89782 10.842 10.2794 10.5607 10.5607C10.2794 10.842 9.89782 11 9.5 11C9.10218 11 8.72064 10.842 8.43934 10.5607C8.15804 10.2794 8 9.89782 8 9.5C8 9.10218 8.15804 8.72064 8.43934 8.43934C8.72064 8.15804 9.10218 8 9.5 8Z" fill="white"/>
</svg>
