<svg width="51" height="56" viewBox="0 0 51 56" fill="none" xmlns="http://www.w3.org/2000/svg">
<g opacity="0.3">
<path d="M1.64516 0.823529C1.64516 1.27835 1.27688 1.64706 0.822581 1.64706C0.368282 1.64706 0 1.27835 0 0.823529C0 0.368707 0.368282 0 0.822581 0C1.27688 0 1.64516 0.368707 1.64516 0.823529Z" fill="white"/>
<path d="M6.58065 0.823529C6.58065 1.27835 6.21236 1.64706 5.75806 1.64706C5.30377 1.64706 4.93548 1.27835 4.93548 0.823529C4.93548 0.368707 5.30377 0 5.75806 0C6.21236 0 6.58065 0.368707 6.58065 0.823529Z" fill="white"/>
<path d="M11.5161 0.823529C11.5161 1.27835 11.1478 1.64706 10.6935 1.64706C10.2393 1.64706 9.87097 1.27835 9.87097 0.823529C9.87097 0.368707 10.2393 0 10.6935 0C11.1478 0 11.5161 0.368707 11.5161 0.823529Z" fill="white"/>
<path d="M16.4516 0.823529C16.4516 1.27835 16.0833 1.64706 15.629 1.64706C15.1747 1.64706 14.8065 1.27835 14.8065 0.823529C14.8065 0.368707 15.1747 0 15.629 0C16.0833 0 16.4516 0.368707 16.4516 0.823529Z" fill="white"/>
<path d="M21.3871 0.823529C21.3871 1.27835 21.0188 1.64706 20.5645 1.64706C20.1102 1.64706 19.7419 1.27835 19.7419 0.823529C19.7419 0.368707 20.1102 0 20.5645 0C21.0188 0 21.3871 0.368707 21.3871 0.823529Z" fill="white"/>
<path d="M26.3226 0.823529C26.3226 1.27835 25.9543 1.64706 25.5 1.64706C25.0457 1.64706 24.6774 1.27835 24.6774 0.823529C24.6774 0.368707 25.0457 0 25.5 0C25.9543 0 26.3226 0.368707 26.3226 0.823529Z" fill="white"/>
<path d="M31.2581 0.823529C31.2581 1.27835 30.8898 1.64706 30.4355 1.64706C29.9812 1.64706 29.6129 1.27835 29.6129 0.823529C29.6129 0.368707 29.9812 0 30.4355 0C30.8898 0 31.2581 0.368707 31.2581 0.823529Z" fill="white"/>
<path d="M36.1935 0.823529C36.1935 1.27835 35.8253 1.64706 35.371 1.64706C34.9167 1.64706 34.5484 1.27835 34.5484 0.823529C34.5484 0.368707 34.9167 0 35.371 0C35.8253 0 36.1935 0.368707 36.1935 0.823529Z" fill="white"/>
<path d="M41.129 0.823529C41.129 1.27835 40.7608 1.64706 40.3065 1.64706C39.8522 1.64706 39.4839 1.27835 39.4839 0.823529C39.4839 0.368707 39.8522 0 40.3065 0C40.7608 0 41.129 0.368707 41.129 0.823529Z" fill="white"/>
<path d="M46.0645 0.823529C46.0645 1.27835 45.6962 1.64706 45.2419 1.64706C44.7876 1.64706 44.4194 1.27835 44.4194 0.823529C44.4194 0.368707 44.7876 0 45.2419 0C45.6962 0 46.0645 0.368707 46.0645 0.823529Z" fill="white"/>
<path d="M51 0.823529C51 1.27835 50.6317 1.64706 50.1774 1.64706C49.7231 1.64706 49.3548 1.27835 49.3548 0.823529C49.3548 0.368707 49.7231 0 50.1774 0C50.6317 0 51 0.368707 51 0.823529Z" fill="white"/>
<path d="M1.64516 5.76471C1.64516 6.21953 1.27688 6.58824 0.822581 6.58824C0.368282 6.58824 0 6.21953 0 5.76471C0 5.30988 0.368282 4.94118 0.822581 4.94118C1.27688 4.94118 1.64516 5.30988 1.64516 5.76471Z" fill="white"/>
<path d="M6.58065 5.76471C6.58065 6.21953 6.21236 6.58824 5.75806 6.58824C5.30377 6.58824 4.93548 6.21953 4.93548 5.76471C4.93548 5.30988 5.30377 4.94118 5.75806 4.94118C6.21236 4.94118 6.58065 5.30988 6.58065 5.76471Z" fill="white"/>
<path d="M11.5161 5.76471C11.5161 6.21953 11.1478 6.58824 10.6935 6.58824C10.2393 6.58824 9.87097 6.21953 9.87097 5.76471C9.87097 5.30988 10.2393 4.94118 10.6935 4.94118C11.1478 4.94118 11.5161 5.30988 11.5161 5.76471Z" fill="white"/>
<path d="M16.4516 5.76471C16.4516 6.21953 16.0833 6.58824 15.629 6.58824C15.1747 6.58824 14.8065 6.21953 14.8065 5.76471C14.8065 5.30988 15.1747 4.94118 15.629 4.94118C16.0833 4.94118 16.4516 5.30988 16.4516 5.76471Z" fill="white"/>
<path d="M21.3871 5.76471C21.3871 6.21953 21.0188 6.58824 20.5645 6.58824C20.1102 6.58824 19.7419 6.21953 19.7419 5.76471C19.7419 5.30988 20.1102 4.94118 20.5645 4.94118C21.0188 4.94118 21.3871 5.30988 21.3871 5.76471Z" fill="white"/>
<path d="M26.3226 5.76471C26.3226 6.21953 25.9543 6.58824 25.5 6.58824C25.0457 6.58824 24.6774 6.21953 24.6774 5.76471C24.6774 5.30988 25.0457 4.94118 25.5 4.94118C25.9543 4.94118 26.3226 5.30988 26.3226 5.76471Z" fill="white"/>
<path d="M31.2581 5.76471C31.2581 6.21953 30.8898 6.58824 30.4355 6.58824C29.9812 6.58824 29.6129 6.21953 29.6129 5.76471C29.6129 5.30988 29.9812 4.94118 30.4355 4.94118C30.8898 4.94118 31.2581 5.30988 31.2581 5.76471Z" fill="white"/>
<path d="M36.1935 5.76471C36.1935 6.21953 35.8253 6.58824 35.371 6.58824C34.9167 6.58824 34.5484 6.21953 34.5484 5.76471C34.5484 5.30988 34.9167 4.94118 35.371 4.94118C35.8253 4.94118 36.1935 5.30988 36.1935 5.76471Z" fill="white"/>
<path d="M41.129 5.76471C41.129 6.21953 40.7608 6.58824 40.3065 6.58824C39.8522 6.58824 39.4839 6.21953 39.4839 5.76471C39.4839 5.30988 39.8522 4.94118 40.3065 4.94118C40.7608 4.94118 41.129 5.30988 41.129 5.76471Z" fill="white"/>
<path d="M46.0645 5.76471C46.0645 6.21953 45.6962 6.58824 45.2419 6.58824C44.7876 6.58824 44.4194 6.21953 44.4194 5.76471C44.4194 5.30988 44.7876 4.94118 45.2419 4.94118C45.6962 4.94118 46.0645 5.30988 46.0645 5.76471Z" fill="white"/>
<path d="M51 5.76471C51 6.21953 50.6317 6.58824 50.1774 6.58824C49.7231 6.58824 49.3548 6.21953 49.3548 5.76471C49.3548 5.30988 49.7231 4.94118 50.1774 4.94118C50.6317 4.94118 51 5.30988 51 5.76471Z" fill="white"/>
<path d="M1.64516 10.7059C1.64516 11.1607 1.27688 11.5294 0.822581 11.5294C0.368282 11.5294 0 11.1607 0 10.7059C0 10.2511 0.368282 9.88235 0.822581 9.88235C1.27688 9.88235 1.64516 10.2511 1.64516 10.7059Z" fill="white"/>
<path d="M6.58065 10.7059C6.58065 11.1607 6.21236 11.5294 5.75806 11.5294C5.30377 11.5294 4.93548 11.1607 4.93548 10.7059C4.93548 10.2511 5.30377 9.88235 5.75806 9.88235C6.21236 9.88235 6.58065 10.2511 6.58065 10.7059Z" fill="white"/>
<path d="M11.5161 10.7059C11.5161 11.1607 11.1478 11.5294 10.6935 11.5294C10.2393 11.5294 9.87097 11.1607 9.87097 10.7059C9.87097 10.2511 10.2393 9.88235 10.6935 9.88235C11.1478 9.88235 11.5161 10.2511 11.5161 10.7059Z" fill="white"/>
<path d="M16.4516 10.7059C16.4516 11.1607 16.0833 11.5294 15.629 11.5294C15.1747 11.5294 14.8065 11.1607 14.8065 10.7059C14.8065 10.2511 15.1747 9.88235 15.629 9.88235C16.0833 9.88235 16.4516 10.2511 16.4516 10.7059Z" fill="white"/>
<path d="M21.3871 10.7059C21.3871 11.1607 21.0188 11.5294 20.5645 11.5294C20.1102 11.5294 19.7419 11.1607 19.7419 10.7059C19.7419 10.2511 20.1102 9.88235 20.5645 9.88235C21.0188 9.88235 21.3871 10.2511 21.3871 10.7059Z" fill="white"/>
<path d="M26.3226 10.7059C26.3226 11.1607 25.9543 11.5294 25.5 11.5294C25.0457 11.5294 24.6774 11.1607 24.6774 10.7059C24.6774 10.2511 25.0457 9.88235 25.5 9.88235C25.9543 9.88235 26.3226 10.2511 26.3226 10.7059Z" fill="white"/>
<path d="M31.2581 10.7059C31.2581 11.1607 30.8898 11.5294 30.4355 11.5294C29.9812 11.5294 29.6129 11.1607 29.6129 10.7059C29.6129 10.2511 29.9812 9.88235 30.4355 9.88235C30.8898 9.88235 31.2581 10.2511 31.2581 10.7059Z" fill="white"/>
<path d="M36.1935 10.7059C36.1935 11.1607 35.8253 11.5294 35.371 11.5294C34.9167 11.5294 34.5484 11.1607 34.5484 10.7059C34.5484 10.2511 34.9167 9.88235 35.371 9.88235C35.8253 9.88235 36.1935 10.2511 36.1935 10.7059Z" fill="white"/>
<path d="M41.129 10.7059C41.129 11.1607 40.7608 11.5294 40.3065 11.5294C39.8522 11.5294 39.4839 11.1607 39.4839 10.7059C39.4839 10.2511 39.8522 9.88235 40.3065 9.88235C40.7608 9.88235 41.129 10.2511 41.129 10.7059Z" fill="white"/>
<path d="M46.0645 10.7059C46.0645 11.1607 45.6962 11.5294 45.2419 11.5294C44.7876 11.5294 44.4194 11.1607 44.4194 10.7059C44.4194 10.2511 44.7876 9.88235 45.2419 9.88235C45.6962 9.88235 46.0645 10.2511 46.0645 10.7059Z" fill="white"/>
<path d="M51 10.7059C51 11.1607 50.6317 11.5294 50.1774 11.5294C49.7231 11.5294 49.3548 11.1607 49.3548 10.7059C49.3548 10.2511 49.7231 9.88235 50.1774 9.88235C50.6317 9.88235 51 10.2511 51 10.7059Z" fill="white"/>
<path d="M1.64516 15.6471C1.64516 16.1019 1.27688 16.4706 0.822581 16.4706C0.368282 16.4706 0 16.1019 0 15.6471C0 15.1922 0.368282 14.8235 0.822581 14.8235C1.27688 14.8235 1.64516 15.1922 1.64516 15.6471Z" fill="white"/>
<path d="M6.58065 15.6471C6.58065 16.1019 6.21236 16.4706 5.75806 16.4706C5.30377 16.4706 4.93548 16.1019 4.93548 15.6471C4.93548 15.1922 5.30377 14.8235 5.75806 14.8235C6.21236 14.8235 6.58065 15.1922 6.58065 15.6471Z" fill="white"/>
<path d="M11.5161 15.6471C11.5161 16.1019 11.1478 16.4706 10.6935 16.4706C10.2393 16.4706 9.87097 16.1019 9.87097 15.6471C9.87097 15.1922 10.2393 14.8235 10.6935 14.8235C11.1478 14.8235 11.5161 15.1922 11.5161 15.6471Z" fill="white"/>
<path d="M16.4516 15.6471C16.4516 16.1019 16.0833 16.4706 15.629 16.4706C15.1747 16.4706 14.8065 16.1019 14.8065 15.6471C14.8065 15.1922 15.1747 14.8235 15.629 14.8235C16.0833 14.8235 16.4516 15.1922 16.4516 15.6471Z" fill="white"/>
<path d="M21.3871 15.6471C21.3871 16.1019 21.0188 16.4706 20.5645 16.4706C20.1102 16.4706 19.7419 16.1019 19.7419 15.6471C19.7419 15.1922 20.1102 14.8235 20.5645 14.8235C21.0188 14.8235 21.3871 15.1922 21.3871 15.6471Z" fill="white"/>
<path d="M26.3226 15.6471C26.3226 16.1019 25.9543 16.4706 25.5 16.4706C25.0457 16.4706 24.6774 16.1019 24.6774 15.6471C24.6774 15.1922 25.0457 14.8235 25.5 14.8235C25.9543 14.8235 26.3226 15.1922 26.3226 15.6471Z" fill="white"/>
<path d="M31.2581 15.6471C31.2581 16.1019 30.8898 16.4706 30.4355 16.4706C29.9812 16.4706 29.6129 16.1019 29.6129 15.6471C29.6129 15.1922 29.9812 14.8235 30.4355 14.8235C30.8898 14.8235 31.2581 15.1922 31.2581 15.6471Z" fill="white"/>
<path d="M36.1935 15.6471C36.1935 16.1019 35.8253 16.4706 35.371 16.4706C34.9167 16.4706 34.5484 16.1019 34.5484 15.6471C34.5484 15.1922 34.9167 14.8235 35.371 14.8235C35.8253 14.8235 36.1935 15.1922 36.1935 15.6471Z" fill="white"/>
<path d="M41.129 15.6471C41.129 16.1019 40.7608 16.4706 40.3065 16.4706C39.8522 16.4706 39.4839 16.1019 39.4839 15.6471C39.4839 15.1922 39.8522 14.8235 40.3065 14.8235C40.7608 14.8235 41.129 15.1922 41.129 15.6471Z" fill="white"/>
<path d="M46.0645 15.6471C46.0645 16.1019 45.6962 16.4706 45.2419 16.4706C44.7876 16.4706 44.4194 16.1019 44.4194 15.6471C44.4194 15.1922 44.7876 14.8235 45.2419 14.8235C45.6962 14.8235 46.0645 15.1922 46.0645 15.6471Z" fill="white"/>
<path d="M51 15.6471C51 16.1019 50.6317 16.4706 50.1774 16.4706C49.7231 16.4706 49.3548 16.1019 49.3548 15.6471C49.3548 15.1922 49.7231 14.8235 50.1774 14.8235C50.6317 14.8235 51 15.1922 51 15.6471Z" fill="white"/>
<path d="M1.64516 20.5882C1.64516 21.0431 1.27688 21.4118 0.822581 21.4118C0.368282 21.4118 0 21.0431 0 20.5882C0 20.1334 0.368282 19.7647 0.822581 19.7647C1.27688 19.7647 1.64516 20.1334 1.64516 20.5882Z" fill="white"/>
<path d="M6.58065 20.5882C6.58065 21.0431 6.21236 21.4118 5.75806 21.4118C5.30377 21.4118 4.93548 21.0431 4.93548 20.5882C4.93548 20.1334 5.30377 19.7647 5.75806 19.7647C6.21236 19.7647 6.58065 20.1334 6.58065 20.5882Z" fill="white"/>
<path d="M11.5161 20.5882C11.5161 21.0431 11.1478 21.4118 10.6935 21.4118C10.2393 21.4118 9.87097 21.0431 9.87097 20.5882C9.87097 20.1334 10.2393 19.7647 10.6935 19.7647C11.1478 19.7647 11.5161 20.1334 11.5161 20.5882Z" fill="white"/>
<path d="M16.4516 20.5882C16.4516 21.0431 16.0833 21.4118 15.629 21.4118C15.1747 21.4118 14.8065 21.0431 14.8065 20.5882C14.8065 20.1334 15.1747 19.7647 15.629 19.7647C16.0833 19.7647 16.4516 20.1334 16.4516 20.5882Z" fill="white"/>
<path d="M21.3871 20.5882C21.3871 21.0431 21.0188 21.4118 20.5645 21.4118C20.1102 21.4118 19.7419 21.0431 19.7419 20.5882C19.7419 20.1334 20.1102 19.7647 20.5645 19.7647C21.0188 19.7647 21.3871 20.1334 21.3871 20.5882Z" fill="white"/>
<path d="M26.3226 20.5882C26.3226 21.0431 25.9543 21.4118 25.5 21.4118C25.0457 21.4118 24.6774 21.0431 24.6774 20.5882C24.6774 20.1334 25.0457 19.7647 25.5 19.7647C25.9543 19.7647 26.3226 20.1334 26.3226 20.5882Z" fill="white"/>
<path d="M31.2581 20.5882C31.2581 21.0431 30.8898 21.4118 30.4355 21.4118C29.9812 21.4118 29.6129 21.0431 29.6129 20.5882C29.6129 20.1334 29.9812 19.7647 30.4355 19.7647C30.8898 19.7647 31.2581 20.1334 31.2581 20.5882Z" fill="white"/>
<path d="M36.1935 20.5882C36.1935 21.0431 35.8253 21.4118 35.371 21.4118C34.9167 21.4118 34.5484 21.0431 34.5484 20.5882C34.5484 20.1334 34.9167 19.7647 35.371 19.7647C35.8253 19.7647 36.1935 20.1334 36.1935 20.5882Z" fill="white"/>
<path d="M41.129 20.5882C41.129 21.0431 40.7608 21.4118 40.3065 21.4118C39.8522 21.4118 39.4839 21.0431 39.4839 20.5882C39.4839 20.1334 39.8522 19.7647 40.3065 19.7647C40.7608 19.7647 41.129 20.1334 41.129 20.5882Z" fill="white"/>
<path d="M46.0645 20.5882C46.0645 21.0431 45.6962 21.4118 45.2419 21.4118C44.7876 21.4118 44.4194 21.0431 44.4194 20.5882C44.4194 20.1334 44.7876 19.7647 45.2419 19.7647C45.6962 19.7647 46.0645 20.1334 46.0645 20.5882Z" fill="white"/>
<path d="M51 20.5882C51 21.0431 50.6317 21.4118 50.1774 21.4118C49.7231 21.4118 49.3548 21.0431 49.3548 20.5882C49.3548 20.1334 49.7231 19.7647 50.1774 19.7647C50.6317 19.7647 51 20.1334 51 20.5882Z" fill="white"/>
<path d="M1.64516 25.5294C1.64516 25.9842 1.27688 26.3529 0.822581 26.3529C0.368282 26.3529 0 25.9842 0 25.5294C0 25.0746 0.368282 24.7059 0.822581 24.7059C1.27688 24.7059 1.64516 25.0746 1.64516 25.5294Z" fill="white"/>
<path d="M6.58065 25.5294C6.58065 25.9842 6.21236 26.3529 5.75806 26.3529C5.30377 26.3529 4.93548 25.9842 4.93548 25.5294C4.93548 25.0746 5.30377 24.7059 5.75806 24.7059C6.21236 24.7059 6.58065 25.0746 6.58065 25.5294Z" fill="white"/>
<path d="M11.5161 25.5294C11.5161 25.9842 11.1478 26.3529 10.6935 26.3529C10.2393 26.3529 9.87097 25.9842 9.87097 25.5294C9.87097 25.0746 10.2393 24.7059 10.6935 24.7059C11.1478 24.7059 11.5161 25.0746 11.5161 25.5294Z" fill="white"/>
<path d="M16.4516 25.5294C16.4516 25.9842 16.0833 26.3529 15.629 26.3529C15.1747 26.3529 14.8065 25.9842 14.8065 25.5294C14.8065 25.0746 15.1747 24.7059 15.629 24.7059C16.0833 24.7059 16.4516 25.0746 16.4516 25.5294Z" fill="white"/>
<path d="M21.3871 25.5294C21.3871 25.9842 21.0188 26.3529 20.5645 26.3529C20.1102 26.3529 19.7419 25.9842 19.7419 25.5294C19.7419 25.0746 20.1102 24.7059 20.5645 24.7059C21.0188 24.7059 21.3871 25.0746 21.3871 25.5294Z" fill="white"/>
<path d="M26.3226 25.5294C26.3226 25.9842 25.9543 26.3529 25.5 26.3529C25.0457 26.3529 24.6774 25.9842 24.6774 25.5294C24.6774 25.0746 25.0457 24.7059 25.5 24.7059C25.9543 24.7059 26.3226 25.0746 26.3226 25.5294Z" fill="white"/>
<path d="M31.2581 25.5294C31.2581 25.9842 30.8898 26.3529 30.4355 26.3529C29.9812 26.3529 29.6129 25.9842 29.6129 25.5294C29.6129 25.0746 29.9812 24.7059 30.4355 24.7059C30.8898 24.7059 31.2581 25.0746 31.2581 25.5294Z" fill="white"/>
<path d="M36.1935 25.5294C36.1935 25.9842 35.8253 26.3529 35.371 26.3529C34.9167 26.3529 34.5484 25.9842 34.5484 25.5294C34.5484 25.0746 34.9167 24.7059 35.371 24.7059C35.8253 24.7059 36.1935 25.0746 36.1935 25.5294Z" fill="white"/>
<path d="M41.129 25.5294C41.129 25.9842 40.7608 26.3529 40.3065 26.3529C39.8522 26.3529 39.4839 25.9842 39.4839 25.5294C39.4839 25.0746 39.8522 24.7059 40.3065 24.7059C40.7608 24.7059 41.129 25.0746 41.129 25.5294Z" fill="white"/>
<path d="M46.0645 25.5294C46.0645 25.9842 45.6962 26.3529 45.2419 26.3529C44.7876 26.3529 44.4194 25.9842 44.4194 25.5294C44.4194 25.0746 44.7876 24.7059 45.2419 24.7059C45.6962 24.7059 46.0645 25.0746 46.0645 25.5294Z" fill="white"/>
<path d="M51 25.5294C51 25.9842 50.6317 26.3529 50.1774 26.3529C49.7231 26.3529 49.3548 25.9842 49.3548 25.5294C49.3548 25.0746 49.7231 24.7059 50.1774 24.7059C50.6317 24.7059 51 25.0746 51 25.5294Z" fill="white"/>
<path d="M1.64516 30.4706C1.64516 30.9254 1.27688 31.2941 0.822581 31.2941C0.368282 31.2941 0 30.9254 0 30.4706C0 30.0158 0.368282 29.6471 0.822581 29.6471C1.27688 29.6471 1.64516 30.0158 1.64516 30.4706Z" fill="white"/>
<path d="M6.58065 30.4706C6.58065 30.9254 6.21236 31.2941 5.75806 31.2941C5.30377 31.2941 4.93548 30.9254 4.93548 30.4706C4.93548 30.0158 5.30377 29.6471 5.75806 29.6471C6.21236 29.6471 6.58065 30.0158 6.58065 30.4706Z" fill="white"/>
<path d="M11.5161 30.4706C11.5161 30.9254 11.1478 31.2941 10.6935 31.2941C10.2393 31.2941 9.87097 30.9254 9.87097 30.4706C9.87097 30.0158 10.2393 29.6471 10.6935 29.6471C11.1478 29.6471 11.5161 30.0158 11.5161 30.4706Z" fill="white"/>
<path d="M16.4516 30.4706C16.4516 30.9254 16.0833 31.2941 15.629 31.2941C15.1747 31.2941 14.8065 30.9254 14.8065 30.4706C14.8065 30.0158 15.1747 29.6471 15.629 29.6471C16.0833 29.6471 16.4516 30.0158 16.4516 30.4706Z" fill="white"/>
<path d="M21.3871 30.4706C21.3871 30.9254 21.0188 31.2941 20.5645 31.2941C20.1102 31.2941 19.7419 30.9254 19.7419 30.4706C19.7419 30.0158 20.1102 29.6471 20.5645 29.6471C21.0188 29.6471 21.3871 30.0158 21.3871 30.4706Z" fill="white"/>
<path d="M26.3226 30.4706C26.3226 30.9254 25.9543 31.2941 25.5 31.2941C25.0457 31.2941 24.6774 30.9254 24.6774 30.4706C24.6774 30.0158 25.0457 29.6471 25.5 29.6471C25.9543 29.6471 26.3226 30.0158 26.3226 30.4706Z" fill="white"/>
<path d="M31.2581 30.4706C31.2581 30.9254 30.8898 31.2941 30.4355 31.2941C29.9812 31.2941 29.6129 30.9254 29.6129 30.4706C29.6129 30.0158 29.9812 29.6471 30.4355 29.6471C30.8898 29.6471 31.2581 30.0158 31.2581 30.4706Z" fill="white"/>
<path d="M36.1935 30.4706C36.1935 30.9254 35.8253 31.2941 35.371 31.2941C34.9167 31.2941 34.5484 30.9254 34.5484 30.4706C34.5484 30.0158 34.9167 29.6471 35.371 29.6471C35.8253 29.6471 36.1935 30.0158 36.1935 30.4706Z" fill="white"/>
<path d="M41.129 30.4706C41.129 30.9254 40.7608 31.2941 40.3065 31.2941C39.8522 31.2941 39.4839 30.9254 39.4839 30.4706C39.4839 30.0158 39.8522 29.6471 40.3065 29.6471C40.7608 29.6471 41.129 30.0158 41.129 30.4706Z" fill="white"/>
<path d="M46.0645 30.4706C46.0645 30.9254 45.6962 31.2941 45.2419 31.2941C44.7876 31.2941 44.4194 30.9254 44.4194 30.4706C44.4194 30.0158 44.7876 29.6471 45.2419 29.6471C45.6962 29.6471 46.0645 30.0158 46.0645 30.4706Z" fill="white"/>
<path d="M51 30.4706C51 30.9254 50.6317 31.2941 50.1774 31.2941C49.7231 31.2941 49.3548 30.9254 49.3548 30.4706C49.3548 30.0158 49.7231 29.6471 50.1774 29.6471C50.6317 29.6471 51 30.0158 51 30.4706Z" fill="white"/>
<path d="M1.64516 35.4118C1.64516 35.8666 1.27688 36.2353 0.822581 36.2353C0.368282 36.2353 0 35.8666 0 35.4118C0 34.9569 0.368282 34.5882 0.822581 34.5882C1.27688 34.5882 1.64516 34.9569 1.64516 35.4118Z" fill="white"/>
<path d="M6.58065 35.4118C6.58065 35.8666 6.21236 36.2353 5.75806 36.2353C5.30377 36.2353 4.93548 35.8666 4.93548 35.4118C4.93548 34.9569 5.30377 34.5882 5.75806 34.5882C6.21236 34.5882 6.58065 34.9569 6.58065 35.4118Z" fill="white"/>
<path d="M11.5161 35.4118C11.5161 35.8666 11.1478 36.2353 10.6935 36.2353C10.2393 36.2353 9.87097 35.8666 9.87097 35.4118C9.87097 34.9569 10.2393 34.5882 10.6935 34.5882C11.1478 34.5882 11.5161 34.9569 11.5161 35.4118Z" fill="white"/>
<path d="M16.4516 35.4118C16.4516 35.8666 16.0833 36.2353 15.629 36.2353C15.1747 36.2353 14.8065 35.8666 14.8065 35.4118C14.8065 34.9569 15.1747 34.5882 15.629 34.5882C16.0833 34.5882 16.4516 34.9569 16.4516 35.4118Z" fill="white"/>
<path d="M21.3871 35.4118C21.3871 35.8666 21.0188 36.2353 20.5645 36.2353C20.1102 36.2353 19.7419 35.8666 19.7419 35.4118C19.7419 34.9569 20.1102 34.5882 20.5645 34.5882C21.0188 34.5882 21.3871 34.9569 21.3871 35.4118Z" fill="white"/>
<path d="M26.3226 35.4118C26.3226 35.8666 25.9543 36.2353 25.5 36.2353C25.0457 36.2353 24.6774 35.8666 24.6774 35.4118C24.6774 34.9569 25.0457 34.5882 25.5 34.5882C25.9543 34.5882 26.3226 34.9569 26.3226 35.4118Z" fill="white"/>
<path d="M31.2581 35.4118C31.2581 35.8666 30.8898 36.2353 30.4355 36.2353C29.9812 36.2353 29.6129 35.8666 29.6129 35.4118C29.6129 34.9569 29.9812 34.5882 30.4355 34.5882C30.8898 34.5882 31.2581 34.9569 31.2581 35.4118Z" fill="white"/>
<path d="M36.1935 35.4118C36.1935 35.8666 35.8253 36.2353 35.371 36.2353C34.9167 36.2353 34.5484 35.8666 34.5484 35.4118C34.5484 34.9569 34.9167 34.5882 35.371 34.5882C35.8253 34.5882 36.1935 34.9569 36.1935 35.4118Z" fill="white"/>
<path d="M41.129 35.4118C41.129 35.8666 40.7608 36.2353 40.3065 36.2353C39.8522 36.2353 39.4839 35.8666 39.4839 35.4118C39.4839 34.9569 39.8522 34.5882 40.3065 34.5882C40.7608 34.5882 41.129 34.9569 41.129 35.4118Z" fill="white"/>
<path d="M46.0645 35.4118C46.0645 35.8666 45.6962 36.2353 45.2419 36.2353C44.7876 36.2353 44.4194 35.8666 44.4194 35.4118C44.4194 34.9569 44.7876 34.5882 45.2419 34.5882C45.6962 34.5882 46.0645 34.9569 46.0645 35.4118Z" fill="white"/>
<path d="M51 35.4118C51 35.8666 50.6317 36.2353 50.1774 36.2353C49.7231 36.2353 49.3548 35.8666 49.3548 35.4118C49.3548 34.9569 49.7231 34.5882 50.1774 34.5882C50.6317 34.5882 51 34.9569 51 35.4118Z" fill="white"/>
<path d="M1.64516 40.3529C1.64516 40.8078 1.27688 41.1765 0.822581 41.1765C0.368282 41.1765 0 40.8078 0 40.3529C0 39.8981 0.368282 39.5294 0.822581 39.5294C1.27688 39.5294 1.64516 39.8981 1.64516 40.3529Z" fill="white"/>
<path d="M6.58065 40.3529C6.58065 40.8078 6.21236 41.1765 5.75806 41.1765C5.30377 41.1765 4.93548 40.8078 4.93548 40.3529C4.93548 39.8981 5.30377 39.5294 5.75806 39.5294C6.21236 39.5294 6.58065 39.8981 6.58065 40.3529Z" fill="white"/>
<path d="M11.5161 40.3529C11.5161 40.8078 11.1478 41.1765 10.6935 41.1765C10.2393 41.1765 9.87097 40.8078 9.87097 40.3529C9.87097 39.8981 10.2393 39.5294 10.6935 39.5294C11.1478 39.5294 11.5161 39.8981 11.5161 40.3529Z" fill="white"/>
<path d="M16.4516 40.3529C16.4516 40.8078 16.0833 41.1765 15.629 41.1765C15.1747 41.1765 14.8065 40.8078 14.8065 40.3529C14.8065 39.8981 15.1747 39.5294 15.629 39.5294C16.0833 39.5294 16.4516 39.8981 16.4516 40.3529Z" fill="white"/>
<path d="M21.3871 40.3529C21.3871 40.8078 21.0188 41.1765 20.5645 41.1765C20.1102 41.1765 19.7419 40.8078 19.7419 40.3529C19.7419 39.8981 20.1102 39.5294 20.5645 39.5294C21.0188 39.5294 21.3871 39.8981 21.3871 40.3529Z" fill="white"/>
<path d="M26.3226 40.3529C26.3226 40.8078 25.9543 41.1765 25.5 41.1765C25.0457 41.1765 24.6774 40.8078 24.6774 40.3529C24.6774 39.8981 25.0457 39.5294 25.5 39.5294C25.9543 39.5294 26.3226 39.8981 26.3226 40.3529Z" fill="white"/>
<path d="M31.2581 40.3529C31.2581 40.8078 30.8898 41.1765 30.4355 41.1765C29.9812 41.1765 29.6129 40.8078 29.6129 40.3529C29.6129 39.8981 29.9812 39.5294 30.4355 39.5294C30.8898 39.5294 31.2581 39.8981 31.2581 40.3529Z" fill="white"/>
<path d="M36.1935 40.3529C36.1935 40.8078 35.8253 41.1765 35.371 41.1765C34.9167 41.1765 34.5484 40.8078 34.5484 40.3529C34.5484 39.8981 34.9167 39.5294 35.371 39.5294C35.8253 39.5294 36.1935 39.8981 36.1935 40.3529Z" fill="white"/>
<path d="M41.129 40.3529C41.129 40.8078 40.7608 41.1765 40.3065 41.1765C39.8522 41.1765 39.4839 40.8078 39.4839 40.3529C39.4839 39.8981 39.8522 39.5294 40.3065 39.5294C40.7608 39.5294 41.129 39.8981 41.129 40.3529Z" fill="white"/>
<path d="M46.0645 40.3529C46.0645 40.8078 45.6962 41.1765 45.2419 41.1765C44.7876 41.1765 44.4194 40.8078 44.4194 40.3529C44.4194 39.8981 44.7876 39.5294 45.2419 39.5294C45.6962 39.5294 46.0645 39.8981 46.0645 40.3529Z" fill="white"/>
<path d="M51 40.3529C51 40.8078 50.6317 41.1765 50.1774 41.1765C49.7231 41.1765 49.3548 40.8078 49.3548 40.3529C49.3548 39.8981 49.7231 39.5294 50.1774 39.5294C50.6317 39.5294 51 39.8981 51 40.3529Z" fill="white"/>
<path d="M1.64516 45.2941C1.64516 45.7489 1.27688 46.1176 0.822581 46.1176C0.368282 46.1176 0 45.7489 0 45.2941C0 44.8393 0.368282 44.4706 0.822581 44.4706C1.27688 44.4706 1.64516 44.8393 1.64516 45.2941Z" fill="white"/>
<path d="M6.58065 45.2941C6.58065 45.7489 6.21236 46.1176 5.75806 46.1176C5.30377 46.1176 4.93548 45.7489 4.93548 45.2941C4.93548 44.8393 5.30377 44.4706 5.75806 44.4706C6.21236 44.4706 6.58065 44.8393 6.58065 45.2941Z" fill="white"/>
<path d="M11.5161 45.2941C11.5161 45.7489 11.1478 46.1176 10.6935 46.1176C10.2393 46.1176 9.87097 45.7489 9.87097 45.2941C9.87097 44.8393 10.2393 44.4706 10.6935 44.4706C11.1478 44.4706 11.5161 44.8393 11.5161 45.2941Z" fill="white"/>
<path d="M16.4516 45.2941C16.4516 45.7489 16.0833 46.1176 15.629 46.1176C15.1747 46.1176 14.8065 45.7489 14.8065 45.2941C14.8065 44.8393 15.1747 44.4706 15.629 44.4706C16.0833 44.4706 16.4516 44.8393 16.4516 45.2941Z" fill="white"/>
<path d="M21.3871 45.2941C21.3871 45.7489 21.0188 46.1176 20.5645 46.1176C20.1102 46.1176 19.7419 45.7489 19.7419 45.2941C19.7419 44.8393 20.1102 44.4706 20.5645 44.4706C21.0188 44.4706 21.3871 44.8393 21.3871 45.2941Z" fill="white"/>
<path d="M26.3226 45.2941C26.3226 45.7489 25.9543 46.1176 25.5 46.1176C25.0457 46.1176 24.6774 45.7489 24.6774 45.2941C24.6774 44.8393 25.0457 44.4706 25.5 44.4706C25.9543 44.4706 26.3226 44.8393 26.3226 45.2941Z" fill="white"/>
<path d="M31.2581 45.2941C31.2581 45.7489 30.8898 46.1176 30.4355 46.1176C29.9812 46.1176 29.6129 45.7489 29.6129 45.2941C29.6129 44.8393 29.9812 44.4706 30.4355 44.4706C30.8898 44.4706 31.2581 44.8393 31.2581 45.2941Z" fill="white"/>
<path d="M36.1935 45.2941C36.1935 45.7489 35.8253 46.1176 35.371 46.1176C34.9167 46.1176 34.5484 45.7489 34.5484 45.2941C34.5484 44.8393 34.9167 44.4706 35.371 44.4706C35.8253 44.4706 36.1935 44.8393 36.1935 45.2941Z" fill="white"/>
<path d="M41.129 45.2941C41.129 45.7489 40.7608 46.1176 40.3065 46.1176C39.8522 46.1176 39.4839 45.7489 39.4839 45.2941C39.4839 44.8393 39.8522 44.4706 40.3065 44.4706C40.7608 44.4706 41.129 44.8393 41.129 45.2941Z" fill="white"/>
<path d="M46.0645 45.2941C46.0645 45.7489 45.6962 46.1176 45.2419 46.1176C44.7876 46.1176 44.4194 45.7489 44.4194 45.2941C44.4194 44.8393 44.7876 44.4706 45.2419 44.4706C45.6962 44.4706 46.0645 44.8393 46.0645 45.2941Z" fill="white"/>
<path d="M51 45.2941C51 45.7489 50.6317 46.1176 50.1774 46.1176C49.7231 46.1176 49.3548 45.7489 49.3548 45.2941C49.3548 44.8393 49.7231 44.4706 50.1774 44.4706C50.6317 44.4706 51 44.8393 51 45.2941Z" fill="white"/>
<path d="M1.64516 50.2353C1.64516 50.6901 1.27688 51.0588 0.822581 51.0588C0.368282 51.0588 0 50.6901 0 50.2353C0 49.7805 0.368282 49.4118 0.822581 49.4118C1.27688 49.4118 1.64516 49.7805 1.64516 50.2353Z" fill="white"/>
<path d="M6.58065 50.2353C6.58065 50.6901 6.21236 51.0588 5.75806 51.0588C5.30377 51.0588 4.93548 50.6901 4.93548 50.2353C4.93548 49.7805 5.30377 49.4118 5.75806 49.4118C6.21236 49.4118 6.58065 49.7805 6.58065 50.2353Z" fill="white"/>
<path d="M11.5161 50.2353C11.5161 50.6901 11.1478 51.0588 10.6935 51.0588C10.2393 51.0588 9.87097 50.6901 9.87097 50.2353C9.87097 49.7805 10.2393 49.4118 10.6935 49.4118C11.1478 49.4118 11.5161 49.7805 11.5161 50.2353Z" fill="white"/>
<path d="M16.4516 50.2353C16.4516 50.6901 16.0833 51.0588 15.629 51.0588C15.1747 51.0588 14.8065 50.6901 14.8065 50.2353C14.8065 49.7805 15.1747 49.4118 15.629 49.4118C16.0833 49.4118 16.4516 49.7805 16.4516 50.2353Z" fill="white"/>
<path d="M21.3871 50.2353C21.3871 50.6901 21.0188 51.0588 20.5645 51.0588C20.1102 51.0588 19.7419 50.6901 19.7419 50.2353C19.7419 49.7805 20.1102 49.4118 20.5645 49.4118C21.0188 49.4118 21.3871 49.7805 21.3871 50.2353Z" fill="white"/>
<path d="M26.3226 50.2353C26.3226 50.6901 25.9543 51.0588 25.5 51.0588C25.0457 51.0588 24.6774 50.6901 24.6774 50.2353C24.6774 49.7805 25.0457 49.4118 25.5 49.4118C25.9543 49.4118 26.3226 49.7805 26.3226 50.2353Z" fill="white"/>
<path d="M31.2581 50.2353C31.2581 50.6901 30.8898 51.0588 30.4355 51.0588C29.9812 51.0588 29.6129 50.6901 29.6129 50.2353C29.6129 49.7805 29.9812 49.4118 30.4355 49.4118C30.8898 49.4118 31.2581 49.7805 31.2581 50.2353Z" fill="white"/>
<path d="M36.1935 50.2353C36.1935 50.6901 35.8253 51.0588 35.371 51.0588C34.9167 51.0588 34.5484 50.6901 34.5484 50.2353C34.5484 49.7805 34.9167 49.4118 35.371 49.4118C35.8253 49.4118 36.1935 49.7805 36.1935 50.2353Z" fill="white"/>
<path d="M41.129 50.2353C41.129 50.6901 40.7608 51.0588 40.3065 51.0588C39.8522 51.0588 39.4839 50.6901 39.4839 50.2353C39.4839 49.7805 39.8522 49.4118 40.3065 49.4118C40.7608 49.4118 41.129 49.7805 41.129 50.2353Z" fill="white"/>
<path d="M46.0645 50.2353C46.0645 50.6901 45.6962 51.0588 45.2419 51.0588C44.7876 51.0588 44.4194 50.6901 44.4194 50.2353C44.4194 49.7805 44.7876 49.4118 45.2419 49.4118C45.6962 49.4118 46.0645 49.7805 46.0645 50.2353Z" fill="white"/>
<path d="M51 50.2353C51 50.6901 50.6317 51.0588 50.1774 51.0588C49.7231 51.0588 49.3548 50.6901 49.3548 50.2353C49.3548 49.7805 49.7231 49.4118 50.1774 49.4118C50.6317 49.4118 51 49.7805 51 50.2353Z" fill="white"/>
<path d="M1.64516 55.1765C1.64516 55.6313 1.27688 56 0.822581 56C0.368282 56 0 55.6313 0 55.1765C0 54.7216 0.368282 54.3529 0.822581 54.3529C1.27688 54.3529 1.64516 54.7216 1.64516 55.1765Z" fill="white"/>
<path d="M6.58065 55.1765C6.58065 55.6313 6.21236 56 5.75806 56C5.30377 56 4.93548 55.6313 4.93548 55.1765C4.93548 54.7216 5.30377 54.3529 5.75806 54.3529C6.21236 54.3529 6.58065 54.7216 6.58065 55.1765Z" fill="white"/>
<path d="M11.5161 55.1765C11.5161 55.6313 11.1478 56 10.6935 56C10.2393 56 9.87097 55.6313 9.87097 55.1765C9.87097 54.7216 10.2393 54.3529 10.6935 54.3529C11.1478 54.3529 11.5161 54.7216 11.5161 55.1765Z" fill="white"/>
<path d="M16.4516 55.1765C16.4516 55.6313 16.0833 56 15.629 56C15.1747 56 14.8065 55.6313 14.8065 55.1765C14.8065 54.7216 15.1747 54.3529 15.629 54.3529C16.0833 54.3529 16.4516 54.7216 16.4516 55.1765Z" fill="white"/>
<path d="M21.3871 55.1765C21.3871 55.6313 21.0188 56 20.5645 56C20.1102 56 19.7419 55.6313 19.7419 55.1765C19.7419 54.7216 20.1102 54.3529 20.5645 54.3529C21.0188 54.3529 21.3871 54.7216 21.3871 55.1765Z" fill="white"/>
<path d="M26.3226 55.1765C26.3226 55.6313 25.9543 56 25.5 56C25.0457 56 24.6774 55.6313 24.6774 55.1765C24.6774 54.7216 25.0457 54.3529 25.5 54.3529C25.9543 54.3529 26.3226 54.7216 26.3226 55.1765Z" fill="white"/>
<path d="M31.2581 55.1765C31.2581 55.6313 30.8898 56 30.4355 56C29.9812 56 29.6129 55.6313 29.6129 55.1765C29.6129 54.7216 29.9812 54.3529 30.4355 54.3529C30.8898 54.3529 31.2581 54.7216 31.2581 55.1765Z" fill="white"/>
<path d="M36.1935 55.1765C36.1935 55.6313 35.8253 56 35.371 56C34.9167 56 34.5484 55.6313 34.5484 55.1765C34.5484 54.7216 34.9167 54.3529 35.371 54.3529C35.8253 54.3529 36.1935 54.7216 36.1935 55.1765Z" fill="white"/>
<path d="M41.129 55.1765C41.129 55.6313 40.7608 56 40.3065 56C39.8522 56 39.4839 55.6313 39.4839 55.1765C39.4839 54.7216 39.8522 54.3529 40.3065 54.3529C40.7608 54.3529 41.129 54.7216 41.129 55.1765Z" fill="white"/>
<path d="M46.0645 55.1765C46.0645 55.6313 45.6962 56 45.2419 56C44.7876 56 44.4194 55.6313 44.4194 55.1765C44.4194 54.7216 44.7876 54.3529 45.2419 54.3529C45.6962 54.3529 46.0645 54.7216 46.0645 55.1765Z" fill="white"/>
<path d="M51 55.1765C51 55.6313 50.6317 56 50.1774 56C49.7231 56 49.3548 55.6313 49.3548 55.1765C49.3548 54.7216 49.7231 54.3529 50.1774 54.3529C50.6317 54.3529 51 54.7216 51 55.1765Z" fill="white"/>
</g>
</svg>
