<svg width="88" height="97" viewBox="0 0 88 97" fill="none" xmlns="http://www.w3.org/2000/svg">
<g opacity="0.3">
<path d="M2.83871 1.42647C2.83871 2.21429 2.20324 2.85294 1.41935 2.85294C0.635467 2.85294 0 2.21429 0 1.42647C0 0.638653 0.635467 0 1.41935 0C2.20324 0 2.83871 0.638653 2.83871 1.42647Z" fill="white"/>
<path d="M11.3548 1.42647C11.3548 2.21429 10.7194 2.85294 9.93548 2.85294C9.1516 2.85294 8.51613 2.21429 8.51613 1.42647C8.51613 0.638653 9.1516 0 9.93548 0C10.7194 0 11.3548 0.638653 11.3548 1.42647Z" fill="white"/>
<path d="M19.871 1.42647C19.871 2.21429 19.2355 2.85294 18.4516 2.85294C17.6677 2.85294 17.0323 2.21429 17.0323 1.42647C17.0323 0.638653 17.6677 0 18.4516 0C19.2355 0 19.871 0.638653 19.871 1.42647Z" fill="white"/>
<path d="M28.3871 1.42647C28.3871 2.21429 27.7516 2.85294 26.9677 2.85294C26.1839 2.85294 25.5484 2.21429 25.5484 1.42647C25.5484 0.638653 26.1839 0 26.9677 0C27.7516 0 28.3871 0.638653 28.3871 1.42647Z" fill="white"/>
<path d="M36.9032 1.42647C36.9032 2.21429 36.2678 2.85294 35.4839 2.85294C34.7 2.85294 34.0645 2.21429 34.0645 1.42647C34.0645 0.638653 34.7 0 35.4839 0C36.2678 0 36.9032 0.638653 36.9032 1.42647Z" fill="white"/>
<path d="M45.4194 1.42647C45.4194 2.21429 44.7839 2.85294 44 2.85294C43.2161 2.85294 42.5806 2.21429 42.5806 1.42647C42.5806 0.638653 43.2161 0 44 0C44.7839 0 45.4194 0.638653 45.4194 1.42647Z" fill="white"/>
<path d="M53.9355 1.42647C53.9355 2.21429 53.3 2.85294 52.5161 2.85294C51.7322 2.85294 51.0968 2.21429 51.0968 1.42647C51.0968 0.638653 51.7322 0 52.5161 0C53.3 0 53.9355 0.638653 53.9355 1.42647Z" fill="white"/>
<path d="M62.4516 1.42647C62.4516 2.21429 61.8161 2.85294 61.0323 2.85294C60.2484 2.85294 59.6129 2.21429 59.6129 1.42647C59.6129 0.638653 60.2484 0 61.0323 0C61.8161 0 62.4516 0.638653 62.4516 1.42647Z" fill="white"/>
<path d="M70.9677 1.42647C70.9677 2.21429 70.3323 2.85294 69.5484 2.85294C68.7645 2.85294 68.129 2.21429 68.129 1.42647C68.129 0.638653 68.7645 0 69.5484 0C70.3323 0 70.9677 0.638653 70.9677 1.42647Z" fill="white"/>
<path d="M79.4839 1.42647C79.4839 2.21429 78.8484 2.85294 78.0645 2.85294C77.2806 2.85294 76.6452 2.21429 76.6452 1.42647C76.6452 0.638653 77.2806 0 78.0645 0C78.8484 0 79.4839 0.638653 79.4839 1.42647Z" fill="white"/>
<path d="M88 1.42647C88 2.21429 87.3645 2.85294 86.5806 2.85294C85.7968 2.85294 85.1613 2.21429 85.1613 1.42647C85.1613 0.638653 85.7968 0 86.5806 0C87.3645 0 88 0.638653 88 1.42647Z" fill="white"/>
<path d="M2.83871 9.98529C2.83871 10.7731 2.20324 11.4118 1.41935 11.4118C0.635467 11.4118 0 10.7731 0 9.98529C0 9.19748 0.635467 8.55882 1.41935 8.55882C2.20324 8.55882 2.83871 9.19748 2.83871 9.98529Z" fill="white"/>
<path d="M11.3548 9.98529C11.3548 10.7731 10.7194 11.4118 9.93548 11.4118C9.1516 11.4118 8.51613 10.7731 8.51613 9.98529C8.51613 9.19748 9.1516 8.55882 9.93548 8.55882C10.7194 8.55882 11.3548 9.19748 11.3548 9.98529Z" fill="white"/>
<path d="M19.871 9.98529C19.871 10.7731 19.2355 11.4118 18.4516 11.4118C17.6677 11.4118 17.0323 10.7731 17.0323 9.98529C17.0323 9.19748 17.6677 8.55882 18.4516 8.55882C19.2355 8.55882 19.871 9.19748 19.871 9.98529Z" fill="white"/>
<path d="M28.3871 9.98529C28.3871 10.7731 27.7516 11.4118 26.9677 11.4118C26.1839 11.4118 25.5484 10.7731 25.5484 9.98529C25.5484 9.19748 26.1839 8.55882 26.9677 8.55882C27.7516 8.55882 28.3871 9.19748 28.3871 9.98529Z" fill="white"/>
<path d="M36.9032 9.98529C36.9032 10.7731 36.2678 11.4118 35.4839 11.4118C34.7 11.4118 34.0645 10.7731 34.0645 9.98529C34.0645 9.19748 34.7 8.55882 35.4839 8.55882C36.2678 8.55882 36.9032 9.19748 36.9032 9.98529Z" fill="white"/>
<path d="M45.4194 9.98529C45.4194 10.7731 44.7839 11.4118 44 11.4118C43.2161 11.4118 42.5806 10.7731 42.5806 9.98529C42.5806 9.19748 43.2161 8.55882 44 8.55882C44.7839 8.55882 45.4194 9.19748 45.4194 9.98529Z" fill="white"/>
<path d="M53.9355 9.98529C53.9355 10.7731 53.3 11.4118 52.5161 11.4118C51.7322 11.4118 51.0968 10.7731 51.0968 9.98529C51.0968 9.19748 51.7322 8.55882 52.5161 8.55882C53.3 8.55882 53.9355 9.19748 53.9355 9.98529Z" fill="white"/>
<path d="M62.4516 9.98529C62.4516 10.7731 61.8161 11.4118 61.0323 11.4118C60.2484 11.4118 59.6129 10.7731 59.6129 9.98529C59.6129 9.19748 60.2484 8.55882 61.0323 8.55882C61.8161 8.55882 62.4516 9.19748 62.4516 9.98529Z" fill="white"/>
<path d="M70.9677 9.98529C70.9677 10.7731 70.3323 11.4118 69.5484 11.4118C68.7645 11.4118 68.129 10.7731 68.129 9.98529C68.129 9.19748 68.7645 8.55882 69.5484 8.55882C70.3323 8.55882 70.9677 9.19748 70.9677 9.98529Z" fill="white"/>
<path d="M79.4839 9.98529C79.4839 10.7731 78.8484 11.4118 78.0645 11.4118C77.2806 11.4118 76.6452 10.7731 76.6452 9.98529C76.6452 9.19748 77.2806 8.55882 78.0645 8.55882C78.8484 8.55882 79.4839 9.19748 79.4839 9.98529Z" fill="white"/>
<path d="M88 9.98529C88 10.7731 87.3645 11.4118 86.5806 11.4118C85.7968 11.4118 85.1613 10.7731 85.1613 9.98529C85.1613 9.19748 85.7968 8.55882 86.5806 8.55882C87.3645 8.55882 88 9.19748 88 9.98529Z" fill="white"/>
<path d="M2.83871 18.5441C2.83871 19.3319 2.20324 19.9706 1.41935 19.9706C0.635467 19.9706 0 19.3319 0 18.5441C0 17.7563 0.635467 17.1176 1.41935 17.1176C2.20324 17.1176 2.83871 17.7563 2.83871 18.5441Z" fill="white"/>
<path d="M11.3548 18.5441C11.3548 19.3319 10.7194 19.9706 9.93548 19.9706C9.1516 19.9706 8.51613 19.3319 8.51613 18.5441C8.51613 17.7563 9.1516 17.1176 9.93548 17.1176C10.7194 17.1176 11.3548 17.7563 11.3548 18.5441Z" fill="white"/>
<path d="M19.871 18.5441C19.871 19.3319 19.2355 19.9706 18.4516 19.9706C17.6677 19.9706 17.0323 19.3319 17.0323 18.5441C17.0323 17.7563 17.6677 17.1176 18.4516 17.1176C19.2355 17.1176 19.871 17.7563 19.871 18.5441Z" fill="white"/>
<path d="M28.3871 18.5441C28.3871 19.3319 27.7516 19.9706 26.9677 19.9706C26.1839 19.9706 25.5484 19.3319 25.5484 18.5441C25.5484 17.7563 26.1839 17.1176 26.9677 17.1176C27.7516 17.1176 28.3871 17.7563 28.3871 18.5441Z" fill="white"/>
<path d="M36.9032 18.5441C36.9032 19.3319 36.2678 19.9706 35.4839 19.9706C34.7 19.9706 34.0645 19.3319 34.0645 18.5441C34.0645 17.7563 34.7 17.1176 35.4839 17.1176C36.2678 17.1176 36.9032 17.7563 36.9032 18.5441Z" fill="white"/>
<path d="M45.4194 18.5441C45.4194 19.3319 44.7839 19.9706 44 19.9706C43.2161 19.9706 42.5806 19.3319 42.5806 18.5441C42.5806 17.7563 43.2161 17.1176 44 17.1176C44.7839 17.1176 45.4194 17.7563 45.4194 18.5441Z" fill="white"/>
<path d="M53.9355 18.5441C53.9355 19.3319 53.3 19.9706 52.5161 19.9706C51.7322 19.9706 51.0968 19.3319 51.0968 18.5441C51.0968 17.7563 51.7322 17.1176 52.5161 17.1176C53.3 17.1176 53.9355 17.7563 53.9355 18.5441Z" fill="white"/>
<path d="M62.4516 18.5441C62.4516 19.3319 61.8161 19.9706 61.0323 19.9706C60.2484 19.9706 59.6129 19.3319 59.6129 18.5441C59.6129 17.7563 60.2484 17.1176 61.0323 17.1176C61.8161 17.1176 62.4516 17.7563 62.4516 18.5441Z" fill="white"/>
<path d="M70.9677 18.5441C70.9677 19.3319 70.3323 19.9706 69.5484 19.9706C68.7645 19.9706 68.129 19.3319 68.129 18.5441C68.129 17.7563 68.7645 17.1176 69.5484 17.1176C70.3323 17.1176 70.9677 17.7563 70.9677 18.5441Z" fill="white"/>
<path d="M79.4839 18.5441C79.4839 19.3319 78.8484 19.9706 78.0645 19.9706C77.2806 19.9706 76.6452 19.3319 76.6452 18.5441C76.6452 17.7563 77.2806 17.1176 78.0645 17.1176C78.8484 17.1176 79.4839 17.7563 79.4839 18.5441Z" fill="white"/>
<path d="M88 18.5441C88 19.3319 87.3645 19.9706 86.5806 19.9706C85.7968 19.9706 85.1613 19.3319 85.1613 18.5441C85.1613 17.7563 85.7968 17.1176 86.5806 17.1176C87.3645 17.1176 88 17.7563 88 18.5441Z" fill="white"/>
<path d="M2.83871 27.1029C2.83871 27.8908 2.20324 28.5294 1.41935 28.5294C0.635467 28.5294 0 27.8908 0 27.1029C0 26.3151 0.635467 25.6765 1.41935 25.6765C2.20324 25.6765 2.83871 26.3151 2.83871 27.1029Z" fill="white"/>
<path d="M11.3548 27.1029C11.3548 27.8908 10.7194 28.5294 9.93548 28.5294C9.1516 28.5294 8.51613 27.8908 8.51613 27.1029C8.51613 26.3151 9.1516 25.6765 9.93548 25.6765C10.7194 25.6765 11.3548 26.3151 11.3548 27.1029Z" fill="white"/>
<path d="M19.871 27.1029C19.871 27.8908 19.2355 28.5294 18.4516 28.5294C17.6677 28.5294 17.0323 27.8908 17.0323 27.1029C17.0323 26.3151 17.6677 25.6765 18.4516 25.6765C19.2355 25.6765 19.871 26.3151 19.871 27.1029Z" fill="white"/>
<path d="M28.3871 27.1029C28.3871 27.8908 27.7516 28.5294 26.9677 28.5294C26.1839 28.5294 25.5484 27.8908 25.5484 27.1029C25.5484 26.3151 26.1839 25.6765 26.9677 25.6765C27.7516 25.6765 28.3871 26.3151 28.3871 27.1029Z" fill="white"/>
<path d="M36.9032 27.1029C36.9032 27.8908 36.2678 28.5294 35.4839 28.5294C34.7 28.5294 34.0645 27.8908 34.0645 27.1029C34.0645 26.3151 34.7 25.6765 35.4839 25.6765C36.2678 25.6765 36.9032 26.3151 36.9032 27.1029Z" fill="white"/>
<path d="M45.4194 27.1029C45.4194 27.8908 44.7839 28.5294 44 28.5294C43.2161 28.5294 42.5806 27.8908 42.5806 27.1029C42.5806 26.3151 43.2161 25.6765 44 25.6765C44.7839 25.6765 45.4194 26.3151 45.4194 27.1029Z" fill="white"/>
<path d="M53.9355 27.1029C53.9355 27.8908 53.3 28.5294 52.5161 28.5294C51.7322 28.5294 51.0968 27.8908 51.0968 27.1029C51.0968 26.3151 51.7322 25.6765 52.5161 25.6765C53.3 25.6765 53.9355 26.3151 53.9355 27.1029Z" fill="white"/>
<path d="M62.4516 27.1029C62.4516 27.8908 61.8161 28.5294 61.0323 28.5294C60.2484 28.5294 59.6129 27.8908 59.6129 27.1029C59.6129 26.3151 60.2484 25.6765 61.0323 25.6765C61.8161 25.6765 62.4516 26.3151 62.4516 27.1029Z" fill="white"/>
<path d="M70.9677 27.1029C70.9677 27.8908 70.3323 28.5294 69.5484 28.5294C68.7645 28.5294 68.129 27.8908 68.129 27.1029C68.129 26.3151 68.7645 25.6765 69.5484 25.6765C70.3323 25.6765 70.9677 26.3151 70.9677 27.1029Z" fill="white"/>
<path d="M79.4839 27.1029C79.4839 27.8908 78.8484 28.5294 78.0645 28.5294C77.2806 28.5294 76.6452 27.8908 76.6452 27.1029C76.6452 26.3151 77.2806 25.6765 78.0645 25.6765C78.8484 25.6765 79.4839 26.3151 79.4839 27.1029Z" fill="white"/>
<path d="M88 27.1029C88 27.8908 87.3645 28.5294 86.5806 28.5294C85.7968 28.5294 85.1613 27.8908 85.1613 27.1029C85.1613 26.3151 85.7968 25.6765 86.5806 25.6765C87.3645 25.6765 88 26.3151 88 27.1029Z" fill="white"/>
<path d="M2.83871 35.6618C2.83871 36.4496 2.20324 37.0882 1.41935 37.0882C0.635467 37.0882 0 36.4496 0 35.6618C0 34.8739 0.635467 34.2353 1.41935 34.2353C2.20324 34.2353 2.83871 34.8739 2.83871 35.6618Z" fill="white"/>
<path d="M11.3548 35.6618C11.3548 36.4496 10.7194 37.0882 9.93548 37.0882C9.1516 37.0882 8.51613 36.4496 8.51613 35.6618C8.51613 34.8739 9.1516 34.2353 9.93548 34.2353C10.7194 34.2353 11.3548 34.8739 11.3548 35.6618Z" fill="white"/>
<path d="M19.871 35.6618C19.871 36.4496 19.2355 37.0882 18.4516 37.0882C17.6677 37.0882 17.0323 36.4496 17.0323 35.6618C17.0323 34.8739 17.6677 34.2353 18.4516 34.2353C19.2355 34.2353 19.871 34.8739 19.871 35.6618Z" fill="white"/>
<path d="M28.3871 35.6618C28.3871 36.4496 27.7516 37.0882 26.9677 37.0882C26.1839 37.0882 25.5484 36.4496 25.5484 35.6618C25.5484 34.8739 26.1839 34.2353 26.9677 34.2353C27.7516 34.2353 28.3871 34.8739 28.3871 35.6618Z" fill="white"/>
<path d="M36.9032 35.6618C36.9032 36.4496 36.2678 37.0882 35.4839 37.0882C34.7 37.0882 34.0645 36.4496 34.0645 35.6618C34.0645 34.8739 34.7 34.2353 35.4839 34.2353C36.2678 34.2353 36.9032 34.8739 36.9032 35.6618Z" fill="white"/>
<path d="M45.4194 35.6618C45.4194 36.4496 44.7839 37.0882 44 37.0882C43.2161 37.0882 42.5806 36.4496 42.5806 35.6618C42.5806 34.8739 43.2161 34.2353 44 34.2353C44.7839 34.2353 45.4194 34.8739 45.4194 35.6618Z" fill="white"/>
<path d="M53.9355 35.6618C53.9355 36.4496 53.3 37.0882 52.5161 37.0882C51.7322 37.0882 51.0968 36.4496 51.0968 35.6618C51.0968 34.8739 51.7322 34.2353 52.5161 34.2353C53.3 34.2353 53.9355 34.8739 53.9355 35.6618Z" fill="white"/>
<path d="M62.4516 35.6618C62.4516 36.4496 61.8161 37.0882 61.0323 37.0882C60.2484 37.0882 59.6129 36.4496 59.6129 35.6618C59.6129 34.8739 60.2484 34.2353 61.0323 34.2353C61.8161 34.2353 62.4516 34.8739 62.4516 35.6618Z" fill="white"/>
<path d="M70.9677 35.6618C70.9677 36.4496 70.3323 37.0882 69.5484 37.0882C68.7645 37.0882 68.129 36.4496 68.129 35.6618C68.129 34.8739 68.7645 34.2353 69.5484 34.2353C70.3323 34.2353 70.9677 34.8739 70.9677 35.6618Z" fill="white"/>
<path d="M79.4839 35.6618C79.4839 36.4496 78.8484 37.0882 78.0645 37.0882C77.2806 37.0882 76.6452 36.4496 76.6452 35.6618C76.6452 34.8739 77.2806 34.2353 78.0645 34.2353C78.8484 34.2353 79.4839 34.8739 79.4839 35.6618Z" fill="white"/>
<path d="M88 35.6618C88 36.4496 87.3645 37.0882 86.5806 37.0882C85.7968 37.0882 85.1613 36.4496 85.1613 35.6618C85.1613 34.8739 85.7968 34.2353 86.5806 34.2353C87.3645 34.2353 88 34.8739 88 35.6618Z" fill="white"/>
<path d="M2.83871 44.2206C2.83871 45.0084 2.20324 45.6471 1.41935 45.6471C0.635467 45.6471 0 45.0084 0 44.2206C0 43.4328 0.635467 42.7941 1.41935 42.7941C2.20324 42.7941 2.83871 43.4328 2.83871 44.2206Z" fill="white"/>
<path d="M11.3548 44.2206C11.3548 45.0084 10.7194 45.6471 9.93548 45.6471C9.1516 45.6471 8.51613 45.0084 8.51613 44.2206C8.51613 43.4328 9.1516 42.7941 9.93548 42.7941C10.7194 42.7941 11.3548 43.4328 11.3548 44.2206Z" fill="white"/>
<path d="M19.871 44.2206C19.871 45.0084 19.2355 45.6471 18.4516 45.6471C17.6677 45.6471 17.0323 45.0084 17.0323 44.2206C17.0323 43.4328 17.6677 42.7941 18.4516 42.7941C19.2355 42.7941 19.871 43.4328 19.871 44.2206Z" fill="white"/>
<path d="M28.3871 44.2206C28.3871 45.0084 27.7516 45.6471 26.9677 45.6471C26.1839 45.6471 25.5484 45.0084 25.5484 44.2206C25.5484 43.4328 26.1839 42.7941 26.9677 42.7941C27.7516 42.7941 28.3871 43.4328 28.3871 44.2206Z" fill="white"/>
<path d="M36.9032 44.2206C36.9032 45.0084 36.2678 45.6471 35.4839 45.6471C34.7 45.6471 34.0645 45.0084 34.0645 44.2206C34.0645 43.4328 34.7 42.7941 35.4839 42.7941C36.2678 42.7941 36.9032 43.4328 36.9032 44.2206Z" fill="white"/>
<path d="M45.4194 44.2206C45.4194 45.0084 44.7839 45.6471 44 45.6471C43.2161 45.6471 42.5806 45.0084 42.5806 44.2206C42.5806 43.4328 43.2161 42.7941 44 42.7941C44.7839 42.7941 45.4194 43.4328 45.4194 44.2206Z" fill="white"/>
<path d="M53.9355 44.2206C53.9355 45.0084 53.3 45.6471 52.5161 45.6471C51.7322 45.6471 51.0968 45.0084 51.0968 44.2206C51.0968 43.4328 51.7322 42.7941 52.5161 42.7941C53.3 42.7941 53.9355 43.4328 53.9355 44.2206Z" fill="white"/>
<path d="M62.4516 44.2206C62.4516 45.0084 61.8161 45.6471 61.0323 45.6471C60.2484 45.6471 59.6129 45.0084 59.6129 44.2206C59.6129 43.4328 60.2484 42.7941 61.0323 42.7941C61.8161 42.7941 62.4516 43.4328 62.4516 44.2206Z" fill="white"/>
<path d="M70.9677 44.2206C70.9677 45.0084 70.3323 45.6471 69.5484 45.6471C68.7645 45.6471 68.129 45.0084 68.129 44.2206C68.129 43.4328 68.7645 42.7941 69.5484 42.7941C70.3323 42.7941 70.9677 43.4328 70.9677 44.2206Z" fill="white"/>
<path d="M79.4839 44.2206C79.4839 45.0084 78.8484 45.6471 78.0645 45.6471C77.2806 45.6471 76.6452 45.0084 76.6452 44.2206C76.6452 43.4328 77.2806 42.7941 78.0645 42.7941C78.8484 42.7941 79.4839 43.4328 79.4839 44.2206Z" fill="white"/>
<path d="M88 44.2206C88 45.0084 87.3645 45.6471 86.5806 45.6471C85.7968 45.6471 85.1613 45.0084 85.1613 44.2206C85.1613 43.4328 85.7968 42.7941 86.5806 42.7941C87.3645 42.7941 88 43.4328 88 44.2206Z" fill="white"/>
<path d="M2.83871 52.7794C2.83871 53.5672 2.20324 54.2059 1.41935 54.2059C0.635467 54.2059 0 53.5672 0 52.7794C0 51.9916 0.635467 51.3529 1.41935 51.3529C2.20324 51.3529 2.83871 51.9916 2.83871 52.7794Z" fill="white"/>
<path d="M11.3548 52.7794C11.3548 53.5672 10.7194 54.2059 9.93548 54.2059C9.1516 54.2059 8.51613 53.5672 8.51613 52.7794C8.51613 51.9916 9.1516 51.3529 9.93548 51.3529C10.7194 51.3529 11.3548 51.9916 11.3548 52.7794Z" fill="white"/>
<path d="M19.871 52.7794C19.871 53.5672 19.2355 54.2059 18.4516 54.2059C17.6677 54.2059 17.0323 53.5672 17.0323 52.7794C17.0323 51.9916 17.6677 51.3529 18.4516 51.3529C19.2355 51.3529 19.871 51.9916 19.871 52.7794Z" fill="white"/>
<path d="M28.3871 52.7794C28.3871 53.5672 27.7516 54.2059 26.9677 54.2059C26.1839 54.2059 25.5484 53.5672 25.5484 52.7794C25.5484 51.9916 26.1839 51.3529 26.9677 51.3529C27.7516 51.3529 28.3871 51.9916 28.3871 52.7794Z" fill="white"/>
<path d="M36.9032 52.7794C36.9032 53.5672 36.2678 54.2059 35.4839 54.2059C34.7 54.2059 34.0645 53.5672 34.0645 52.7794C34.0645 51.9916 34.7 51.3529 35.4839 51.3529C36.2678 51.3529 36.9032 51.9916 36.9032 52.7794Z" fill="white"/>
<path d="M45.4194 52.7794C45.4194 53.5672 44.7839 54.2059 44 54.2059C43.2161 54.2059 42.5806 53.5672 42.5806 52.7794C42.5806 51.9916 43.2161 51.3529 44 51.3529C44.7839 51.3529 45.4194 51.9916 45.4194 52.7794Z" fill="white"/>
<path d="M53.9355 52.7794C53.9355 53.5672 53.3 54.2059 52.5161 54.2059C51.7322 54.2059 51.0968 53.5672 51.0968 52.7794C51.0968 51.9916 51.7322 51.3529 52.5161 51.3529C53.3 51.3529 53.9355 51.9916 53.9355 52.7794Z" fill="white"/>
<path d="M62.4516 52.7794C62.4516 53.5672 61.8161 54.2059 61.0323 54.2059C60.2484 54.2059 59.6129 53.5672 59.6129 52.7794C59.6129 51.9916 60.2484 51.3529 61.0323 51.3529C61.8161 51.3529 62.4516 51.9916 62.4516 52.7794Z" fill="white"/>
<path d="M70.9677 52.7794C70.9677 53.5672 70.3323 54.2059 69.5484 54.2059C68.7645 54.2059 68.129 53.5672 68.129 52.7794C68.129 51.9916 68.7645 51.3529 69.5484 51.3529C70.3323 51.3529 70.9677 51.9916 70.9677 52.7794Z" fill="white"/>
<path d="M79.4839 52.7794C79.4839 53.5672 78.8484 54.2059 78.0645 54.2059C77.2806 54.2059 76.6452 53.5672 76.6452 52.7794C76.6452 51.9916 77.2806 51.3529 78.0645 51.3529C78.8484 51.3529 79.4839 51.9916 79.4839 52.7794Z" fill="white"/>
<path d="M88 52.7794C88 53.5672 87.3645 54.2059 86.5806 54.2059C85.7968 54.2059 85.1613 53.5672 85.1613 52.7794C85.1613 51.9916 85.7968 51.3529 86.5806 51.3529C87.3645 51.3529 88 51.9916 88 52.7794Z" fill="white"/>
<path d="M2.83871 61.3382C2.83871 62.1261 2.20324 62.7647 1.41935 62.7647C0.635467 62.7647 0 62.1261 0 61.3382C0 60.5504 0.635467 59.9118 1.41935 59.9118C2.20324 59.9118 2.83871 60.5504 2.83871 61.3382Z" fill="white"/>
<path d="M11.3548 61.3382C11.3548 62.1261 10.7194 62.7647 9.93548 62.7647C9.1516 62.7647 8.51613 62.1261 8.51613 61.3382C8.51613 60.5504 9.1516 59.9118 9.93548 59.9118C10.7194 59.9118 11.3548 60.5504 11.3548 61.3382Z" fill="white"/>
<path d="M19.871 61.3382C19.871 62.1261 19.2355 62.7647 18.4516 62.7647C17.6677 62.7647 17.0323 62.1261 17.0323 61.3382C17.0323 60.5504 17.6677 59.9118 18.4516 59.9118C19.2355 59.9118 19.871 60.5504 19.871 61.3382Z" fill="white"/>
<path d="M28.3871 61.3382C28.3871 62.1261 27.7516 62.7647 26.9677 62.7647C26.1839 62.7647 25.5484 62.1261 25.5484 61.3382C25.5484 60.5504 26.1839 59.9118 26.9677 59.9118C27.7516 59.9118 28.3871 60.5504 28.3871 61.3382Z" fill="white"/>
<path d="M36.9032 61.3382C36.9032 62.1261 36.2678 62.7647 35.4839 62.7647C34.7 62.7647 34.0645 62.1261 34.0645 61.3382C34.0645 60.5504 34.7 59.9118 35.4839 59.9118C36.2678 59.9118 36.9032 60.5504 36.9032 61.3382Z" fill="white"/>
<path d="M45.4194 61.3382C45.4194 62.1261 44.7839 62.7647 44 62.7647C43.2161 62.7647 42.5806 62.1261 42.5806 61.3382C42.5806 60.5504 43.2161 59.9118 44 59.9118C44.7839 59.9118 45.4194 60.5504 45.4194 61.3382Z" fill="white"/>
<path d="M53.9355 61.3382C53.9355 62.1261 53.3 62.7647 52.5161 62.7647C51.7322 62.7647 51.0968 62.1261 51.0968 61.3382C51.0968 60.5504 51.7322 59.9118 52.5161 59.9118C53.3 59.9118 53.9355 60.5504 53.9355 61.3382Z" fill="white"/>
<path d="M62.4516 61.3382C62.4516 62.1261 61.8161 62.7647 61.0323 62.7647C60.2484 62.7647 59.6129 62.1261 59.6129 61.3382C59.6129 60.5504 60.2484 59.9118 61.0323 59.9118C61.8161 59.9118 62.4516 60.5504 62.4516 61.3382Z" fill="white"/>
<path d="M70.9677 61.3382C70.9677 62.1261 70.3323 62.7647 69.5484 62.7647C68.7645 62.7647 68.129 62.1261 68.129 61.3382C68.129 60.5504 68.7645 59.9118 69.5484 59.9118C70.3323 59.9118 70.9677 60.5504 70.9677 61.3382Z" fill="white"/>
<path d="M79.4839 61.3382C79.4839 62.1261 78.8484 62.7647 78.0645 62.7647C77.2806 62.7647 76.6452 62.1261 76.6452 61.3382C76.6452 60.5504 77.2806 59.9118 78.0645 59.9118C78.8484 59.9118 79.4839 60.5504 79.4839 61.3382Z" fill="white"/>
<path d="M88 61.3382C88 62.1261 87.3645 62.7647 86.5806 62.7647C85.7968 62.7647 85.1613 62.1261 85.1613 61.3382C85.1613 60.5504 85.7968 59.9118 86.5806 59.9118C87.3645 59.9118 88 60.5504 88 61.3382Z" fill="white"/>
<path d="M2.83871 69.8971C2.83871 70.6849 2.20324 71.3235 1.41935 71.3235C0.635467 71.3235 0 70.6849 0 69.8971C0 69.1092 0.635467 68.4706 1.41935 68.4706C2.20324 68.4706 2.83871 69.1092 2.83871 69.8971Z" fill="white"/>
<path d="M11.3548 69.8971C11.3548 70.6849 10.7194 71.3235 9.93548 71.3235C9.1516 71.3235 8.51613 70.6849 8.51613 69.8971C8.51613 69.1092 9.1516 68.4706 9.93548 68.4706C10.7194 68.4706 11.3548 69.1092 11.3548 69.8971Z" fill="white"/>
<path d="M19.871 69.8971C19.871 70.6849 19.2355 71.3235 18.4516 71.3235C17.6677 71.3235 17.0323 70.6849 17.0323 69.8971C17.0323 69.1092 17.6677 68.4706 18.4516 68.4706C19.2355 68.4706 19.871 69.1092 19.871 69.8971Z" fill="white"/>
<path d="M28.3871 69.8971C28.3871 70.6849 27.7516 71.3235 26.9677 71.3235C26.1839 71.3235 25.5484 70.6849 25.5484 69.8971C25.5484 69.1092 26.1839 68.4706 26.9677 68.4706C27.7516 68.4706 28.3871 69.1092 28.3871 69.8971Z" fill="white"/>
<path d="M36.9032 69.8971C36.9032 70.6849 36.2678 71.3235 35.4839 71.3235C34.7 71.3235 34.0645 70.6849 34.0645 69.8971C34.0645 69.1092 34.7 68.4706 35.4839 68.4706C36.2678 68.4706 36.9032 69.1092 36.9032 69.8971Z" fill="white"/>
<path d="M45.4194 69.8971C45.4194 70.6849 44.7839 71.3235 44 71.3235C43.2161 71.3235 42.5806 70.6849 42.5806 69.8971C42.5806 69.1092 43.2161 68.4706 44 68.4706C44.7839 68.4706 45.4194 69.1092 45.4194 69.8971Z" fill="white"/>
<path d="M53.9355 69.8971C53.9355 70.6849 53.3 71.3235 52.5161 71.3235C51.7322 71.3235 51.0968 70.6849 51.0968 69.8971C51.0968 69.1092 51.7322 68.4706 52.5161 68.4706C53.3 68.4706 53.9355 69.1092 53.9355 69.8971Z" fill="white"/>
<path d="M62.4516 69.8971C62.4516 70.6849 61.8161 71.3235 61.0323 71.3235C60.2484 71.3235 59.6129 70.6849 59.6129 69.8971C59.6129 69.1092 60.2484 68.4706 61.0323 68.4706C61.8161 68.4706 62.4516 69.1092 62.4516 69.8971Z" fill="white"/>
<path d="M70.9677 69.8971C70.9677 70.6849 70.3323 71.3235 69.5484 71.3235C68.7645 71.3235 68.129 70.6849 68.129 69.8971C68.129 69.1092 68.7645 68.4706 69.5484 68.4706C70.3323 68.4706 70.9677 69.1092 70.9677 69.8971Z" fill="white"/>
<path d="M79.4839 69.8971C79.4839 70.6849 78.8484 71.3235 78.0645 71.3235C77.2806 71.3235 76.6452 70.6849 76.6452 69.8971C76.6452 69.1092 77.2806 68.4706 78.0645 68.4706C78.8484 68.4706 79.4839 69.1092 79.4839 69.8971Z" fill="white"/>
<path d="M88 69.8971C88 70.6849 87.3645 71.3235 86.5806 71.3235C85.7968 71.3235 85.1613 70.6849 85.1613 69.8971C85.1613 69.1092 85.7968 68.4706 86.5806 68.4706C87.3645 68.4706 88 69.1092 88 69.8971Z" fill="white"/>
<path d="M2.83871 78.4559C2.83871 79.2437 2.20324 79.8824 1.41935 79.8824C0.635467 79.8824 0 79.2437 0 78.4559C0 77.6681 0.635467 77.0294 1.41935 77.0294C2.20324 77.0294 2.83871 77.6681 2.83871 78.4559Z" fill="white"/>
<path d="M11.3548 78.4559C11.3548 79.2437 10.7194 79.8824 9.93548 79.8824C9.1516 79.8824 8.51613 79.2437 8.51613 78.4559C8.51613 77.6681 9.1516 77.0294 9.93548 77.0294C10.7194 77.0294 11.3548 77.6681 11.3548 78.4559Z" fill="white"/>
<path d="M19.871 78.4559C19.871 79.2437 19.2355 79.8824 18.4516 79.8824C17.6677 79.8824 17.0323 79.2437 17.0323 78.4559C17.0323 77.6681 17.6677 77.0294 18.4516 77.0294C19.2355 77.0294 19.871 77.6681 19.871 78.4559Z" fill="white"/>
<path d="M28.3871 78.4559C28.3871 79.2437 27.7516 79.8824 26.9677 79.8824C26.1839 79.8824 25.5484 79.2437 25.5484 78.4559C25.5484 77.6681 26.1839 77.0294 26.9677 77.0294C27.7516 77.0294 28.3871 77.6681 28.3871 78.4559Z" fill="white"/>
<path d="M36.9032 78.4559C36.9032 79.2437 36.2678 79.8824 35.4839 79.8824C34.7 79.8824 34.0645 79.2437 34.0645 78.4559C34.0645 77.6681 34.7 77.0294 35.4839 77.0294C36.2678 77.0294 36.9032 77.6681 36.9032 78.4559Z" fill="white"/>
<path d="M45.4194 78.4559C45.4194 79.2437 44.7839 79.8824 44 79.8824C43.2161 79.8824 42.5806 79.2437 42.5806 78.4559C42.5806 77.6681 43.2161 77.0294 44 77.0294C44.7839 77.0294 45.4194 77.6681 45.4194 78.4559Z" fill="white"/>
<path d="M53.9355 78.4559C53.9355 79.2437 53.3 79.8824 52.5161 79.8824C51.7322 79.8824 51.0968 79.2437 51.0968 78.4559C51.0968 77.6681 51.7322 77.0294 52.5161 77.0294C53.3 77.0294 53.9355 77.6681 53.9355 78.4559Z" fill="white"/>
<path d="M62.4516 78.4559C62.4516 79.2437 61.8161 79.8824 61.0323 79.8824C60.2484 79.8824 59.6129 79.2437 59.6129 78.4559C59.6129 77.6681 60.2484 77.0294 61.0323 77.0294C61.8161 77.0294 62.4516 77.6681 62.4516 78.4559Z" fill="white"/>
<path d="M70.9677 78.4559C70.9677 79.2437 70.3323 79.8824 69.5484 79.8824C68.7645 79.8824 68.129 79.2437 68.129 78.4559C68.129 77.6681 68.7645 77.0294 69.5484 77.0294C70.3323 77.0294 70.9677 77.6681 70.9677 78.4559Z" fill="white"/>
<path d="M79.4839 78.4559C79.4839 79.2437 78.8484 79.8824 78.0645 79.8824C77.2806 79.8824 76.6452 79.2437 76.6452 78.4559C76.6452 77.6681 77.2806 77.0294 78.0645 77.0294C78.8484 77.0294 79.4839 77.6681 79.4839 78.4559Z" fill="white"/>
<path d="M88 78.4559C88 79.2437 87.3645 79.8824 86.5806 79.8824C85.7968 79.8824 85.1613 79.2437 85.1613 78.4559C85.1613 77.6681 85.7968 77.0294 86.5806 77.0294C87.3645 77.0294 88 77.6681 88 78.4559Z" fill="white"/>
<path d="M2.83871 87.0147C2.83871 87.8025 2.20324 88.4412 1.41935 88.4412C0.635467 88.4412 0 87.8025 0 87.0147C0 86.2269 0.635467 85.5882 1.41935 85.5882C2.20324 85.5882 2.83871 86.2269 2.83871 87.0147Z" fill="white"/>
<path d="M11.3548 87.0147C11.3548 87.8025 10.7194 88.4412 9.93548 88.4412C9.1516 88.4412 8.51613 87.8025 8.51613 87.0147C8.51613 86.2269 9.1516 85.5882 9.93548 85.5882C10.7194 85.5882 11.3548 86.2269 11.3548 87.0147Z" fill="white"/>
<path d="M19.871 87.0147C19.871 87.8025 19.2355 88.4412 18.4516 88.4412C17.6677 88.4412 17.0323 87.8025 17.0323 87.0147C17.0323 86.2269 17.6677 85.5882 18.4516 85.5882C19.2355 85.5882 19.871 86.2269 19.871 87.0147Z" fill="white"/>
<path d="M28.3871 87.0147C28.3871 87.8025 27.7516 88.4412 26.9677 88.4412C26.1839 88.4412 25.5484 87.8025 25.5484 87.0147C25.5484 86.2269 26.1839 85.5882 26.9677 85.5882C27.7516 85.5882 28.3871 86.2269 28.3871 87.0147Z" fill="white"/>
<path d="M36.9032 87.0147C36.9032 87.8025 36.2678 88.4412 35.4839 88.4412C34.7 88.4412 34.0645 87.8025 34.0645 87.0147C34.0645 86.2269 34.7 85.5882 35.4839 85.5882C36.2678 85.5882 36.9032 86.2269 36.9032 87.0147Z" fill="white"/>
<path d="M45.4194 87.0147C45.4194 87.8025 44.7839 88.4412 44 88.4412C43.2161 88.4412 42.5806 87.8025 42.5806 87.0147C42.5806 86.2269 43.2161 85.5882 44 85.5882C44.7839 85.5882 45.4194 86.2269 45.4194 87.0147Z" fill="white"/>
<path d="M53.9355 87.0147C53.9355 87.8025 53.3 88.4412 52.5161 88.4412C51.7322 88.4412 51.0968 87.8025 51.0968 87.0147C51.0968 86.2269 51.7322 85.5882 52.5161 85.5882C53.3 85.5882 53.9355 86.2269 53.9355 87.0147Z" fill="white"/>
<path d="M62.4516 87.0147C62.4516 87.8025 61.8161 88.4412 61.0323 88.4412C60.2484 88.4412 59.6129 87.8025 59.6129 87.0147C59.6129 86.2269 60.2484 85.5882 61.0323 85.5882C61.8161 85.5882 62.4516 86.2269 62.4516 87.0147Z" fill="white"/>
<path d="M70.9677 87.0147C70.9677 87.8025 70.3323 88.4412 69.5484 88.4412C68.7645 88.4412 68.129 87.8025 68.129 87.0147C68.129 86.2269 68.7645 85.5882 69.5484 85.5882C70.3323 85.5882 70.9677 86.2269 70.9677 87.0147Z" fill="white"/>
<path d="M79.4839 87.0147C79.4839 87.8025 78.8484 88.4412 78.0645 88.4412C77.2806 88.4412 76.6452 87.8025 76.6452 87.0147C76.6452 86.2269 77.2806 85.5882 78.0645 85.5882C78.8484 85.5882 79.4839 86.2269 79.4839 87.0147Z" fill="white"/>
<path d="M88 87.0147C88 87.8025 87.3645 88.4412 86.5806 88.4412C85.7968 88.4412 85.1613 87.8025 85.1613 87.0147C85.1613 86.2269 85.7968 85.5882 86.5806 85.5882C87.3645 85.5882 88 86.2269 88 87.0147Z" fill="white"/>
<path d="M2.83871 95.5735C2.83871 96.3613 2.20324 97 1.41935 97C0.635467 97 0 96.3613 0 95.5735C0 94.7857 0.635467 94.1471 1.41935 94.1471C2.20324 94.1471 2.83871 94.7857 2.83871 95.5735Z" fill="white"/>
<path d="M11.3548 95.5735C11.3548 96.3613 10.7194 97 9.93548 97C9.1516 97 8.51613 96.3613 8.51613 95.5735C8.51613 94.7857 9.1516 94.1471 9.93548 94.1471C10.7194 94.1471 11.3548 94.7857 11.3548 95.5735Z" fill="white"/>
<path d="M19.871 95.5735C19.871 96.3613 19.2355 97 18.4516 97C17.6677 97 17.0323 96.3613 17.0323 95.5735C17.0323 94.7857 17.6677 94.1471 18.4516 94.1471C19.2355 94.1471 19.871 94.7857 19.871 95.5735Z" fill="white"/>
<path d="M28.3871 95.5735C28.3871 96.3613 27.7516 97 26.9677 97C26.1839 97 25.5484 96.3613 25.5484 95.5735C25.5484 94.7857 26.1839 94.1471 26.9677 94.1471C27.7516 94.1471 28.3871 94.7857 28.3871 95.5735Z" fill="white"/>
<path d="M36.9032 95.5735C36.9032 96.3613 36.2678 97 35.4839 97C34.7 97 34.0645 96.3613 34.0645 95.5735C34.0645 94.7857 34.7 94.1471 35.4839 94.1471C36.2678 94.1471 36.9032 94.7857 36.9032 95.5735Z" fill="white"/>
<path d="M45.4194 95.5735C45.4194 96.3613 44.7839 97 44 97C43.2161 97 42.5806 96.3613 42.5806 95.5735C42.5806 94.7857 43.2161 94.1471 44 94.1471C44.7839 94.1471 45.4194 94.7857 45.4194 95.5735Z" fill="white"/>
<path d="M53.9355 95.5735C53.9355 96.3613 53.3 97 52.5161 97C51.7322 97 51.0968 96.3613 51.0968 95.5735C51.0968 94.7857 51.7322 94.1471 52.5161 94.1471C53.3 94.1471 53.9355 94.7857 53.9355 95.5735Z" fill="white"/>
<path d="M62.4516 95.5735C62.4516 96.3613 61.8161 97 61.0323 97C60.2484 97 59.6129 96.3613 59.6129 95.5735C59.6129 94.7857 60.2484 94.1471 61.0323 94.1471C61.8161 94.1471 62.4516 94.7857 62.4516 95.5735Z" fill="white"/>
<path d="M70.9677 95.5735C70.9677 96.3613 70.3323 97 69.5484 97C68.7645 97 68.129 96.3613 68.129 95.5735C68.129 94.7857 68.7645 94.1471 69.5484 94.1471C70.3323 94.1471 70.9677 94.7857 70.9677 95.5735Z" fill="white"/>
<path d="M79.4839 95.5735C79.4839 96.3613 78.8484 97 78.0645 97C77.2806 97 76.6452 96.3613 76.6452 95.5735C76.6452 94.7857 77.2806 94.1471 78.0645 94.1471C78.8484 94.1471 79.4839 94.7857 79.4839 95.5735Z" fill="white"/>
<path d="M88 95.5735C88 96.3613 87.3645 97 86.5806 97C85.7968 97 85.1613 96.3613 85.1613 95.5735C85.1613 94.7857 85.7968 94.1471 86.5806 94.1471C87.3645 94.1471 88 94.7857 88 95.5735Z" fill="white"/>
</g>
</svg>
