<svg width="28" height="23" viewBox="0 0 28 23" fill="none" xmlns="http://www.w3.org/2000/svg">
<path fill-rule="evenodd" clip-rule="evenodd" d="M27.9722 2.33606C28.033 1.9815 27.9937 1.61777 27.8586 1.28274C27.7235 0.947723 27.4974 0.653676 27.2039 0.431241C26.9104 0.208807 26.5603 0.0661234 26.1899 0.0180577C25.8196 -0.030008 25.4427 0.0183024 25.0984 0.157956L1.27744 9.80269C-0.38306 10.4751 -0.468036 12.7845 1.27744 13.4811C3.00604 14.1737 4.75957 14.8072 6.53476 15.3806C8.16182 15.8976 9.93655 16.3758 11.3588 16.5111C11.7475 16.9585 12.2365 17.3899 12.7352 17.7837C13.4972 18.3865 14.4138 19.0067 15.361 19.6015C17.2583 20.7937 19.3632 21.9336 20.7813 22.6757C22.4767 23.5598 24.5063 22.5418 24.81 20.7642L27.9722 2.33606ZM3.94789 11.6285L25.0162 3.09826L22.0657 20.298C20.6741 19.5707 18.6695 18.4816 16.8836 17.3591C16.0606 16.8509 15.2659 16.3013 14.5029 15.7128C14.299 15.5526 14.1011 15.3855 13.9095 15.2118L19.4273 9.90717C19.6887 9.65599 19.8356 9.31526 19.8357 8.95991C19.8359 8.60457 19.6892 8.26374 19.428 8.01238C19.1668 7.76103 18.8125 7.61975 18.4429 7.61962C18.0734 7.6195 17.7189 7.76054 17.4576 8.01171L11.416 13.8213C10.3935 13.6954 8.96978 13.331 7.4068 12.8354C6.24321 12.4626 5.09029 12.0597 3.94928 11.6271L3.94789 11.6285Z" fill="white"/>
</svg>
