<svg width="144" height="144" viewBox="0 0 144 144" fill="none" xmlns="http://www.w3.org/2000/svg">
<circle cx="72" cy="72" r="72" fill="#C0FF0D"/>
<mask id="mask0_331_607" style="mask-type:alpha" maskUnits="userSpaceOnUse" x="0" y="0" width="144" height="144">
<circle cx="72" cy="72" r="72" fill="#C0FF0D"/>
</mask>
<g mask="url(#mask0_331_607)">
<path d="M71.8572 30.8572C55.1215 30.8572 41.4286 44.7414 41.4286 61.8488C41.4286 78.9562 55.1215 92.8404 71.8572 92.8404C88.5929 92.8404 102.286 78.9562 102.286 61.8488C102.286 44.7414 88.5929 30.8572 71.8572 30.8572ZM40.0593 92.8404C23.9321 93.4602 11 104.245 11 117.634V130.03L71.8572 154.286L132.714 130.03V117.634C132.714 104.245 119.934 93.4602 103.655 92.8404C95.4393 100.402 84.1808 105.237 71.8572 105.237C59.5336 105.237 48.275 100.402 40.0593 92.8404Z" fill="#A2DB00"/>
</g>
</svg>
