<svg width="23" height="18" viewBox="0 0 23 18" fill="none" xmlns="http://www.w3.org/2000/svg">
<path d="M11.1944 0.666748C4.16666 0.666748 0 9.00007 0 9.00007C0 9.00007 4.16666 17.3334 11.1944 17.3334C18.0555 17.3334 22.2222 9.00007 22.2222 9.00007C22.2222 9.00007 18.0555 0.666748 11.1944 0.666748ZM11.1111 3.44452C14.1944 3.44452 16.6666 5.94452 16.6666 9.00007C16.6666 12.0834 14.1944 14.5556 11.1111 14.5556C8.05554 14.5556 5.55555 12.0834 5.55555 9.00007C5.55555 5.94452 8.05554 3.44452 11.1111 3.44452ZM11.1111 6.22229C9.58332 6.22229 8.33332 7.47229 8.33332 9.00007C8.33332 10.5278 9.58332 11.7778 11.1111 11.7778C12.6389 11.7778 13.8889 10.5278 13.8889 9.00007C13.8889 8.72229 13.7778 8.47229 13.7222 8.22229C13.5 8.66673 13.0555 9.00007 12.5 9.00007C11.7222 9.00007 11.1111 8.38896 11.1111 7.61118C11.1111 7.05563 11.4444 6.61118 11.8889 6.38896C11.6389 6.30563 11.3889 6.22229 11.1111 6.22229Z" fill="#BAB2DC"/>
</svg>
