<svg width="56" height="44" viewBox="0 0 56 44" fill="none" xmlns="http://www.w3.org/2000/svg">
<g id="Mastercard-logo 1">
<path id="XMLID_1775_" d="M13.6815 38.9272V36.7207C13.6815 35.8766 13.1622 35.3239 12.2708 35.3239C11.8251 35.3239 11.3405 35.4696 11.0073 35.9494C10.7477 35.5467 10.3756 35.3239 9.81738 35.3239C9.44525 35.3239 9.07312 35.4353 8.77888 35.838V35.3967H8V38.9272H8.77888V36.9777C8.77888 36.3522 9.11206 36.0566 9.63131 36.0566C10.1506 36.0566 10.4102 36.3865 10.4102 36.9777V38.9272H11.1891V36.9777C11.1891 36.3522 11.5612 36.0566 12.0415 36.0566C12.5607 36.0566 12.8204 36.3865 12.8204 36.9777V38.9272H13.6815ZM25.2348 35.3967H23.9713V34.3299H23.1924V35.3967H22.4871V36.0951H23.1924V37.7147C23.1924 38.5244 23.5256 39 24.417 39C24.7501 39 25.1223 38.8886 25.3819 38.7429L25.1569 38.0788C24.9319 38.2245 24.6723 38.2631 24.4862 38.2631C24.1141 38.2631 23.9669 38.0403 23.9669 37.6761V36.0951H25.2304V35.3967H25.2348ZM31.8466 35.3196C31.4009 35.3196 31.1023 35.5424 30.9162 35.8338V35.3925H30.1374V38.9229H30.9162V36.9349C30.9162 36.3479 31.1759 36.0137 31.6605 36.0137C31.8076 36.0137 31.9937 36.0523 32.1451 36.0865L32.3701 35.3496C32.2144 35.3196 31.9937 35.3196 31.8466 35.3196ZM21.8553 35.6881C21.4832 35.431 20.9639 35.3196 20.4057 35.3196C19.5144 35.3196 18.9216 35.7609 18.9216 36.4593C18.9216 37.0463 19.3672 37.3805 20.1461 37.4876L20.5183 37.5261C20.925 37.599 21.15 37.7104 21.15 37.8946C21.15 38.1517 20.8514 38.3359 20.3322 38.3359C19.8129 38.3359 19.4019 38.1517 19.1422 37.9674L18.7701 38.5544C19.1769 38.85 19.735 38.9957 20.2932 38.9957C21.3317 38.9957 21.9289 38.5159 21.9289 37.856C21.9289 37.2305 21.4442 36.9006 20.7043 36.7892L20.3322 36.7506C19.999 36.7121 19.7394 36.6392 19.7394 36.4207C19.7394 36.1637 19.999 36.018 20.4101 36.018C20.8558 36.018 21.3015 36.2022 21.5265 36.3136L21.8553 35.6881ZM42.5777 35.3196C42.132 35.3196 41.8335 35.5424 41.6474 35.8338V35.3925H40.8685V38.9229H41.6474V36.9349C41.6474 36.3479 41.907 36.0137 42.3917 36.0137C42.5388 36.0137 42.7248 36.0523 42.8763 36.0865L43.1013 35.3582C42.9498 35.3196 42.7292 35.3196 42.5777 35.3196ZM32.6254 37.162C32.6254 38.2288 33.3697 39 34.5207 39C35.0399 39 35.4121 38.8886 35.7842 38.5973L35.4121 37.9717C35.1135 38.1945 34.8193 38.3016 34.4817 38.3016C33.85 38.3016 33.4043 37.8603 33.4043 37.162C33.4043 36.4979 33.85 36.0566 34.4817 36.0223C34.8149 36.0223 35.1135 36.1337 35.4121 36.3522L35.7842 35.7266C35.4121 35.431 35.0399 35.3239 34.5207 35.3239C33.3697 35.3196 32.6254 36.0951 32.6254 37.162ZM39.83 37.162V35.3967H39.0511V35.838C38.7915 35.5081 38.4194 35.3239 37.9348 35.3239C36.9309 35.3239 36.152 36.0951 36.152 37.162C36.152 38.2288 36.9309 39 37.9348 39C38.454 39 38.8261 38.8158 39.0511 38.4859V38.9272H39.83V37.162ZM36.9698 37.162C36.9698 36.5364 37.3766 36.0223 38.0473 36.0223C38.679 36.0223 39.1247 36.5021 39.1247 37.162C39.1247 37.7875 38.679 38.3016 38.0473 38.3016C37.3809 38.2631 36.9698 37.7832 36.9698 37.162ZM27.6493 35.3196C26.6108 35.3196 25.8665 36.0566 25.8665 37.1577C25.8665 38.2631 26.6108 38.9957 27.6882 38.9957C28.2075 38.9957 28.7267 38.85 29.1378 38.5159L28.7657 37.9632C28.4671 38.1859 28.095 38.3316 27.7272 38.3316C27.2425 38.3316 26.7622 38.1088 26.6497 37.4876H29.2849C29.2849 37.3762 29.2849 37.3033 29.2849 37.1919C29.3195 36.0566 28.6488 35.3196 27.6493 35.3196ZM27.6493 35.9837C28.1339 35.9837 28.4671 36.2793 28.5407 36.8278H26.6843C26.7579 36.3522 27.0911 35.9837 27.6493 35.9837ZM47 37.162V34H46.2211V35.838C45.9615 35.5081 45.5894 35.3239 45.1047 35.3239C44.1009 35.3239 43.322 36.0951 43.322 37.162C43.322 38.2288 44.1009 39 45.1047 39C45.624 39 45.9961 38.8158 46.2211 38.4859V38.9272H47V37.162ZM44.1398 37.162C44.1398 36.5364 44.5465 36.0223 45.2172 36.0223C45.849 36.0223 46.2947 36.5021 46.2947 37.162C46.2947 37.7875 45.849 38.3016 45.2172 38.3016C44.5465 38.2631 44.1398 37.7832 44.1398 37.162ZM18.0648 37.162V35.3967H17.2859V35.838C17.0263 35.5081 16.6542 35.3239 16.1695 35.3239C15.1656 35.3239 14.3868 36.0951 14.3868 37.162C14.3868 38.2288 15.1656 39 16.1695 39C16.6888 39 17.0609 38.8158 17.2859 38.4859V38.9272H18.0648V37.162ZM15.17 37.162C15.17 36.5364 15.5767 36.0223 16.2474 36.0223C16.8792 36.0223 17.3249 36.5021 17.3249 37.162C17.3249 37.7875 16.8792 38.3016 16.2474 38.3016C15.5767 38.2631 15.17 37.7832 15.17 37.162Z" fill="#AB9DEF"/>
<g id="Group">
<path id="rect19" d="M33 8H22V29H33V8Z" fill="#8274C6"/>
<path id="XMLID_330_" d="M22.8215 18.5C22.8215 14.1879 24.8647 10.3607 28 7.88786C25.6926 6.08786 22.7818 5 19.6069 5C12.0857 5 6 11.0379 6 18.5C6 25.9621 12.0857 32 19.6069 32C22.7818 32 25.6926 30.9121 28 29.1121C24.8603 26.6743 22.8215 22.8121 22.8215 18.5Z" fill="#4A3C8E"/>
<path id="path22" d="M49 18.5C49 25.9621 43.191 32 36.0116 32C32.981 32 30.2026 30.9121 28 29.1121C31.0306 26.635 32.9432 22.8121 32.9432 18.5C32.9432 14.1879 30.9928 10.3607 28 7.88786C30.1984 6.08786 32.9768 5 36.0074 5C43.191 5 49 11.0772 49 18.5Z" fill="#AB9DEF"/>
</g>
</g>
</svg>
