<svg width="60" height="44" viewBox="0 0 60 44" fill="none" xmlns="http://www.w3.org/2000/svg">
<g id="&#208;&#161;&#208;&#145;&#208;&#159;_&#208;&#187;&#208;&#190;&#208;&#179;&#208;&#190;&#209;&#130;&#208;&#184;&#208;&#191; 1">
<path id="path60" d="M53.2482 15.5V22.9068H50.5923V17.7111H48.035V22.9068H45.3792V15.4995H53.2482V15.5Z" fill="#BAACFE"/>
<path id="path62" fill-rule="evenodd" clip-rule="evenodd" d="M39.9246 23.1714C42.3021 23.1714 44.0676 21.7197 44.0676 19.519C44.0676 17.3889 42.7651 16.0059 40.5881 16.0059C39.5834 16.0059 38.7544 16.3581 38.1299 16.9658C38.279 15.7098 39.3456 14.7929 40.5199 14.7929C40.7909 14.7929 42.8312 14.7886 42.8312 14.7886L43.985 12.5898C43.985 12.5898 41.4234 12.6479 40.2326 12.6479C37.5118 12.6951 35.6741 15.1579 35.6741 18.1491C35.6741 21.6339 37.4665 23.1714 39.9246 23.1714ZM39.9391 17.9535C40.8218 17.9535 41.4338 18.5311 41.4338 19.5187C41.4338 20.4077 40.89 21.1401 39.9391 21.1421C39.0294 21.1421 38.4174 20.4635 38.4174 19.5339C38.4174 18.546 39.0294 17.9535 39.9391 17.9535Z" fill="#BAACFE"/>
<path id="path64" d="M33.5129 20.4269C33.5129 20.4269 32.8857 20.7869 31.9489 20.8551C30.8719 20.8869 29.9124 20.2095 29.9124 19.006C29.9124 17.8321 30.7591 17.1593 31.9218 17.1593C32.6347 17.1593 33.5778 17.6513 33.5778 17.6513C33.5778 17.6513 34.2679 16.3903 34.6253 15.7596C33.9707 15.2655 33.0989 14.9946 32.0848 14.9946C29.5255 14.9946 27.5432 16.6564 27.5432 18.9911C27.5432 21.3557 29.4063 22.9788 32.0848 22.9298C32.8334 22.9021 33.8663 22.6403 34.4958 22.2376L33.5129 20.4269Z" fill="#BAACFE"/>
<path id="path66" d="M0.854492 13.4463L4.53866 20.0041V24.0041L0.858802 30.549L0.854492 13.4463Z" fill="#6153A5"/>
<path id="path68" d="M15.0002 17.6175L18.4524 15.5105L25.5176 15.5039L15.0002 21.92V17.6175Z" fill="#4F4193"/>
<path id="path70" d="M14.9806 13.4078L15.0002 22.0901L11.3074 19.8305V6.85205L14.9806 13.4078Z" fill="#BAACFE"/>
<path id="path72" d="M25.5175 15.5043L18.4521 15.5108L14.9806 13.4078L11.3074 6.85205L25.5175 15.5043Z" fill="#8E7FD1"/>
<path id="path74" d="M15.0002 30.5858V26.3734L11.3074 24.1567L11.3094 37.1481L15.0002 30.5858Z" fill="#8D7FD1"/>
<path id="path76" d="M18.4438 28.4975L4.5384 20.0041L0.854492 13.4463L25.5026 28.4889L18.4438 28.4975Z" fill="#6D5FB0"/>
<path id="path78" d="M11.3096 37.1475L14.9998 30.5852L18.4434 28.4974L25.5022 28.4888L11.3096 37.1475Z" fill="#524496"/>
<path id="path80" d="M0.858887 30.5493L11.3377 24.1569L7.81474 22.0044L4.53874 24.0044L0.858887 30.5493Z" fill="#6A5CAE"/>
<path id="path82" d="M29.9129 27.8916C29.8317 27.9946 29.725 28.0724 29.597 28.1249C29.4656 28.1781 29.3251 28.2052 29.1832 28.2047C29.0422 28.2066 28.9019 28.1831 28.7692 28.1355C28.65 28.0924 28.5411 28.0252 28.4493 27.9381C28.3586 27.8508 28.2874 27.7455 28.2404 27.629C28.1894 27.5015 28.164 27.3652 28.1656 27.2279C28.1656 27.0915 28.1892 26.9653 28.2381 26.8456C28.285 26.7257 28.3532 26.623 28.4386 26.5366C28.5241 26.4485 28.6265 26.3814 28.7416 26.3288C28.859 26.2784 28.987 26.2511 29.1277 26.2511C29.2793 26.2511 29.42 26.27 29.548 26.3076C29.6761 26.3455 29.7848 26.4086 29.8743 26.497L29.7187 26.7596C29.6434 26.6916 29.5547 26.64 29.4583 26.6081C29.3666 26.5787 29.2709 26.5638 29.1746 26.5641C29.0894 26.5641 29.0083 26.5808 28.9295 26.6124C28.8518 26.6435 28.7808 26.6892 28.7203 26.7469C28.6585 26.8063 28.6098 26.8778 28.5773 26.957C28.5411 27.0388 28.5241 27.1292 28.5241 27.2299C28.5241 27.3329 28.5431 27.4253 28.5793 27.5051C28.6158 27.5871 28.6648 27.6566 28.7266 27.7151C28.7885 27.7742 28.861 27.8181 28.9442 27.8477C29.0276 27.8792 29.115 27.8939 29.2088 27.8939C29.3239 27.8939 29.4286 27.8707 29.5181 27.8265C29.6068 27.7838 29.6865 27.7247 29.7529 27.6523L29.9129 27.8916ZM30.3522 28.1605V26.291H30.6894V27.6838L31.7859 26.291H32.1231V28.1607H31.7859V26.7679L30.6894 28.1607L30.3522 28.1605ZM34.3566 27.8916C34.2736 27.9955 34.1648 28.0759 34.0409 28.1249C33.9095 28.1781 33.7688 28.2052 33.6269 28.2047C33.486 28.2065 33.3458 28.1831 33.2132 28.1355C33.0939 28.0924 32.9849 28.0252 32.893 27.9381C32.8023 27.8508 32.7312 27.7455 32.6841 27.629C32.6332 27.5015 32.6077 27.3652 32.6093 27.2279C32.6093 27.0915 32.6329 26.9653 32.6818 26.8456C32.729 26.7257 32.7972 26.623 32.8824 26.5366C32.9678 26.4485 33.0702 26.3814 33.1853 26.3288C33.3069 26.2755 33.4386 26.249 33.5714 26.2511C33.723 26.2511 33.8637 26.27 33.9918 26.3076C34.1198 26.3455 34.2285 26.4086 34.3183 26.497L34.1624 26.7596C34.0872 26.6916 33.9986 26.64 33.9023 26.6081C33.8106 26.5787 33.7149 26.5639 33.6186 26.5641C33.4491 26.5647 33.2863 26.6301 33.164 26.7469C33.1028 26.8067 33.0541 26.8782 33.021 26.957C32.9848 27.0388 32.9678 27.1292 32.9678 27.2299C32.9678 27.3329 32.9871 27.4253 33.0233 27.5051C33.0596 27.5871 33.1085 27.6566 33.1704 27.7151C33.2322 27.7742 33.305 27.8181 33.3881 27.8477C33.4713 27.877 33.5587 27.8939 33.6525 27.8939C33.7679 27.8939 33.8703 27.8707 33.9618 27.8265C34.0505 27.7838 34.1302 27.7247 34.1966 27.6523L34.3566 27.8916ZM34.5295 26.291H36.2595V26.623H35.5641V28.1605H35.2269V26.623H34.5315V26.291H34.5295Z" fill="#BAACFE"/>
<path id="path84" fill-rule="evenodd" clip-rule="evenodd" d="M37.8338 28.1418C37.9618 28.1019 38.0706 28.0408 38.1644 27.957L38.062 27.6964C38.0001 27.7512 37.917 27.7974 37.8168 27.8353C37.7164 27.8731 37.6034 27.8918 37.4796 27.8918C37.2941 27.8918 37.1404 27.8436 37.0187 27.7449C36.8973 27.6459 36.8311 27.5076 36.8162 27.3308H38.2755C38.2904 27.2657 38.2967 27.1922 38.2967 27.1062C38.2967 26.9779 38.2732 26.8625 38.2263 26.7575C38.1826 26.6555 38.1188 26.5633 38.0387 26.4864C37.9574 26.4101 37.8616 26.3509 37.757 26.3122C37.6475 26.2698 37.531 26.2484 37.4135 26.249C37.2555 26.249 37.1169 26.2763 36.9954 26.3268C36.8806 26.3749 36.7768 26.4457 36.6902 26.5348C36.6061 26.6235 36.5415 26.7287 36.5006 26.8436C36.4555 26.966 36.4331 27.0955 36.4344 27.2258C36.4344 27.373 36.46 27.5073 36.5069 27.6272C36.5525 27.7434 36.6223 27.8486 36.7117 27.936C36.7992 28.0218 36.9057 28.0872 37.0317 28.1334C37.1666 28.1811 37.3089 28.2045 37.452 28.2026C37.5816 28.2018 37.7104 28.1811 37.8338 28.1418ZM36.9805 26.7027C37.0849 26.6083 37.2236 26.5621 37.3985 26.5621C37.5628 26.5621 37.6951 26.6063 37.7912 26.6946C37.8873 26.7827 37.9383 26.9047 37.9469 27.06H36.7949C36.8112 26.9225 36.8772 26.7954 36.9805 26.7027Z" fill="#BAACFE"/>
<path id="path86" d="M38.7556 26.2915H39.0629L39.7925 27.2181L40.4836 26.2915H40.7823V28.1613H40.4453V26.7979L39.7882 27.6654H39.7753L39.0928 26.7977V28.161H38.7556V26.2915Z" fill="#BAACFE"/>
<path id="path88" fill-rule="evenodd" clip-rule="evenodd" d="M41.6996 26.2971C41.5972 26.3237 41.4995 26.3654 41.4095 26.4208L41.499 26.6859C41.5759 26.648 41.6527 26.6165 41.7295 26.5892C41.8063 26.5617 41.9044 26.5491 42.0218 26.5491C42.1156 26.5491 42.1904 26.564 42.2479 26.5932C42.3055 26.6205 42.3481 26.6627 42.378 26.7132C42.4079 26.7637 42.4272 26.8265 42.4378 26.9C42.4485 26.9735 42.4528 27.0532 42.4528 27.1396C42.3838 27.0917 42.3051 27.0594 42.2223 27.0449C42.1422 27.0291 42.0609 27.0206 41.9792 27.0197C41.8788 27.0197 41.785 27.0346 41.6953 27.0596C41.6058 27.0848 41.529 27.1227 41.4671 27.1732C41.4039 27.2236 41.3529 27.2874 41.3178 27.36C41.2802 27.4395 41.2612 27.5264 41.2622 27.6142C41.2622 27.797 41.3157 27.9399 41.4222 28.0409C41.529 28.1416 41.6697 28.1919 41.8446 28.1919C42.0025 28.1919 42.1285 28.1646 42.2244 28.1101C42.3204 28.0553 42.3973 27.9924 42.4528 27.921V28.1626H42.7684V27.0156C42.7684 26.7717 42.7152 26.5829 42.6064 26.4504C42.4997 26.3181 42.3098 26.2509 42.0411 26.2509C41.9214 26.2509 41.8083 26.2676 41.6996 26.2971ZM42.2631 27.8119C42.1863 27.8664 42.0859 27.8914 41.9622 27.8914C41.8535 27.8914 41.768 27.8642 41.7084 27.8116C41.6486 27.7571 41.6187 27.6857 41.6187 27.5973C41.6187 27.545 41.6293 27.5009 41.6529 27.461C41.6765 27.4211 41.7084 27.3895 41.7447 27.3643C41.7844 27.3379 41.8284 27.3186 41.8748 27.3075C41.9239 27.2948 41.9729 27.2885 42.0241 27.2885C42.1906 27.2885 42.3334 27.3284 42.4508 27.4125V27.6498C42.3954 27.7115 42.3324 27.7662 42.2631 27.8119ZM45.7448 25.6331C45.8129 25.6018 45.8768 25.5493 45.9367 25.4715L45.7531 25.209C45.7062 25.2721 45.653 25.316 45.5931 25.3393C45.5297 25.3639 45.464 25.3822 45.3969 25.3938L45.333 25.4051C45.2775 25.4147 45.2179 25.4253 45.1538 25.436C45.0509 25.4549 44.9507 25.4859 44.8551 25.5284C44.7035 25.5935 44.5821 25.6816 44.4903 25.7929C44.3986 25.9043 44.326 26.0303 44.2769 26.1691C44.227 26.3098 44.1934 26.4556 44.1767 26.6039C44.1595 26.7553 44.1511 26.9 44.1511 27.0386C44.1511 27.2173 44.1744 27.3789 44.2213 27.5238C44.2685 27.669 44.3344 27.7907 44.4219 27.8894C44.5093 27.9904 44.614 28.0661 44.7378 28.1207C44.8615 28.1752 45.0002 28.2025 45.1558 28.2025C45.2988 28.2025 45.4311 28.1752 45.5506 28.1247C45.6657 28.0762 45.7701 28.0056 45.8578 27.9169C45.943 27.8306 46.0115 27.7276 46.0584 27.6122C46.1073 27.4966 46.1309 27.3726 46.1309 27.2423C46.1309 27.1017 46.1096 26.9737 46.069 26.8601C46.0316 26.7518 45.9721 26.6524 45.8941 26.5683C45.8159 26.4855 45.7205 26.4209 45.6144 26.3789C45.4977 26.3331 45.3731 26.3103 45.2476 26.3117C45.1665 26.3117 45.0876 26.3224 45.0108 26.3433C44.9361 26.3643 44.8644 26.3947 44.7973 26.4337C44.7323 26.4708 44.6728 26.5167 44.6204 26.57C44.5692 26.6228 44.5266 26.6816 44.4967 26.7488H44.488C44.4946 26.6627 44.5053 26.5746 44.5243 26.4842C44.5436 26.3938 44.5712 26.3075 44.6077 26.2257C44.644 26.1439 44.6909 26.0701 44.7484 26.003C44.8101 25.9352 44.8858 25.8815 44.9702 25.8454C45.0631 25.8014 45.1614 25.7697 45.2626 25.751L45.3295 25.7389C45.3962 25.7268 45.4598 25.7152 45.5206 25.7026C45.6018 25.6859 45.6763 25.6644 45.7448 25.6331ZM44.5585 27.4294C44.5255 27.3233 44.5097 27.2127 44.5116 27.1017C44.5259 27.038 44.552 26.9775 44.5884 26.9232C44.6247 26.8664 44.6716 26.8162 44.7271 26.7717C44.8524 26.674 45.0073 26.6215 45.1665 26.6228C45.365 26.6228 45.5143 26.6836 45.6188 26.8036C45.7235 26.9252 45.7747 27.0765 45.7747 27.2593C45.7747 27.3496 45.7574 27.4317 45.7278 27.5072C45.6989 27.5816 45.6554 27.6496 45.5997 27.7069C45.544 27.7643 45.4773 27.81 45.4035 27.8412C45.3267 27.8748 45.2433 27.8917 45.1495 27.8917C45.0557 27.8917 44.9702 27.8727 44.8914 27.8349C44.813 27.7978 44.7438 27.744 44.6886 27.6773C44.6308 27.6031 44.5867 27.5191 44.5585 27.4294ZM48.7165 26.2908H48.3793V28.1605H48.7165V26.2908ZM46.6171 26.2908H46.9543V26.8518H47.2659C47.4129 26.8518 47.5323 26.8707 47.6284 26.9063C47.7245 26.9422 47.8013 26.9904 47.8589 27.0492C47.9164 27.108 47.957 27.1775 47.9806 27.255C48.0039 27.3327 48.0168 27.4125 48.0168 27.4966C48.0168 27.5806 48.0039 27.6607 47.9762 27.7404C47.9506 27.8202 47.9058 27.8894 47.8459 27.9525C47.7864 28.0156 47.7052 28.0661 47.6028 28.104C47.5004 28.1416 47.3767 28.1626 47.2273 28.1626H46.6151V26.2908H46.6171ZM46.9543 27.1646V27.8495H47.1997C47.3683 27.8495 47.4877 27.8202 47.5559 27.7611C47.6244 27.7023 47.6583 27.6185 47.6583 27.5072C47.6583 27.3936 47.6221 27.3077 47.5539 27.2486C47.4834 27.1898 47.366 27.1603 47.204 27.1603H46.9543V27.1646Z" fill="#BAACFE"/>
<path id="path90" d="M50.9458 27.8916C50.8647 27.9946 50.758 28.0724 50.6299 28.1249C50.4986 28.1781 50.358 28.2052 50.2162 28.2047C50.0751 28.2066 49.9349 28.1831 49.8022 28.1355C49.683 28.0924 49.574 28.0252 49.4822 27.9381C49.3916 27.8508 49.3203 27.7455 49.2731 27.629C49.2224 27.5014 49.197 27.3651 49.1986 27.2279C49.1986 27.0915 49.2219 26.9653 49.2711 26.8456C49.318 26.7257 49.3862 26.623 49.4716 26.5366C49.557 26.4485 49.6592 26.3814 49.7746 26.3289C49.8961 26.2755 50.0278 26.249 50.1607 26.2511C50.312 26.2511 50.453 26.27 50.581 26.3076C50.709 26.3455 50.8178 26.4086 50.9073 26.497L50.7516 26.7596C50.6763 26.6916 50.5877 26.64 50.4913 26.6081C50.3996 26.5787 50.3039 26.5638 50.2076 26.5641C50.1224 26.5641 50.0413 26.5808 49.9622 26.6124C49.8845 26.6435 49.8136 26.6892 49.7533 26.7469C49.6919 26.8067 49.6433 26.8781 49.6103 26.957C49.574 27.0388 49.557 27.1292 49.557 27.2299C49.557 27.3329 49.576 27.4253 49.6123 27.5051C49.6486 27.5871 49.6977 27.6566 49.7596 27.7151C49.8215 27.7742 49.894 27.8181 49.9771 27.8477C50.0605 27.877 50.148 27.8939 50.2418 27.8939C50.3569 27.8939 50.4593 27.8707 50.5511 27.8265C50.6398 27.7838 50.7194 27.7247 50.7858 27.6523L50.9458 27.8916ZM51.1185 26.291H52.8487V26.623H52.1531V28.1605H51.8162V26.623H51.1207V26.291H51.1185Z" fill="#BAACFE"/>
<path id="path92" fill-rule="evenodd" clip-rule="evenodd" d="M53.5528 26.2913H53.2156V28.9927H53.5528V28.0747C53.621 28.1189 53.7021 28.1505 53.7959 28.1714C53.8897 28.1924 53.9878 28.2027 54.0882 28.2027C54.2375 28.2027 54.3719 28.1755 54.4936 28.1252C54.6103 28.0755 54.7161 28.0035 54.8049 27.9132C54.8924 27.8225 54.9585 27.7175 55.0054 27.5935C55.0523 27.4698 55.0759 27.3373 55.0759 27.1967C55.0759 27.0578 55.0546 26.9298 55.0141 26.8142C54.9759 26.7044 54.9164 26.6031 54.8391 26.516C54.7633 26.4311 54.6692 26.3643 54.5638 26.3206C54.4487 26.2713 54.3243 26.247 54.199 26.2492C54.0669 26.2492 53.9432 26.2744 53.8258 26.3249C53.7084 26.3754 53.6166 26.436 53.5528 26.5117V26.2913ZM53.7875 26.638C53.8836 26.5875 53.9881 26.5622 54.1011 26.5622C54.1992 26.5622 54.2867 26.5769 54.3658 26.6084C54.4426 26.64 54.5065 26.6842 54.56 26.743C54.6132 26.8018 54.6538 26.8692 54.6794 26.9487C54.707 27.0285 54.72 27.1149 54.72 27.2093C54.72 27.3103 54.7027 27.4004 54.6731 27.4845C54.6451 27.5642 54.6007 27.6372 54.5428 27.6988C54.4845 27.7597 54.414 27.8076 54.3359 27.8394C54.2488 27.8758 54.155 27.8937 54.0606 27.8919C53.969 27.8919 53.8836 27.8816 53.8025 27.8606C53.7137 27.8366 53.6294 27.7982 53.553 27.747V26.8205C53.6126 26.7493 53.6917 26.6884 53.7875 26.638ZM57.6616 26.2911H57.3244V28.1608H57.6616V26.2911ZM55.5601 26.2911H55.8973V26.852H56.2086C56.3559 26.852 56.4753 26.871 56.5714 26.9066C56.6675 26.9424 56.7443 26.9906 56.8019 27.0495C56.8594 27.1083 56.9 27.1777 56.9233 27.2552C56.9469 27.333 56.9596 27.4128 56.9596 27.4968C56.9596 27.5809 56.9469 27.6609 56.9193 27.7407C56.8937 27.8205 56.8488 27.8897 56.789 27.9528C56.7294 28.0159 56.6483 28.0664 56.5458 28.1043C56.4434 28.1419 56.3197 28.1628 56.1704 28.1628H55.5581V26.2911H55.5601ZM55.8996 27.1648V27.8498H56.145C56.3134 27.8498 56.433 27.8205 56.5012 27.7614C56.5694 27.7026 56.6036 27.6188 56.6036 27.5074C56.6036 27.3938 56.5674 27.308 56.4992 27.2489C56.4287 27.1901 56.3113 27.1606 56.1493 27.1606H55.8996V27.1648Z" fill="#BAACFE"/>
<path id="path94" d="M59.2789 27.1928L59.9999 28.1613H59.5861L59.0291 27.4049L58.4638 28.1613H58.0713L58.788 27.2095L58.1139 26.2915H58.5279L59.0421 26.9974L59.5646 26.2915H59.9573L59.2789 27.1928ZM29.6633 30.4721H28.6287V32.0308H28.2915V30.1613H30.0002V32.0308H29.6633V30.4721ZM31.9138 30.493H31.2483L31.2268 30.8081C31.2034 31.075 31.1715 31.2893 31.1266 31.4529C31.0818 31.617 31.0262 31.743 30.9623 31.8311C30.8985 31.9194 30.8237 31.9803 30.7382 32.0098C30.6501 32.0417 30.5569 32.0573 30.4632 32.056L30.4376 31.7324C30.4738 31.7344 30.5164 31.7261 30.5633 31.7051C30.6105 31.6841 30.6574 31.6379 30.702 31.5688C30.7469 31.4971 30.7874 31.3963 30.8237 31.2661C30.8599 31.1338 30.8835 30.9616 30.8962 30.745L30.9304 30.1631H32.251V32.0328H31.9138V30.493Z" fill="#BAACFE"/>
<path id="path96" fill-rule="evenodd" clip-rule="evenodd" d="M33.1595 30.1653C33.0505 30.1946 32.9524 30.2365 32.8693 30.2891L32.959 30.5539C33.0358 30.516 33.1126 30.4845 33.1892 30.4572C33.266 30.4299 33.3644 30.4173 33.4815 30.4173C33.5756 30.4173 33.6501 30.4319 33.7077 30.4612C33.7655 30.4887 33.808 30.5307 33.838 30.5812C33.8676 30.6316 33.8869 30.6948 33.8975 30.768C33.9082 30.8417 33.9125 30.9215 33.9125 31.0076C33.8435 30.9598 33.7649 30.9275 33.682 30.9131C33.602 30.8973 33.5206 30.8888 33.4389 30.8879C33.3388 30.8879 33.2447 30.9025 33.1552 30.9278C33.0655 30.953 32.9887 30.9909 32.9268 31.0414C32.8637 31.0918 32.8126 31.1556 32.7775 31.2282C32.74 31.3077 32.7211 31.3946 32.7222 31.4825C32.7222 31.665 32.7755 31.8081 32.8822 31.9089C32.9887 32.0096 33.1296 32.0601 33.3046 32.0601C33.4625 32.0601 33.5882 32.0328 33.6843 31.978C33.7802 31.9235 33.857 31.8604 33.9125 31.7889V32.0306H34.2284V30.8836C34.2284 30.64 34.1749 30.4509 34.0661 30.3186C33.9594 30.186 33.7695 30.1191 33.5008 30.1191C33.3855 30.1192 33.2707 30.1349 33.1595 30.1653ZM33.7249 31.6796C33.6483 31.7344 33.5479 31.7597 33.4242 31.7597C33.3132 31.7597 33.23 31.7324 33.1704 31.6796C33.1106 31.6251 33.0807 31.5536 33.0807 31.4655C33.0807 31.413 33.0913 31.3688 33.1149 31.329C33.1382 31.2891 33.1704 31.2575 33.2067 31.2323C33.2429 31.207 33.2876 31.1881 33.3368 31.1755C33.3855 31.1629 33.4357 31.1566 33.4861 31.1568C33.6524 31.1568 33.7954 31.1967 33.9127 31.2805V31.5178C33.8573 31.5795 33.7942 31.6339 33.7249 31.6796Z" fill="#BAACFE"/>
<path id="path98" d="M34.5591 30.1606H36.2894V30.4924H35.5937V32.0301H35.2568V30.4926H34.5614V30.1606H34.5591Z" fill="#BAACFE"/>
<path id="path100" fill-rule="evenodd" clip-rule="evenodd" d="M37.8641 32.0115C37.9921 31.9716 38.1009 31.9105 38.1947 31.8267L38.0923 31.5661C38.0304 31.6209 37.9472 31.6671 37.8469 31.705C37.7467 31.7429 37.6336 31.7615 37.5099 31.7615C37.3243 31.7615 37.1707 31.7133 37.049 31.6146C36.9273 31.5159 36.8614 31.3773 36.8465 31.2006H38.3057C38.3204 31.1357 38.327 31.062 38.327 30.9759C38.327 30.8479 38.3034 30.7322 38.2565 30.6272C38.2129 30.5253 38.149 30.4331 38.0687 30.3563C37.9876 30.2799 37.8919 30.2206 37.7873 30.1819C37.6778 30.1396 37.5612 30.1182 37.4438 30.1187C37.2858 30.1187 37.1471 30.146 37.0257 30.1965C36.9108 30.2445 36.807 30.3153 36.7205 30.4045C36.6364 30.4933 36.5717 30.5984 36.5306 30.7133C36.4856 30.8357 36.4632 30.9652 36.4644 31.0955C36.4644 31.2427 36.49 31.377 36.5369 31.497C36.5841 31.6166 36.6543 31.7196 36.7418 31.8057C36.8292 31.8918 36.936 31.9569 37.062 32.0031C37.1967 32.0509 37.339 32.0744 37.482 32.0726C37.608 32.0726 37.7361 32.0514 37.8641 32.0115ZM37.0087 30.5704C37.1132 30.476 37.2518 30.4298 37.4268 30.4298C37.5933 30.4298 37.7234 30.476 37.8195 30.5621C37.9153 30.6504 37.9665 30.7721 37.9751 30.9276H36.8231C36.8394 30.7901 36.9054 30.6631 37.0087 30.5704ZM38.4913 30.1609H38.918L39.5685 31.0622L38.8731 32.0304H38.4594L39.1887 31.062L38.4913 30.1609ZM39.6517 30.1609H39.9889V32.0304H39.6517V30.1609ZM41.1941 32.0304L40.4518 31.062L41.1452 30.1607H40.7268L40.072 31.062L40.776 32.0304H41.1941ZM42.7345 32.0115C42.8625 31.9716 42.9713 31.9105 43.0651 31.8267L42.9627 31.5661C42.9008 31.6209 42.8176 31.6671 42.7175 31.705C42.6171 31.7429 42.504 31.7615 42.3803 31.7615C42.1947 31.7615 42.0411 31.7133 41.9194 31.6146C41.798 31.5159 41.7318 31.3773 41.7168 31.2006H43.1761C43.1911 31.1357 43.1974 31.062 43.1974 30.9759C43.1974 30.8479 43.1741 30.7322 43.1269 30.6272C43.0832 30.5253 43.0195 30.4332 42.9393 30.3563C42.8581 30.2799 42.7624 30.2206 42.6577 30.1819C42.5481 30.1395 42.4316 30.1181 42.3141 30.1187C42.1565 30.1187 42.0178 30.146 41.8961 30.1965C41.7813 30.2446 41.6776 30.3153 41.5911 30.4045C41.5069 30.4931 41.4422 30.5983 41.4012 30.7133C41.3561 30.8357 41.3337 30.9652 41.335 31.0955C41.335 31.2427 41.3607 31.377 41.4076 31.497C41.4545 31.6166 41.5249 31.7196 41.6124 31.8057C41.6999 31.8918 41.8063 31.9569 41.9323 32.0031C42.0672 32.0509 42.2095 32.0744 42.3527 32.0726C42.4823 32.0716 42.6111 32.051 42.7345 32.0115ZM41.8791 30.5704C41.9838 30.476 42.1225 30.4298 42.2974 30.4298C42.4617 30.4298 42.5938 30.476 42.6899 30.5621C42.7859 30.6504 42.8372 30.7721 42.8455 30.9276H41.6935C41.7098 30.7901 41.7757 30.6631 41.8791 30.5704ZM44.5652 29.5328C44.3666 29.5328 44.2579 29.4235 44.2409 29.2051H43.923C43.923 29.2889 43.9379 29.3646 43.9656 29.4361C43.9935 29.5075 44.034 29.5684 44.0873 29.6189C44.1405 29.6694 44.209 29.7093 44.2878 29.7406C44.3667 29.7721 44.4584 29.7868 44.5629 29.7868C44.659 29.7868 44.7444 29.7721 44.8212 29.7406C44.898 29.7113 44.9619 29.6694 45.0174 29.6189C45.0707 29.5684 45.1135 29.5075 45.1432 29.4361C45.1731 29.3646 45.1881 29.2889 45.1881 29.2051H44.8724C44.8575 29.4235 44.7528 29.5328 44.5652 29.5328ZM43.654 30.1607V32.0304H43.9912L45.0877 30.6376V32.0304H45.4248V30.1607H45.0877L43.9912 31.5535V30.1607H43.654Z" fill="#BAACFE"/>
</g>
</svg>
