<svg width="70" height="71" viewBox="0 0 70 71" fill="none" xmlns="http://www.w3.org/2000/svg">
<g clip-path="url(#clip0_633_82)">
<path d="M34.9698 70.3232L14.7683 64.715L10.2664 14.2219H59.7337L55.2271 64.7073L34.9698 70.3232Z" fill="#264DE4"/>
<path d="M51.3689 61.4924L55.2199 18.3503H35V66.0304L51.3689 61.4924Z" fill="#2965F1"/>
<path d="M20.5868 37.0776L21.1417 43.2704H35V37.0776H20.5868ZM19.4714 24.5433L20.0343 30.7361H35V24.5433H19.4714ZM35 53.1609L34.9729 53.1681L28.076 51.3058L27.6351 46.3669H21.4184L22.286 56.0905L34.9715 59.6118L35 59.6041V53.1609Z" fill="#EBEBEB"/>
<path d="M21.9083 0.5H29.4085V3.63662H25.0449V6.77324H29.4089V9.90967H21.9083V0.5ZM30.9088 0.5H38.4093V3.22748H34.0454V3.77294H38.4093V10.0462H30.909V7.182H35.2728V6.63654H30.9086L30.9088 0.5ZM39.9095 0.5H47.41V3.22748H43.0461V3.77294H47.41V10.0462H39.9095V7.182H44.2734V6.63654H39.9097V0.5H39.9095Z" fill="white"/>
<path d="M49.3737 37.0776L50.4916 24.5433H34.9787V30.7361H43.7049L43.1414 37.0776H34.9787V43.2704H42.6044L41.8854 51.302L34.9785 53.1662V59.6089L47.6741 56.0905L47.7672 55.0441L49.2227 38.7405L49.3737 37.0776Z" fill="white"/>
</g>
<defs>
<clipPath id="clip0_633_82">
<rect width="70" height="70" fill="white" transform="translate(0 0.5)"/>
</clipPath>
</defs>
</svg>
