<svg width="47" height="70" viewBox="0 0 47 70" fill="none" xmlns="http://www.w3.org/2000/svg">
<g clip-path="url(#clip0_271_1910)">
<path d="M11.669 70.0001C18.1077 70.0001 23.3333 64.7734 23.3333 58.3334V46.6667H11.669C5.23026 46.6667 0.00463867 51.8934 0.00463867 58.3334C0.00463867 64.7734 5.23026 70.0001 11.669 70.0001Z" fill="#0ACF83"/>
<path d="M0.00463867 34.9999C0.00463867 28.5599 5.23026 23.3333 11.669 23.3333H23.3333V46.6666H11.669C5.23026 46.6666 0.00463867 41.4399 0.00463867 34.9999Z" fill="#A259FF"/>
<path d="M0.00683594 11.6667C0.00683594 5.22667 5.23246 0 11.6712 0H23.3355V23.3333H11.6712C5.23246 23.3333 0.00683594 18.1067 0.00683594 11.6667Z" fill="#F24E1E"/>
<path d="M23.3334 0H34.9977C41.4364 0 46.662 5.22667 46.662 11.6667C46.662 18.1067 41.4364 23.3333 34.9977 23.3333H23.3334V0Z" fill="#FF7262"/>
<path d="M46.662 34.9999C46.662 41.4399 41.4364 46.6666 34.9977 46.6666C28.559 46.6666 23.3334 41.4399 23.3334 34.9999C23.3334 28.5599 28.559 23.3333 34.9977 23.3333C41.4364 23.3333 46.662 28.5599 46.662 34.9999Z" fill="#1ABCFE"/>
</g>
<defs>
<clipPath id="clip0_271_1910">
<rect width="46.6667" height="70" fill="white"/>
</clipPath>
</defs>
</svg>
