<svg width="70" height="71" viewBox="0 0 70 71" fill="none" xmlns="http://www.w3.org/2000/svg">
<path d="M66.9041 32.5469L37.9523 3.5965C36.2853 1.92877 33.5812 1.92877 31.9128 3.5965L25.9014 9.60929L33.5271 17.235C35.2995 16.636 37.3316 17.038 38.7439 18.4509C40.1648 19.8726 40.5632 21.9221 39.9491 23.7009L47.2998 31.0509C49.0787 30.4375 51.1296 30.8345 52.5498 32.2568C54.5343 34.2414 54.5343 37.457 52.5498 39.443C50.5638 41.4283 47.3481 41.4283 45.3614 39.443C43.8691 37.9492 43.4996 35.7554 44.2566 33.9166L37.4009 27.0617V45.1007C37.8844 45.3403 38.3412 45.6593 38.7439 46.062C40.7285 48.0465 40.7285 51.2622 38.7439 53.2489C36.7594 55.2327 33.5415 55.2327 31.5585 53.2489C29.5739 51.2615 29.5739 48.0458 31.5585 46.062C32.0492 45.572 32.6171 45.2011 33.2233 44.9528V26.7456C32.6171 26.4973 32.0506 26.13 31.5585 25.6364C30.0553 24.1339 29.6937 21.9271 30.4644 20.0811L22.947 12.5623L3.09443 32.4127C1.42669 34.0819 1.42669 36.7859 3.09443 38.4536L32.0477 67.4048C33.7147 69.0725 36.418 69.0725 38.0872 67.4048L66.9041 38.5879C68.5719 36.9201 68.5719 34.2147 66.9041 32.5469Z" fill="#F05133"/>
</svg>
