<svg width="70" height="71" viewBox="0 0 70 71" fill="none" xmlns="http://www.w3.org/2000/svg">
<g clip-path="url(#clip0_633_75)">
<path d="M59.7337 14.2219L55.2271 64.7073L34.9698 70.3232L14.7683 64.715L10.2664 14.2219H59.7337Z" fill="#E44D26"/>
<path d="M35 66.0305L51.3689 61.4925L55.2199 18.3505H35V66.0305Z" fill="#F16529"/>
<path d="M26.2393 30.7361H35V24.5433H19.4714L19.6196 26.2047L21.1417 43.2704H35V37.0776H26.8053L26.2393 30.7361ZM27.6351 46.3669H21.4184L22.286 56.0905L34.9715 59.6118L35 59.6041V53.161L34.9729 53.1681L28.076 51.3059L27.6351 46.3669Z" fill="#EBEBEB"/>
<path d="M14.8687 0.5H18.0158V3.60928H20.8947V0.5H24.042V9.91567H20.8949V6.76276H18.016V9.91567H14.8689L14.8687 0.5ZM28.1804 3.62246H25.4102V0.5H34.0999V3.62246H31.328V9.91567H28.1809V3.62246H28.1804ZM35.479 0.5H38.7604L40.779 3.80842L42.7956 0.5H46.0785V9.91567H42.9442V5.24875L40.779 8.59653H40.7247L38.5582 5.24875V9.91567H35.479V0.5ZM47.6446 0.5H50.7927V6.80348H55.2184V9.91567H47.6444V0.5H47.6446Z" fill="white"/>
<path d="M34.9787 43.2704H42.6044L41.8854 51.302L34.9785 53.1662V59.6089L47.6741 56.0905L47.7672 55.0441L49.2227 38.7405L49.3737 37.0776H34.9787V43.2704ZM34.9787 30.721V30.7361H49.9372L50.0613 29.3442L50.3436 26.2047L50.4916 24.5433H34.9787V30.721Z" fill="white"/>
</g>
<defs>
<clipPath id="clip0_633_75">
<rect width="70" height="70" fill="white" transform="translate(0 0.5)"/>
</clipPath>
</defs>
</svg>
