<svg width="70" height="71" viewBox="0 0 70 71" fill="none" xmlns="http://www.w3.org/2000/svg">
<path d="M17.7 55.1001L0.800049 41.7001L9.20005 26.1001L33.3 35.5001L17.7 55.1001Z" fill="url(#paint0_linear_271_1949)"/>
<path d="M70 19.2001L68.7 59.7001L41.8 70.5001L25.6 60.1001L49.3 35.5001L38.9 12.8001L48.2 1.6001L70 19.2001Z" fill="url(#paint1_linear_271_1949)"/>
<path d="M70 19.2001L48.7 44.4001L38.9 12.8001L48.2 1.6001L70 19.2001Z" fill="url(#paint2_linear_271_1949)"/>
<path d="M33.7 58.6L5.6 68.8L10.1 53L16 33.6L0 28.2L10.1 0.5L32.1 3.2L53.7 27.9L33.7 58.6Z" fill="url(#paint3_linear_271_1949)"/>
<path d="M56.9 14H13.7V57.2H56.9V14Z" fill="black"/>
<path d="M33.9 49.1001H17.7V51.8001H33.9V49.1001Z" fill="white"/>
<path d="M29.3999 22.9001V19.6001H20.3999V22.9001H22.9999V34.2001H20.3999V37.5001H29.3999V34.2001H26.8999V22.9001H29.3999Z" fill="white"/>
<path d="M37.9999 37.8001C36.5999 37.8001 35.3999 37.5001 34.4999 37.0001C33.6 36.5001 32.8 35.8001 32.2 35.1001L34.7 32.3001C35.2 32.9001 35.7 33.3001 36.2 33.6001C36.7 33.9001 37.3 34.1001 37.9 34.1001C38.6 34.1001 39.1999 33.9001 39.6999 33.4001C40.0999 32.9001 40.2999 32.2001 40.2999 31.1001V19.6001H44.2999V31.3001C44.2999 32.4001 44.2 33.3001 43.9 34.1001C43.5999 34.9001 43.1999 35.5001 42.5999 36.1001C42.0999 36.6001 41.3999 37.1001 40.5999 37.3001C39.7999 37.6001 38.9999 37.8001 37.9999 37.8001Z" fill="white"/>
<defs>
<linearGradient id="paint0_linear_271_1949" x1="0.789849" y1="40.5894" x2="33.3172" y2="40.5894" gradientUnits="userSpaceOnUse">
<stop offset="0.2581" stop-color="#F97A12"/>
<stop offset="0.4591" stop-color="#B07B58"/>
<stop offset="0.7241" stop-color="#577BAE"/>
<stop offset="0.9105" stop-color="#1E7CE5"/>
<stop offset="1" stop-color="#087CFA"/>
</linearGradient>
<linearGradient id="paint1_linear_271_1949" x1="25.7674" y1="25.3801" x2="79.424" y2="55.0701" gradientUnits="userSpaceOnUse">
<stop stop-color="#F97A12"/>
<stop offset="0.0717995" stop-color="#CB7A3E"/>
<stop offset="0.1541" stop-color="#9E7B6A"/>
<stop offset="0.242" stop-color="#757B91"/>
<stop offset="0.3344" stop-color="#537BB1"/>
<stop offset="0.4324" stop-color="#387CCC"/>
<stop offset="0.5381" stop-color="#237CE0"/>
<stop offset="0.6552" stop-color="#147CEF"/>
<stop offset="0.7925" stop-color="#0B7CF7"/>
<stop offset="1" stop-color="#087CFA"/>
</linearGradient>
<linearGradient id="paint2_linear_271_1949" x1="63.2277" y1="43.4154" x2="48.2903" y2="-1.219" gradientUnits="userSpaceOnUse">
<stop stop-color="#FE315D"/>
<stop offset="0.0784025" stop-color="#CB417E"/>
<stop offset="0.1601" stop-color="#9E4E9B"/>
<stop offset="0.2474" stop-color="#755BB4"/>
<stop offset="0.3392" stop-color="#5365CA"/>
<stop offset="0.4365" stop-color="#386DDB"/>
<stop offset="0.5414" stop-color="#2374E9"/>
<stop offset="0.6576" stop-color="#1478F3"/>
<stop offset="0.794" stop-color="#0B7BF8"/>
<stop offset="1" stop-color="#087CFA"/>
</linearGradient>
<linearGradient id="paint3_linear_271_1949" x1="10.7204" y1="16.973" x2="55.5237" y2="91.08" gradientUnits="userSpaceOnUse">
<stop stop-color="#FE315D"/>
<stop offset="0.0402328" stop-color="#F63462"/>
<stop offset="0.1037" stop-color="#DF3A71"/>
<stop offset="0.1667" stop-color="#C24383"/>
<stop offset="0.2912" stop-color="#AD4A91"/>
<stop offset="0.5498" stop-color="#755BB4"/>
<stop offset="0.9175" stop-color="#1D76ED"/>
<stop offset="1" stop-color="#087CFA"/>
</linearGradient>
</defs>
</svg>
