<svg width="80" height="60" viewBox="0 0 80 60" fill="none" xmlns="http://www.w3.org/2000/svg">
<path d="M28.2571 0H13L27.7429 14.5L13 29H28.2571L43 14.5L28.2571 0Z" fill="url(#paint0_linear_648_1791)"/>
<path d="M51.2572 0H36L50.7429 14.5L36 29H51.2572L66 14.5L51.2572 0Z" fill="url(#paint1_linear_648_1791)"/>
<path d="M2.28841 46.7564H6.21685L3.92844 59.6238H0L2.28841 46.7564ZM2.51725 43.3327C2.7461 42.0911 3.92844 41 5.22521 41C6.52198 41 7.3992 42.0535 7.2085 43.3327C7.0178 44.6119 5.79731 45.6653 4.4624 45.6653C3.1275 45.6653 2.32655 44.5366 2.51725 43.3327ZM20.7101 51.7228L19.2989 59.6238H15.4086L16.7054 52.2871C17.0105 50.6317 16.0952 49.9545 14.8365 49.9545C13.5398 49.9545 12.3574 50.7069 11.976 52.4376L10.6793 59.6238H6.78896L9.07737 46.7564H13.0058L12.8151 47.9604C13.6923 46.9822 15.1798 46.3802 16.6673 46.3802C19.2989 46.4178 21.3204 48.299 20.7101 51.7228ZM36.0425 53.1901C36.0044 53.4911 35.8518 54.2059 35.623 54.7327H26.2786C26.5074 56.1624 27.7279 56.5386 28.9484 56.5386C30.0545 56.5386 30.9317 56.2376 31.6945 55.5228L34.4406 57.7426C32.915 59.2475 31.1224 60 28.7196 60C24.219 60 21.8543 56.802 22.5027 52.9644C22.8024 51.1336 23.7546 49.4683 25.1878 48.2683C26.6211 47.0682 28.4415 46.412 30.3215 46.4178C34.0592 46.4178 36.7672 49.2772 36.0425 53.1901ZM32.3429 51.798C32.2285 50.3683 31.1987 49.804 29.9782 49.804C29.3102 49.7921 28.6535 49.975 28.0903 50.3297C27.5272 50.6844 27.0827 51.1952 26.8126 51.798H32.3429ZM47.2557 46.4931L46.4929 50.8574C44.9673 50.6317 42.4882 51.1584 42.0305 53.7921L42.0687 53.6416L41.0007 59.6238H37.1104L39.3988 46.7564H43.3273L42.9077 49.0891C43.7087 47.3208 45.425 46.4931 47.2557 46.4931ZM52.5572 55.0337C52.3665 56.2 53.32 56.2752 55.0745 56.1248L54.4642 59.6238C49.773 60.1505 48.0185 58.6079 48.6669 55.0337L49.4679 50.4812H47.3701L48.0567 46.7564H50.1162L50.5739 44.3109L54.6931 43.1446L54.0447 46.7564H56.7526L56.0661 50.4812H53.3963L52.5572 55.0337ZM59.2317 46.7564H63.1602L60.8718 59.6238H56.9433L59.2317 46.7564ZM59.4606 43.3327C59.6513 42.0911 60.8718 41 62.1685 41C63.4653 41 64.3425 42.0535 64.1518 43.3327C63.9611 44.6119 62.7406 45.6653 61.4057 45.6653C60.0708 45.6653 59.2317 44.5366 59.4606 43.3327ZM79.3698 46.7564L77.0814 59.6238H73.1529L73.3055 58.7584C72.1896 59.6242 70.7952 60.0649 69.377 60C65.1435 60 63.5416 56.3881 64.2281 52.8891C64.8384 49.5782 67.5082 46.4178 71.551 46.4178C73.2673 46.4178 74.4878 47.095 75.2125 48.1485L75.4413 46.7941H79.3698V46.7564ZM74.3353 53.2277C74.6785 51.2713 73.6106 50.0673 71.818 50.0673C70.9313 50.0603 70.0728 50.3743 69.4051 50.9498C68.7373 51.5253 68.3067 52.3224 68.1947 53.1901C67.8514 55.1089 68.8812 56.3129 70.7119 56.3129C72.4664 56.3505 73.992 55.1465 74.3353 53.2277Z" fill="url(#paint2_linear_648_1791)"/>
<defs>
<linearGradient id="paint0_linear_648_1791" x1="13" y1="14.5" x2="43" y2="14.5" gradientUnits="userSpaceOnUse">
<stop stop-color="#9454E9"/>
<stop offset="0.5" stop-color="#8263EB"/>
<stop offset="1" stop-color="#6D74ED"/>
</linearGradient>
<linearGradient id="paint1_linear_648_1791" x1="36" y1="14.5" x2="66" y2="14.5" gradientUnits="userSpaceOnUse">
<stop stop-color="#9454E9"/>
<stop offset="0.5" stop-color="#8263EB"/>
<stop offset="1" stop-color="#6D74ED"/>
</linearGradient>
<linearGradient id="paint2_linear_648_1791" x1="0" y1="50.5031" x2="79.3698" y2="50.5031" gradientUnits="userSpaceOnUse">
<stop stop-color="#9454E9"/>
<stop offset="0.5" stop-color="#8263EB"/>
<stop offset="1" stop-color="#6D74ED"/>
</linearGradient>
</defs>
</svg>
