<svg width="80" height="84" viewBox="0 0 80 84" fill="none" xmlns="http://www.w3.org/2000/svg">
<path fill-rule="evenodd" clip-rule="evenodd" d="M79.4016 18.618C79.4311 18.7277 79.4462 18.8409 79.4464 18.9545V36.6196C79.4464 36.8463 79.387 37.0691 79.274 37.2652C79.1611 37.4614 78.9987 37.6242 78.8032 37.737L64.0688 46.2733V63.1929C64.0688 63.6534 63.8256 64.0784 63.4288 64.3103L32.672 82.1267C32.6016 82.167 32.5248 82.1927 32.448 82.2201C32.4192 82.2298 32.392 82.2475 32.3616 82.2555C32.1466 82.3125 31.9206 82.3125 31.7056 82.2555C31.6704 82.2459 31.6384 82.2265 31.6048 82.2137C31.5344 82.1879 31.4608 82.1654 31.3936 82.1267L0.6432 64.3103C0.447852 64.1974 0.285537 64.0346 0.172615 63.8384C0.0596935 63.6423 0.000154783 63.4196 0 63.1929L0 10.1976C0 10.0817 0.016 9.96901 0.0448 9.85953C0.0544 9.8225 0.0768 9.78869 0.0896 9.75166C0.1136 9.68404 0.136 9.61481 0.1712 9.55202C0.1952 9.51016 0.2304 9.47635 0.2592 9.43771C0.296 9.38619 0.3296 9.33306 0.3728 9.28798C0.4096 9.25095 0.4576 9.22358 0.4992 9.19137C0.5456 9.15273 0.5872 9.11087 0.64 9.08028L16.0176 0.172064C16.2123 0.0593319 16.433 0 16.6576 0C16.8822 0 17.1029 0.0593319 17.2976 0.172064L32.6736 9.08028H32.6768C32.728 9.11248 32.7712 9.15273 32.8176 9.18976C32.8592 9.22197 32.9056 9.25095 32.9424 9.28637C32.9872 9.33306 33.0192 9.38619 33.0576 9.43771C33.0848 9.47635 33.1216 9.51016 33.144 9.55202C33.1808 9.61642 33.2016 9.68404 33.2272 9.75166C33.24 9.78869 33.2624 9.8225 33.272 9.86114C33.3015 9.97086 33.3165 10.084 33.3168 10.1976V43.298L46.1296 35.8742V18.9529C46.1296 18.8402 46.1456 18.7259 46.1744 18.618C46.1856 18.5794 46.2064 18.5456 46.2192 18.5085C46.2448 18.4409 46.2672 18.3717 46.3024 18.3089C46.3264 18.267 46.3616 18.2332 46.3888 18.1946C46.4272 18.1431 46.4592 18.0899 46.504 18.0449C46.5408 18.0078 46.5872 17.9805 46.6288 17.9483C46.6768 17.9096 46.7184 17.8678 46.7696 17.8372L62.1488 8.92894C62.3435 8.81605 62.5642 8.75663 62.7888 8.75663C63.0135 8.75663 63.2342 8.81605 63.4288 8.92894L78.8048 17.8372C78.8592 17.8694 78.9008 17.9096 78.9488 17.9466C78.9888 17.9788 79.0352 18.0078 79.072 18.0432C79.1168 18.0899 79.1488 18.1431 79.1872 18.1946C79.216 18.2332 79.2512 18.267 79.2736 18.3089C79.3104 18.3717 79.3312 18.4409 79.3568 18.5085C79.3712 18.5456 79.392 18.5794 79.4016 18.618ZM76.8832 35.8742V21.1844L71.5024 24.3014L64.0688 28.6082V43.298L76.8848 35.8742H76.8832ZM61.5072 62.4475V47.748L54.1952 51.9502L33.3152 63.9416V78.7795L61.5072 62.4475ZM2.5632 12.4275V62.4475L30.752 78.7779V63.9432L16.0256 55.5566L16.0208 55.5534L16.0144 55.5502C15.9648 55.5212 15.9232 55.4793 15.8768 55.4439C15.8368 55.4117 15.7904 55.386 15.7552 55.3505L15.752 55.3457C15.7104 55.3055 15.6816 55.2555 15.6464 55.2105C15.6144 55.167 15.576 55.13 15.5504 55.0849L15.5488 55.08C15.52 55.0317 15.5024 54.9738 15.4816 54.9191C15.4608 54.8708 15.4336 54.8257 15.4208 54.7741C15.4048 54.713 15.4016 54.647 15.3952 54.5842C15.3888 54.5359 15.376 54.4876 15.376 54.4393V54.436V19.8513L7.944 15.5429L2.5632 12.4275ZM16.6592 2.77707L3.848 10.1976L16.656 17.6182L29.4656 10.196L16.656 2.77707H16.6592ZM23.3216 49.0876L30.7536 44.7824V12.4275L25.3728 15.5445L17.9392 19.8513V52.2062L23.3216 49.0876ZM62.7888 11.5339L49.9792 18.9545L62.7888 26.3751L75.5968 18.9529L62.7888 11.5339ZM61.5072 28.6082L54.0736 24.3014L48.6928 21.1844V35.8742L56.1248 40.1794L61.5072 43.298V28.6082ZM32.032 61.7117L50.8208 50.9182L60.2128 45.5246L47.4128 38.1089L32.6752 46.6468L19.2432 54.428L32.032 61.7117Z" fill="#FF2D20"/>
</svg>
