<svg width="70" height="70" viewBox="0 0 70 70" fill="none" xmlns="http://www.w3.org/2000/svg">
<path d="M69.7137 39.4442C72.1633 20.2677 58.6207 2.73581 39.4792 0.286257C20.3376 -2.1633 2.73582 11.3793 0.286257 30.5208C-2.1633 49.6624 11.3793 67.2292 30.5208 69.7137C49.6974 72.1633 67.2292 58.6207 69.7137 39.4442Z" fill="#FF6C37"/>
<path d="M47.6322 22.473L32.8649 37.2403L28.7006 33.0761C43.223 18.5537 44.6577 19.8135 47.6322 22.473Z" fill="white"/>
<path d="M32.8663 37.5894C32.7613 37.5894 32.6913 37.5544 32.6214 37.4844L28.4221 33.3201C28.2821 33.1802 28.2821 32.9702 28.4221 32.8302C43.1895 18.0629 44.7292 19.4626 47.8436 22.2621C47.9136 22.3321 47.9486 22.4021 47.9486 22.5071C47.9486 22.6121 47.9136 22.6821 47.8436 22.7521L33.0763 37.4844C33.0413 37.5544 32.9363 37.5894 32.8663 37.5894ZM29.192 33.0752L32.8663 36.7495L47.1088 22.5071C44.5192 20.1975 42.7695 19.4976 29.192 33.0752Z" fill="#FF6C37"/>
<path d="M37.0987 41.4737L33.0744 37.4495L47.8417 22.6821C51.796 26.6714 45.8821 33.1452 37.0987 41.4737Z" fill="white"/>
<path d="M37.1005 41.824C36.9955 41.824 36.9255 41.789 36.8556 41.719L32.8313 37.6947C32.7613 37.6248 32.7613 37.5548 32.7613 37.4498C32.7613 37.3448 32.7963 37.2748 32.8663 37.2048L47.6336 22.4375C47.7736 22.2975 47.9836 22.2975 48.1235 22.4375C49.0334 23.2773 49.5233 24.4671 49.4883 25.6919C49.4183 29.5762 45.0091 34.5103 37.3805 41.719C37.2755 41.789 37.1705 41.824 37.1005 41.824ZM33.5661 37.4498C35.8057 39.7244 36.7506 40.6342 37.1005 40.9841C42.9795 35.3852 48.6834 29.6462 48.7184 25.6919C48.7534 24.7821 48.4035 23.8722 47.8086 23.1724L33.5661 37.4498Z" fill="#FF6C37"/>
<path d="M28.771 33.1795L31.7455 36.154C31.8155 36.224 31.8155 36.2939 31.7455 36.3639C31.7105 36.3989 31.7105 36.3989 31.6755 36.3989L25.5166 37.7287C25.2017 37.7637 24.9217 37.5537 24.8518 37.2388C24.8168 37.0638 24.8867 36.8888 24.9917 36.7839L28.5611 33.2145C28.6311 33.1445 28.7361 33.1095 28.771 33.1795Z" fill="white"/>
<path d="M25.4114 38.0784C24.8865 38.0784 24.5015 37.6584 24.5015 37.1335C24.5015 36.8886 24.6065 36.6436 24.7815 36.4687L28.3508 32.8993C28.5608 32.7243 28.8407 32.7243 29.0507 32.8993L32.0252 35.8738C32.2351 36.0487 32.2351 36.3637 32.0252 36.5736C31.9552 36.6436 31.8852 36.6786 31.7802 36.7136L25.6213 38.0434C25.5513 38.0434 25.4813 38.0784 25.4114 38.0784ZM28.6658 33.5642L25.2364 36.9936C25.1664 37.0635 25.1314 37.1685 25.2014 37.2735C25.2364 37.3785 25.3414 37.4135 25.4464 37.3785L31.2203 36.1187L28.6658 33.5642Z" fill="#FF6C37"/>
<path d="M55.4366 14.283C53.197 12.1134 49.5927 12.1834 47.4231 14.458C45.2535 16.7326 45.3234 20.3019 47.598 22.4715C49.4527 24.2562 52.2522 24.5711 54.4568 23.2414L50.4675 19.2521L55.4366 14.283Z" fill="white"/>
<path d="M51.5171 24.3972C48.1927 24.3972 45.4982 21.7027 45.4982 18.3783C45.4982 15.0539 48.1927 12.3594 51.5171 12.3594C53.0569 12.3594 54.5616 12.9543 55.6814 14.0391C55.7514 14.1091 55.7864 14.179 55.7864 14.284C55.7864 14.389 55.7514 14.459 55.6814 14.529L50.9572 19.2531L54.6666 22.9625C54.8066 23.1024 54.8066 23.3124 54.6666 23.4524C54.6316 23.4874 54.6316 23.4874 54.5966 23.5224C53.6868 24.0823 52.602 24.3972 51.5171 24.3972ZM51.5171 13.0942C48.5777 13.0942 46.1981 15.4738 46.2331 18.4133C46.2331 21.3528 48.6127 23.7323 51.5521 23.6973C52.357 23.6973 53.1618 23.5224 53.8967 23.1374L50.2224 19.4981C50.1524 19.4281 50.1174 19.3581 50.1174 19.2531C50.1174 19.1482 50.1524 19.0782 50.2224 19.0082L54.9115 14.319C53.9667 13.5142 52.7769 13.0942 51.5171 13.0942Z" fill="#FF6C37"/>
<path d="M55.5404 14.3886L55.4704 14.3186L50.4663 19.2527L54.4206 23.207C54.8055 22.962 55.1905 22.6821 55.5054 22.3672C57.745 20.1626 57.745 16.5932 55.5404 14.3886Z" fill="white"/>
<path d="M54.4569 23.5911C54.3519 23.5911 54.2819 23.5561 54.2119 23.4861L50.2227 19.4969C50.1527 19.4269 50.1177 19.3569 50.1177 19.2519C50.1177 19.1469 50.1527 19.0769 50.2227 19.007L55.1918 14.0378C55.3317 13.8979 55.5417 13.8979 55.6817 14.0378L55.7867 14.1078C58.1312 16.4524 58.1312 20.2317 55.8216 22.6113C55.4717 22.9612 55.0868 23.2762 54.6669 23.5211C54.5619 23.5561 54.4919 23.5911 54.4569 23.5911ZM50.9575 19.2519L54.4919 22.7863C54.7718 22.6113 55.0518 22.3663 55.2617 22.1564C57.2564 20.1617 57.3614 16.9073 55.4367 14.8077L50.9575 19.2519Z" fill="#FF6C37"/>
<path d="M48.2275 23.1021C47.3876 22.2622 46.0229 22.2622 45.183 23.1021L31.9904 36.2947L34.195 38.4993L48.1575 26.2515C49.0673 25.4816 49.1373 24.1169 48.3675 23.207C48.2975 23.172 48.2625 23.137 48.2275 23.1021Z" fill="white"/>
<path d="M34.1592 38.8513C34.0542 38.8513 33.9842 38.8163 33.9143 38.7463L31.7097 36.5417C31.5697 36.4017 31.5697 36.1917 31.7097 36.0518L44.9023 22.8591C45.8821 21.8793 47.4568 21.8793 48.4366 22.8591C49.4164 23.839 49.4164 25.4137 48.4366 26.3935C48.4016 26.4285 48.3666 26.4635 48.3316 26.4985L34.3692 38.7463C34.3342 38.8163 34.2642 38.8513 34.1592 38.8513ZM32.4795 36.2967L34.1942 38.0114L47.9117 25.9736C48.6816 25.3437 48.7516 24.1889 48.1217 23.419C47.4918 22.6492 46.337 22.5792 45.5671 23.2091C45.5321 23.2441 45.4972 23.2791 45.4272 23.3141L32.4795 36.2967Z" fill="#FF6C37"/>
<path d="M21.8768 51.3078C21.7368 51.3778 21.6669 51.5177 21.7018 51.6577L22.2967 54.1773C22.4367 54.5272 22.2268 54.9471 21.8418 55.0521C21.5619 55.1571 21.2469 55.0521 21.072 54.8421L17.2227 51.0278L29.7854 38.4651L34.1246 38.5351L37.0641 41.4745C36.3642 42.0694 32.13 46.1637 21.8768 51.3078Z" fill="white"/>
<path d="M21.597 55.4009C21.317 55.4009 21.0371 55.2959 20.8621 55.0859L17.0478 51.2716C16.9778 51.2016 16.9428 51.1317 16.9428 51.0267C16.9428 50.9217 16.9778 50.8517 17.0478 50.7817L29.6105 38.219C29.6805 38.149 29.7855 38.114 29.8555 38.114L34.1947 38.184C34.2997 38.184 34.3697 38.219 34.4397 38.289L37.3791 41.2284C37.4491 41.2984 37.4841 41.4034 37.4841 41.5084C37.4841 41.6134 37.4491 41.6834 37.3441 41.7534L37.0992 41.9633C33.3898 45.2177 28.3508 48.4721 22.0869 51.5866L22.6818 54.0711C22.7868 54.526 22.5768 55.016 22.1569 55.2609C21.9469 55.3659 21.7719 55.4009 21.597 55.4009ZM17.7477 51.0267L21.352 54.596C21.457 54.771 21.667 54.841 21.8419 54.736C22.0169 54.631 22.0869 54.4211 21.9819 54.2461L21.387 51.7265C21.317 51.4116 21.457 51.1317 21.7369 50.9917C27.9308 47.8772 32.9349 44.6578 36.6093 41.4734L34.0197 38.8839L29.9955 38.8139L17.7477 51.0267Z" fill="#FF6C37"/>
<path d="M14.2478 54.0363L17.2573 51.0269L21.7365 55.506L14.5978 55.0161C14.2828 54.9811 14.0729 54.7012 14.1079 54.3863C14.1079 54.2463 14.1429 54.1063 14.2478 54.0363Z" fill="white"/>
<path d="M21.7384 55.8204L14.5647 55.3305C14.0398 55.2955 13.6898 54.8406 13.7248 54.3157C13.7598 54.1057 13.8298 53.8958 14.0048 53.7558L17.0142 50.7463C17.1542 50.6064 17.3642 50.6064 17.5041 50.7463L21.9833 55.2255C22.0883 55.3305 22.1233 55.4705 22.0533 55.6105C21.9833 55.7504 21.8783 55.8204 21.7384 55.8204ZM17.2592 51.5162L14.4947 54.2807C14.3897 54.3507 14.3897 54.5257 14.4947 54.5956C14.5297 54.6306 14.5647 54.6656 14.6347 54.6656L20.8285 55.0856L17.2592 51.5162Z" fill="#FF6C37"/>
<path d="M28.5619 40.0733C28.352 40.0733 28.212 39.8983 28.212 39.7233C28.212 39.6183 28.247 39.5484 28.317 39.4784L31.7113 36.084C31.8513 35.944 32.0613 35.944 32.2013 36.084L34.4059 38.2886C34.5108 38.3936 34.5458 38.4986 34.5108 38.6385C34.4758 38.7435 34.3709 38.8485 34.2309 38.8835L28.6319 40.0733C28.5969 40.0733 28.5619 40.0733 28.5619 40.0733ZM31.9563 36.8189L29.6467 39.1284L33.426 38.3236L31.9563 36.8189Z" fill="#FF6C37"/>
<path d="M34.125 38.5341L30.2757 39.374C29.9957 39.4439 29.7158 39.269 29.6458 38.989C29.6108 38.8141 29.6458 38.6391 29.7858 38.4991L31.9204 36.3645L34.125 38.5341Z" fill="white"/>
<path d="M30.2061 39.7233C29.7162 39.7233 29.3312 39.3384 29.3312 38.8485C29.3312 38.6035 29.4362 38.3936 29.5762 38.2186L31.7108 36.084C31.8508 35.944 32.0607 35.944 32.2007 36.084L34.4053 38.2886C34.5103 38.3936 34.5453 38.4986 34.5103 38.6385C34.4753 38.7435 34.3703 38.8485 34.2304 38.8835L30.381 39.7233C30.3111 39.7233 30.2411 39.7233 30.2061 39.7233ZM31.9558 36.8189L30.0661 38.7085C29.9961 38.7785 29.9961 38.8485 30.0311 38.9185C30.0661 38.9885 30.1361 39.0235 30.2411 39.0235L33.4605 38.3236L31.9558 36.8189Z" fill="#FF6C37"/>
<path d="M55.5756 17.7482C55.5057 17.5383 55.2607 17.4333 55.0507 17.5033C54.8408 17.5733 54.7358 17.8182 54.8058 18.0282C54.8058 18.0632 54.8408 18.0982 54.8408 18.1332C55.0507 18.5531 54.9807 19.078 54.7008 19.4629C54.5608 19.6379 54.5958 19.8829 54.7358 20.0228C54.9108 20.1628 55.1557 20.1278 55.2957 19.9528C55.8206 19.288 55.9256 18.4481 55.5756 17.7482Z" fill="#FF6C37"/>
</svg>
