<svg width="70" height="70" viewBox="0 0 70 70" fill="none" xmlns="http://www.w3.org/2000/svg">
<g clip-path="url(#clip0_271_1998)">
<path d="M12.3958 0H57.6042C64.4583 0 70 5.68376 70 12.7137V57.2863C70 64.3162 64.4583 70 57.6042 70H12.3958C5.54167 70 0 64.3162 0 57.2863V12.7137C0 5.68376 5.54167 0 12.3958 0Z" fill="#001E36"/>
<path d="M15.75 49.0897V18.3076C15.75 18.0982 15.8375 17.9786 16.0417 17.9786C16.5375 17.9786 17.0042 17.9786 17.675 17.9486C18.375 17.9187 19.1042 17.9187 19.8917 17.8888C20.6792 17.8589 21.525 17.8589 22.4292 17.829C23.3333 17.7991 24.2083 17.7991 25.0833 17.7991C27.475 17.7991 29.4583 18.0982 31.0917 18.7264C32.55 19.235 33.8917 20.0726 35 21.1794C35.9333 22.1367 36.6625 23.3033 37.1292 24.5897C37.5667 25.8461 37.8 27.1324 37.8 28.4786C37.8 31.0512 37.2167 33.1751 36.05 34.8504C34.8833 36.5256 33.25 37.782 31.3542 38.4999C29.3708 39.2478 27.1833 39.517 24.7917 39.517C24.0917 39.517 23.625 39.517 23.3333 39.4871C23.0417 39.4572 22.6333 39.4572 22.0792 39.4572V49.0598C22.1083 49.2692 21.9625 49.4486 21.7583 49.4786C21.7292 49.4786 21.7 49.4786 21.6417 49.4786H16.1C15.8667 49.4786 15.75 49.3589 15.75 49.0897ZM22.1083 23.7521V33.8033C22.5167 33.8333 22.8958 33.8632 23.2458 33.8632H24.7917C25.9292 33.8632 27.0667 33.6837 28.1458 33.3247C29.0792 33.0555 29.8958 32.4871 30.5375 31.7392C31.15 30.9914 31.4417 29.9743 31.4417 28.658C31.4708 27.7307 31.2375 26.8033 30.7708 25.9957C30.275 25.2179 29.575 24.6196 28.7292 24.2905C27.65 23.8418 26.4833 23.6623 25.2875 23.6922C24.5292 23.6922 23.8583 23.6922 23.3042 23.7221C22.7208 23.6922 22.3125 23.7221 22.1083 23.7521Z" fill="#31A8FF"/>
<path d="M56 31.9785C55.125 31.4998 54.1917 31.1708 53.2 30.9614C52.1208 30.722 51.0417 30.5725 49.9333 30.5725C49.35 30.5426 48.7375 30.6323 48.1833 30.7819C47.8042 30.8716 47.4833 31.081 47.2792 31.3802C47.1333 31.6195 47.0458 31.9186 47.0458 32.1879C47.0458 32.4571 47.1625 32.7263 47.3375 32.9656C47.6 33.2947 47.95 33.5639 48.3292 33.7733C49 34.1323 49.7 34.4614 50.4 34.7605C51.975 35.299 53.4917 36.0468 54.8917 36.9443C55.8542 37.5725 56.6417 38.4101 57.1958 39.4272C57.6625 40.3844 57.8958 41.4314 57.8667 42.5084C57.8958 43.9144 57.4875 45.3203 56.7292 46.487C55.9125 47.6836 54.775 48.6109 53.4625 49.1494C52.0333 49.7776 50.2833 50.1067 48.1833 50.1067C46.8417 50.1067 45.5292 49.987 44.2167 49.7178C43.1958 49.5383 42.175 49.2092 41.2417 48.7605C41.0375 48.6408 40.8917 48.4314 40.9208 48.1921V42.987C40.9208 42.8973 40.95 42.7776 41.0375 42.7178C41.125 42.6579 41.2125 42.6879 41.3 42.7477C42.4375 43.4357 43.6333 43.9144 44.9167 44.2135C46.025 44.5126 47.1917 44.6622 48.3583 44.6622C49.4667 44.6622 50.2542 44.5126 50.7792 44.2434C51.2458 44.034 51.5667 43.5255 51.5667 42.987C51.5667 42.5682 51.3333 42.1793 50.8667 41.7904C50.4 41.4015 49.4375 40.9528 48.0083 40.3844C46.5208 39.846 45.15 39.128 43.8667 38.2306C42.9625 37.5725 42.2042 36.705 41.65 35.6879C41.1833 34.7306 40.95 33.6836 40.9792 32.6366C40.9792 31.3503 41.3292 30.1238 41.9708 29.0169C42.7 27.8203 43.7792 26.8631 45.0333 26.2648C46.4042 25.5468 48.125 25.2178 50.1958 25.2178C51.3917 25.2178 52.6167 25.3075 53.8125 25.487C54.6875 25.6067 55.5333 25.846 56.3208 26.175C56.4375 26.205 56.5542 26.3246 56.6125 26.4443C56.6417 26.5639 56.6708 26.6836 56.6708 26.8032V31.6793C56.6708 31.799 56.6125 31.9186 56.525 31.9785C56.2625 32.0383 56.1167 32.0383 56 31.9785Z" fill="#31A8FF"/>
</g>
<defs>
<clipPath id="clip0_271_1998">
<rect width="70" height="70" fill="white"/>
</clipPath>
</defs>
</svg>
