<svg width="67" height="71" viewBox="0 0 67 71" fill="none" xmlns="http://www.w3.org/2000/svg">
<path d="M63.3841 28.5H41.4098C40.8802 28.4998 40.3723 28.2891 39.9977 27.9142C39.6231 27.5393 39.4126 27.0308 39.4123 26.5006V3.57486C39.4123 1.87715 38.0371 0.5 36.342 0.5H28.4978C26.8016 0.5 25.4272 1.87715 25.4272 3.57486V26.3618C25.4272 27.544 24.4725 28.5049 23.2915 28.5101L16.0903 28.5445C14.8993 28.5509 13.9316 27.5835 13.934 26.3923L13.9786 3.58003C13.9825 1.87973 12.6068 0.5 10.9083 0.5H3.07055C1.37413 0.5 0 1.87715 0 3.57486V67.77C0 69.2782 1.22047 70.5 2.72579 70.5H63.3841C64.8907 70.5 66.1111 69.2782 66.1111 67.77V31.23C66.1111 29.7218 64.8907 28.5 63.3841 28.5ZM53.0795 52.6028C53.0795 54.5792 51.4789 56.1818 49.5046 56.1818H43.3054C41.3308 56.1818 39.7302 54.5792 39.7302 52.6028V46.397C39.7302 44.4203 41.3308 42.818 43.3054 42.818H49.5046C51.4789 42.818 53.0795 44.4203 53.0795 46.397V52.6028Z" fill="#FF6600"/>
</svg>
