<svg width="83" height="83" viewBox="0 0 83 83" fill="none" xmlns="http://www.w3.org/2000/svg">
<path d="M79.7481 60.6104C75.3186 62.9192 52.373 72.3536 47.488 74.9004C42.603 77.4474 39.8893 77.4228 36.0301 75.578C32.1713 73.7332 7.75304 63.8698 3.35437 61.7672C1.15616 60.7168 0 59.8297 0 58.9919V50.6024C0 50.6024 31.7896 43.682 36.9217 41.8408C42.0534 39.9995 43.8341 39.9331 48.2013 41.5327C52.5692 43.1331 78.6837 47.8446 83 49.4255L82.9981 57.6963C82.9987 58.5257 82.0027 59.4355 79.7481 60.6104Z" fill="#912626"/>
<path d="M79.7465 52.2706C75.3173 54.5783 52.3723 64.0131 47.4873 66.5595C42.6027 69.1069 39.8889 69.082 36.0301 67.2371C32.1709 65.3936 7.75368 55.5286 3.35533 53.4274C-1.04302 51.3248 -1.1351 49.8778 3.18544 48.186C7.50598 46.4936 31.7893 36.9665 36.922 35.1252C42.0538 33.2846 43.834 33.2175 48.2013 34.8179C52.5688 36.4176 75.377 45.496 79.6926 47.0766C84.0099 48.6591 84.1756 49.9621 79.7465 52.2706Z" fill="#C6302B"/>
<path d="M79.7481 47.0358C75.3186 49.3449 52.373 58.779 47.488 61.3267C42.603 63.8728 39.8893 63.8481 36.0301 62.0033C32.1709 60.1595 7.75304 50.2951 3.35437 48.1926C1.15616 47.1421 0 46.2563 0 45.4182V37.0278C0 37.0278 31.7896 30.1077 36.9217 28.2664C42.0534 26.4252 43.8341 26.3584 48.2013 27.9584C52.5695 29.5584 78.684 34.269 83 35.8502L82.9981 44.122C82.9987 44.951 82.0027 45.8608 79.7481 47.0358Z" fill="#912626"/>
<path d="M79.7465 38.6958C75.3173 41.0042 52.3723 50.4384 47.4873 52.9857C42.6027 55.5322 39.8889 55.5072 36.0301 53.6624C32.1709 51.8189 7.75368 41.9542 3.35533 39.8526C-1.04302 37.7507 -1.1351 36.3034 3.18544 34.611C7.50598 32.9195 31.7896 23.3917 36.922 21.5508C42.0538 19.7099 43.834 19.6431 48.2013 21.2431C52.5688 22.8428 75.377 31.9206 79.6926 33.5018C84.0099 35.084 84.1756 36.3874 79.7465 38.6958Z" fill="#C6302B"/>
<path d="M79.7481 32.9578C75.3186 35.2663 52.373 44.701 47.488 47.2487C42.603 49.7952 39.8893 49.7702 36.0301 47.9254C32.1709 46.0816 7.75304 36.2169 3.35437 34.1153C1.15616 33.0639 0 32.1778 0 31.3406V22.9499C0 22.9499 31.7896 16.03 36.9217 14.1891C42.0534 12.3476 43.8341 12.2814 48.2013 13.8811C52.5695 15.4811 78.684 20.1917 83 21.7729L82.9981 30.0444C82.9987 30.8728 82.0027 31.7825 79.7481 32.9578Z" fill="#912626"/>
<path d="M79.7465 24.6179C75.3173 26.9263 52.3724 36.3611 47.4874 38.9075C42.6027 41.4539 39.889 41.429 36.0301 39.5851C32.1713 37.7403 7.7537 27.8763 3.35567 25.7744C-1.043 23.6728 -1.13476 22.2252 3.18546 20.5331C7.506 18.8413 31.7897 9.31479 36.922 7.47322C42.0538 5.63198 43.8341 5.56584 48.2013 7.16586C52.5688 8.76588 75.377 17.8437 79.6927 19.4249C84.01 21.0058 84.1756 22.3095 79.7465 24.6179Z" fill="#C6302B"/>
<path d="M51.6425 16.4564L44.5065 17.1972L42.909 21.0412L40.3289 16.7518L32.0889 16.0112L38.2374 13.7939L36.3926 10.3903L42.1491 12.6416L47.5759 10.8649L46.1091 14.3843L51.6425 16.4564ZM42.483 35.1048L29.1651 29.5811L48.2486 26.6518L42.483 35.1048ZM24.0188 18.593C29.6521 18.593 34.2187 20.3632 34.2187 22.5465C34.2187 24.7305 29.6521 26.5004 24.0188 26.5004C18.3855 26.5004 13.8188 24.7301 13.8188 22.5465C13.8188 20.3632 18.3855 18.593 24.0188 18.593Z" fill="white"/>
<path d="M60.0761 17.5072L71.3706 21.9704L60.0858 26.4293L60.0761 17.5072Z" fill="#621B1C"/>
<path d="M47.5807 22.4499L60.0761 17.5072L60.0859 26.4294L58.8606 26.9086L47.5807 22.4499Z" fill="#9A2928"/>
</svg>
