<svg width="70" height="70" viewBox="0 0 70 70" fill="none" xmlns="http://www.w3.org/2000/svg">
<path d="M68.2314 10.3136L36.8171 67.3221C36.1685 68.4991 34.5021 68.506 33.8438 67.3348L1.80661 10.3191C1.0894 9.0427 2.16489 7.49662 3.59014 7.75515L35.038 13.4598C35.2387 13.4962 35.444 13.4958 35.6447 13.4587L66.4349 7.76333C67.8554 7.50059 68.936 9.0347 68.2314 10.3136Z" fill="url(#paint0_linear_798_1810)"/>
<path d="M50.0184 0.272833L26.7709 4.89574C26.3888 4.97172 26.1059 5.30034 26.0828 5.69471L24.6528 30.2057C24.6192 30.7831 25.1416 31.2311 25.6968 31.1012L32.1692 29.5853C32.7748 29.4435 33.322 29.9848 33.1976 30.6029L31.2746 40.1591C31.1452 40.8022 31.7402 41.3522 32.3591 41.1614L36.3568 39.9288C36.9765 39.7379 37.5721 40.2894 37.4409 40.9331L34.385 55.9437C34.1938 56.8827 35.4244 57.3947 35.9376 56.5897L36.2805 56.052L55.2238 17.6858C55.5411 17.0434 54.994 16.3109 54.2988 16.4471L47.6365 17.752C47.0104 17.8745 46.4778 17.2828 46.6545 16.6611L51.0028 1.36312C51.1797 0.740436 50.6451 0.148216 50.0184 0.272833Z" fill="url(#paint1_linear_798_1810)"/>
<defs>
<linearGradient id="paint0_linear_798_1810" x1="1.0244" y1="5.71776" x2="40.8727" y2="59.0429" gradientUnits="userSpaceOnUse">
<stop stop-color="#41D1FF"/>
<stop offset="1" stop-color="#BD34FE"/>
</linearGradient>
<linearGradient id="paint1_linear_798_1810" x1="33.2331" y1="1.52794" x2="40.5127" y2="50.7348" gradientUnits="userSpaceOnUse">
<stop stop-color="#FFEA83"/>
<stop offset="0.0833333" stop-color="#FFDD35"/>
<stop offset="1" stop-color="#FFA800"/>
</linearGradient>
</defs>
</svg>
