<svg width="73" height="73" viewBox="0 0 73 73" fill="none" xmlns="http://www.w3.org/2000/svg">
<g clip-path="url(#clip0_985_1813)">
<path d="M9.80286 66.0128L0 7.61282L18.25 0.104248L29.8257 6.98711L40.4629 1.25139L62.6757 9.80282L50.1614 73L9.80286 66.0128Z" fill="url(#paint0_linear_985_1813)"/>
<path d="M73 24.7157L63.6143 1.46L46.5114 0L20.1271 25.3414L27.2186 57.9829L40.4628 67.3686L73 47.9714L64.97 33.0586L73 24.7157Z" fill="url(#paint1_linear_985_1813)"/>
<path d="M58.4 21.2743L64.97 33.0585L73 24.7157L67.16 10.22L58.4 21.2743Z" fill="url(#paint2_linear_985_1813)"/>
<path d="M59.0257 13.9742H13.9743V59.0257H59.0257V13.9742Z" fill="black"/>
<path d="M35.1443 50.5786H18.25V53.3943H35.1443V50.5786Z" fill="white"/>
<path d="M40.3586 35.77L42.7572 32.85C44.4257 34.2057 46.1986 35.1442 48.2843 35.1442C49.9529 35.1442 50.8914 34.5185 50.8914 33.3714V33.2671C50.8914 32.2242 50.2657 31.7028 47.1372 30.8685C43.3829 29.93 41.0886 28.8871 41.0886 25.1328V25.0285C41.0886 21.5871 43.8 19.3971 47.5543 19.3971C50.2657 19.3971 52.56 20.2314 54.4372 21.7957L52.3514 24.9242C50.6829 23.7771 49.1186 23.0471 47.5543 23.0471C45.99 23.0471 45.1557 23.7771 45.1557 24.7157V24.82C45.1557 26.0714 45.99 26.4885 49.1186 27.3228C52.8729 28.3657 54.9586 29.7214 54.9586 32.9542V33.0585C54.9586 36.8128 52.1429 38.8985 48.18 38.8985C45.3643 38.7942 42.5486 37.7514 40.3586 35.77Z" fill="white"/>
<path d="M36.7085 19.8143L33.8928 30.66L30.7643 19.8143H27.6357L24.4028 30.66L21.5871 19.8143H17.3114L22.63 38.4815H26.0714L29.2 27.6358L32.2243 38.4815H35.77L41.0885 19.8143H36.7085Z" fill="white"/>
</g>
<defs>
<linearGradient id="paint0_linear_985_1813" x1="26.1423" y1="1.52243" x2="45.0337" y2="69.5325" gradientUnits="userSpaceOnUse">
<stop offset="0.2849" stop-color="#00CDD7"/>
<stop offset="0.9409" stop-color="#2086D7"/>
</linearGradient>
<linearGradient id="paint1_linear_985_1813" x1="32.0366" y1="10.1515" x2="63.9949" y2="57.014" gradientUnits="userSpaceOnUse">
<stop offset="0.1398" stop-color="#FFF045"/>
<stop offset="0.3656" stop-color="#00CDD7"/>
</linearGradient>
<linearGradient id="paint2_linear_985_1813" x1="63.6998" y1="15.9453" x2="67.8963" y2="30.8101" gradientUnits="userSpaceOnUse">
<stop offset="0.2849" stop-color="#00CDD7"/>
<stop offset="0.9409" stop-color="#2086D7"/>
</linearGradient>
<clipPath id="clip0_985_1813">
<rect width="73" height="73" fill="white"/>
</clipPath>
</defs>
</svg>
