<svg width="99" height="99" viewBox="0 0 99 99" fill="none" xmlns="http://www.w3.org/2000/svg">
<g clip-path="url(#clip0_271_1770)">
<path d="M28.0592 72.4567H25.1353C25.0319 67.5215 24.7472 62.8817 24.2816 58.534H24.2556L19.804 72.4567H17.5779L13.1528 58.534H13.1274C12.7991 62.7083 12.5924 67.3491 12.5065 72.4567H9.84138C10.0131 66.2457 10.4448 60.4228 11.1347 54.9875H14.7586L18.9763 67.8237H19.0023L23.246 54.9875H26.7134C27.4727 61.354 27.9213 67.1774 28.0592 72.4567ZM40.7394 59.568C39.549 66.0282 37.9783 70.7222 36.0291 73.6523C34.5103 75.9077 32.8464 77.0366 31.0345 77.0366C30.5514 77.0366 29.9553 76.8908 29.2491 76.6016V75.0439C29.5943 75.0936 29.9994 75.1218 30.4649 75.1218C31.3113 75.1218 31.9916 74.889 32.5102 74.4224C33.1306 73.854 33.4408 73.215 33.4408 72.5082C33.4408 72.0234 33.199 71.0324 32.7165 69.5317L29.5078 59.5674H32.3803L34.6832 67.0198C35.2008 68.7119 35.4166 69.8933 35.3301 70.5662C36.5895 67.2028 37.4692 63.5354 37.9704 59.5669H40.7394V59.568Z" fill="#5D87A1"/>
<path d="M79.6594 72.4566H71.3539V54.9874H74.1478V70.3062H79.6594V72.4566ZM69.1798 72.8787L65.9683 71.2939C66.2531 71.0599 66.5254 70.8068 66.7706 70.5136C68.1356 68.9101 68.8165 66.5388 68.8165 63.398C68.8165 57.6186 66.5486 54.7275 62.0111 54.7275C59.7861 54.7275 58.0504 55.4609 56.8091 56.9282C55.4452 58.5328 54.7644 60.8956 54.7644 64.0195C54.7644 67.0903 55.3678 69.3429 56.5752 70.7718C57.6798 72.0662 59.3448 72.7143 61.5715 72.7143C62.402 72.7143 63.1642 72.6126 63.8586 72.4075L68.0396 74.8415L69.1798 72.8787ZM58.7764 68.961C58.0691 67.8231 57.7154 65.9959 57.7154 63.4765C57.7154 59.078 59.0516 56.8762 61.7269 56.8762C63.1252 56.8762 64.1502 57.4028 64.8055 58.4537C65.5118 59.5933 65.8672 61.4041 65.8672 63.8884C65.8672 68.3231 64.5298 70.5407 61.8563 70.5407C60.4573 70.5413 59.4324 70.0164 58.7764 68.961ZM53.5468 67.6146C53.5468 69.096 53.0033 70.3113 51.9174 71.2633C50.8303 72.2114 49.3726 72.6866 47.546 72.6866C45.8374 72.6866 44.1808 72.1408 42.5774 71.0549L43.3283 69.5548C44.708 70.2458 45.9572 70.5893 47.0787 70.5893C48.1313 70.5893 48.954 70.356 49.5506 69.8932C50.1467 69.4288 50.502 68.7774 50.502 67.9536C50.502 66.9157 49.7783 66.0286 48.4505 65.2857C47.2262 64.6133 44.7775 63.2076 44.7775 63.2076C43.4503 62.2403 42.7859 61.2019 42.7859 59.491C42.7859 58.0752 43.2814 56.9322 44.2729 56.0626C45.2656 55.1897 46.5465 54.7547 48.1166 54.7547C49.7382 54.7547 51.2123 55.1891 52.54 56.0491L51.8665 57.5497C50.7309 57.0672 49.6099 56.8259 48.5042 56.8259C47.6087 56.8259 46.9171 57.0412 46.4363 57.4734C45.9516 57.904 45.6527 58.4548 45.6527 59.1306C45.6527 60.1634 46.3917 61.0617 47.7556 61.8194C48.9963 62.4929 51.5061 63.9229 51.5061 63.9229C52.8671 64.8885 53.5468 65.9173 53.5468 67.6146Z" fill="#F8981D"/>
<path d="M83.1669 49.1363C81.4775 49.0933 80.1695 49.2634 79.0718 49.7278C78.7548 49.8544 78.2508 49.8544 78.2067 50.255C78.3779 50.4245 78.3977 50.6979 78.5463 50.9318C78.7994 51.3539 79.2407 51.9217 79.6435 52.2178C80.0859 52.5568 80.53 52.8924 80.9956 53.1879C81.8165 53.6958 82.7471 53.9913 83.5471 54.4976C84.0132 54.7919 84.4765 55.1727 84.9432 55.4897C85.1726 55.6586 85.3195 55.9326 85.6173 56.0383V55.9739C85.4681 55.7841 85.4257 55.5095 85.2794 55.2982L84.6455 54.6868C84.033 53.8642 83.272 53.1461 82.451 52.5562C81.7753 52.0907 80.2972 51.4579 80.0232 50.6793L79.9803 50.6364C80.4447 50.5928 80.9956 50.4245 81.4368 50.2951C82.155 50.1058 82.8098 50.1488 83.5465 49.9595C83.8855 49.8747 84.2217 49.7685 84.5618 49.664V49.4736C84.1799 49.0933 83.9076 48.5882 83.5059 48.2289C82.4312 47.3006 81.247 46.3927 80.0232 45.6327C79.3678 45.2095 78.5248 44.9372 77.8271 44.5773C77.5756 44.4502 77.1519 44.3875 77.0039 44.1762C76.6253 43.7117 76.4123 43.1004 76.1377 42.5507C75.5275 41.3907 74.9348 40.1037 74.4083 38.877C74.0274 38.0544 73.7958 37.2329 73.3314 36.4718C71.1561 32.8841 68.7939 30.7111 65.1632 28.5783C64.3829 28.1342 63.4546 27.9449 62.4631 27.7121L60.8794 27.6285C60.5415 27.4805 60.2031 27.0787 59.9081 26.8889C58.7036 26.1295 55.6023 24.4837 54.7164 26.6567C54.1457 28.0302 55.5605 29.3806 56.0464 30.0772C56.4052 30.5608 56.8701 31.1111 57.121 31.6603C57.2696 32.0191 57.3114 32.3999 57.46 32.779C57.7979 33.7079 58.1137 34.7413 58.5578 35.608C58.7894 36.0498 59.042 36.5142 59.3381 36.9142C59.5076 37.1481 59.8025 37.2515 59.8669 37.6329C59.5725 38.0533 59.5494 38.6878 59.3804 39.2155C58.6211 41.6003 58.9177 44.5547 59.994 46.3073C60.3308 46.835 61.1342 47.9967 62.2088 47.5515C63.1603 47.1718 62.9495 45.9689 63.223 44.914C63.2857 44.6592 63.2445 44.492 63.371 44.3248V44.366C63.6654 44.9564 63.9626 45.5254 64.2355 46.1175C64.8903 47.1509 66.0305 48.2278 66.9802 48.9436C67.4859 49.3256 67.8865 49.9787 68.5198 50.212V50.1488H68.478C68.3498 49.9595 68.1622 49.8747 67.9938 49.7278C67.613 49.3476 67.1915 48.8832 66.896 48.4617C66.0113 47.2791 65.2282 45.97 64.5332 44.6191C64.1931 43.9637 63.8999 43.2473 63.6258 42.593C63.4981 42.3405 63.4981 41.9597 63.2863 41.8325C62.9687 42.2964 62.506 42.6981 62.2744 43.2665C61.8726 44.1756 61.8308 45.2937 61.6817 46.4565L61.5986 46.4972C60.9263 46.3282 60.6924 45.6327 60.437 45.0423C59.8047 43.5428 59.6985 41.1359 60.2471 39.4059C60.394 38.9635 61.0297 37.5702 60.776 37.1487C60.6489 36.7447 60.2262 36.5148 59.9946 36.1967C59.7223 35.7967 59.4239 35.2904 59.2341 34.8463C58.7279 33.6649 58.473 32.3558 57.9278 31.175C57.673 30.6247 57.2306 30.0552 56.8724 29.5484C56.4701 28.9788 56.0277 28.5777 55.7096 27.9025C55.6045 27.6703 55.4571 27.2906 55.626 27.0381C55.6673 26.8686 55.7531 26.8053 55.9215 26.7629C56.195 26.5318 56.9764 26.8256 57.2504 26.9528C58.0329 27.2692 58.6872 27.5646 59.3403 28.0076C59.6358 28.2195 59.9528 28.6206 60.3319 28.7263H60.776C61.45 28.8732 62.2099 28.767 62.8444 28.9579C63.9626 29.3173 64.9756 29.8444 65.8841 30.4134C68.6487 32.1666 70.9284 34.6576 72.4675 37.6329C72.72 38.1177 72.8274 38.5618 73.0579 39.0674C73.5026 40.1025 74.0523 41.1579 74.4936 42.171C74.9371 43.1626 75.3597 44.175 75.9931 44.9988C76.3089 45.4418 77.5779 45.674 78.1469 45.9062C78.5678 46.0955 79.2232 46.2638 79.6029 46.496C80.321 46.9384 81.0363 47.4464 81.7114 47.9328C82.0476 48.186 83.1041 48.7137 83.1669 49.1363ZM61.637 30.7942C61.3456 30.7911 61.0551 30.8269 60.7732 30.9004V30.9428H60.8138C60.9839 31.2801 61.2794 31.514 61.4901 31.8083C61.6602 32.1468 61.8077 32.4824 61.9743 32.8203L62.015 32.7785C62.3128 32.5677 62.4608 32.2298 62.4608 31.723C62.3326 31.5739 62.3128 31.4281 62.206 31.2801C62.0817 31.0688 61.8077 30.9637 61.637 30.7942Z" fill="#5D87A1"/>
<path d="M85.1771 72.4538H85.6144V70.3136H84.9585L84.4234 71.7741L83.842 70.3136H83.2104V72.4538H83.6234V70.8254H83.6465L84.2556 72.4538H84.5703L85.1771 70.8254V72.4538ZM81.6544 72.4538H82.1171V70.6763H82.7228V70.313H81.0233V70.6763H81.6532L81.6544 72.4538Z" fill="#F8981D"/>
</g>
<defs>
<clipPath id="clip0_271_1770">
<rect width="99" height="99" fill="white"/>
</clipPath>
</defs>
</svg>
