<svg width="90" height="91" viewBox="0 0 90 91" fill="none" xmlns="http://www.w3.org/2000/svg">
<g clip-path="url(#clip0_198_1614)">
<path fill-rule="evenodd" clip-rule="evenodd" d="M37.5266 47.9985C37.5266 47.9985 35.3769 49.2494 39.0581 49.6719C43.5189 50.1813 45.7975 50.108 50.7117 49.1784C50.7117 49.1784 52.0055 49.9885 53.8115 50.6893C42.792 55.4112 28.8724 50.4162 37.5266 47.9985ZM36.1796 41.8367C36.1796 41.8367 33.768 43.6217 37.4524 44.0027C42.2177 44.4948 45.9791 44.535 52.4921 43.2818C52.4921 43.2818 53.3913 44.1946 54.8065 44.6932C41.4851 48.5896 26.6485 45 36.1796 41.8367Z" fill="#3174B9"/>
<path fill-rule="evenodd" clip-rule="evenodd" d="M47.5302 31.3829C50.2467 34.5098 46.8182 37.322 46.8182 37.322C46.8182 37.322 53.7126 33.7637 50.546 29.3061C47.5895 25.151 45.3217 23.0868 57.5973 15.9683C57.5973 15.9683 38.3278 20.7788 47.5302 31.3829Z" fill="#CA3132"/>
<path fill-rule="evenodd" clip-rule="evenodd" d="M62.1039 52.5565C62.1039 52.5565 63.6951 53.8685 60.3511 54.8831C53.9922 56.8091 33.88 57.39 28.2934 54.9597C26.2867 54.0856 30.0518 52.874 31.2364 52.6181C32.4718 52.3511 33.1769 52.3996 33.1769 52.3996C30.9436 50.8271 18.7418 55.4882 26.98 56.8255C49.4441 60.4678 67.93 55.1857 62.1039 52.5565ZM38.5608 35.4517C38.5608 35.4517 28.3317 37.8819 34.939 38.7653C37.7297 39.1384 43.2888 39.0525 48.471 38.6178C52.705 38.2625 56.9548 37.5023 56.9548 37.5023C56.9548 37.5023 55.463 38.1425 54.3821 38.8793C43.9929 41.6121 23.9259 40.3393 29.7035 37.5458C34.5883 35.1827 38.5608 35.4517 38.5608 35.4517ZM56.9123 45.7083C67.4725 40.2221 62.59 34.9488 59.181 35.6594C58.3476 35.8336 57.9736 35.9839 57.9736 35.9839C57.9736 35.9839 58.2846 35.4974 58.8757 35.2882C65.6183 32.9187 70.8029 42.2788 56.7017 45.9856C56.7013 45.9856 56.8638 45.839 56.9123 45.7083Z" fill="#3174B9"/>
<path fill-rule="evenodd" clip-rule="evenodd" d="M50.546 4.4707C50.546 4.4707 56.3931 10.3216 44.9986 19.3157C35.8607 26.5332 42.9152 30.6472 44.9958 35.3494C39.6609 30.537 35.7477 26.2998 38.3727 22.3572C42.2265 16.5698 52.9053 13.7632 50.546 4.4707Z" fill="#CA3132"/>
<path fill-rule="evenodd" clip-rule="evenodd" d="M39.5997 60.5794C49.7345 61.2275 65.3008 60.2194 65.6702 55.4229C65.6702 55.4229 64.9614 57.241 57.2933 58.6833C48.6419 60.3119 37.9697 60.1223 31.6421 59.0778C31.6421 59.0778 32.9387 60.1508 39.5997 60.5794Z" fill="#3174B9"/>
<path fill-rule="evenodd" clip-rule="evenodd" d="M65.2019 69.1808H64.8937V69.008H65.7253V69.1808H65.4171V70.0436H65.2019V69.1808ZM66.8613 69.2238H66.8575L66.5512 70.0432H66.4107L66.1063 69.2238H66.1025V70.0432H65.898V69.0076H66.1983L66.4803 69.7402L66.7623 69.0076H67.0597V70.0432H66.8617L66.8613 69.2238ZM37.9389 78.9042C36.9831 79.7325 35.9727 80.1985 35.0655 80.1985C33.7731 80.1985 33.0718 79.422 33.0718 78.1796C33.0718 76.8344 33.8226 75.8502 36.8277 75.8502H37.9384L37.9389 78.9042ZM40.577 81.8803V72.6672C40.577 70.3126 39.2341 68.7587 35.997 68.7587C34.1084 68.7587 32.4527 69.2252 31.1066 69.8195L31.4941 71.4514C32.5545 71.062 33.9253 70.7011 35.271 70.7011C37.1358 70.7011 37.9384 71.4514 37.9384 73.0048V74.1697H37.0065C32.4765 74.1697 30.4324 75.9272 30.4324 78.5694C30.4324 80.8461 31.7794 82.1404 34.3152 82.1404C35.9452 82.1404 37.1629 81.4676 38.2998 80.4829L38.5067 81.8803H40.577ZM49.3815 81.8803H46.0921L42.1313 68.9931H45.0047L47.463 76.9124L48.0102 79.2918C49.2503 75.8502 50.1304 72.3563 50.5707 68.9931H53.3647C52.6167 73.2364 51.2692 77.8952 49.3815 81.8803ZM62.0054 78.9042C61.0468 79.7325 60.0364 80.1985 59.1311 80.1985C57.8387 80.1985 57.1383 79.422 57.1383 78.1796C57.1383 76.8344 57.8896 75.8502 60.8927 75.8502H62.0054V78.9042ZM64.6444 81.8803V72.6672C64.6444 70.3126 63.2973 68.7587 60.0635 68.7587C58.173 68.7587 56.5178 69.2252 55.1717 69.8195L55.5592 71.4514C56.6196 71.062 57.9932 70.7011 59.3393 70.7011C61.2014 70.7011 62.0049 71.4514 62.0049 73.0048V74.1697H61.073C56.5425 74.1697 54.4998 75.9272 54.4998 78.5694C54.4998 80.8461 55.844 82.1404 58.3803 82.1404C60.0117 82.1404 61.2275 81.4676 62.3672 80.4829L62.575 81.8803H64.6444ZM27.5399 84.0701C26.7881 85.1688 25.5723 86.0386 24.243 86.5294L22.9403 84.9951C23.953 84.4754 24.8206 83.6364 25.2244 82.8557C25.5723 82.16 25.7175 81.2654 25.7175 79.1241V64.4094H28.5213V78.921C28.5213 81.7851 28.2925 82.9425 27.5399 84.0701Z" fill="#CA3132"/>
</g>
<defs>
<clipPath id="clip0_198_1614">
<rect width="90" height="90" fill="white" transform="translate(0 0.5)"/>
</clipPath>
</defs>
</svg>
