<svg width="90" height="90" viewBox="0 0 90 90" fill="none" xmlns="http://www.w3.org/2000/svg">
<path d="M66.7371 65.5172C67.3101 60.7465 67.1379 60.0504 70.6886 60.8203L71.5922 60.9012C74.3238 61.0242 77.8957 60.4617 80.0297 59.4879C84.5472 57.3926 87.2261 53.891 82.7718 54.8121C72.6117 56.9074 71.8734 53.4656 71.8734 53.4656C82.6066 37.5398 87.0961 17.325 83.2183 12.3785C72.6574 -1.12148 54.3726 5.26289 54.0668 5.43164L53.9683 5.44922C51.9644 5.02735 49.7496 4.78125 47.1832 4.7461C42.5847 4.67578 39.0972 5.95196 36.4464 7.95938C36.4464 7.95938 3.83199 -5.47734 5.34723 24.859C5.67067 31.3137 14.5933 73.7262 25.2457 60.8941C29.1445 56.2043 32.9062 52.2422 32.9062 52.2422C34.7695 53.4832 37.0089 54.116 39.3539 53.8875L39.5367 53.7328C39.4826 54.3405 39.5074 54.9526 39.6105 55.5539C36.8683 58.6195 37.6769 59.1574 32.1925 60.2859C26.6449 61.4285 29.9074 63.4641 32.0308 63.9984C34.6113 64.6453 40.5808 65.5594 44.6168 59.9133L44.455 60.5566C45.5308 61.418 45.457 66.7441 45.6152 70.548C45.7734 74.3519 46.023 77.9062 46.8 79.998C47.5769 82.0898 48.4875 87.4863 55.6945 85.9746C61.7168 84.6844 66.3222 82.8246 66.7441 65.5488" fill="black"/>
<path d="M66.7371 65.5172C67.3101 60.7465 67.1379 60.0504 70.6886 60.8203L71.5922 60.9012C74.3238 61.0242 77.8957 60.4617 80.0297 59.4879C84.5472 57.3926 87.2261 53.891 82.7718 54.8121C72.6117 56.9074 71.8734 53.4656 71.8734 53.4656C82.6066 37.5398 87.0961 17.325 83.2183 12.3785C72.6574 -1.12148 54.3726 5.26289 54.0668 5.43164L53.9683 5.44922C51.9644 5.02735 49.7496 4.78125 47.1832 4.7461C42.5847 4.67578 39.0972 5.95196 36.4464 7.95938C36.4464 7.95938 3.83199 -5.47734 5.34723 24.859C5.67067 31.3137 14.5933 73.7262 25.2457 60.8941C29.1445 56.2043 32.9062 52.2422 32.9062 52.2422C34.7695 53.4832 37.0089 54.116 39.3539 53.8875L39.5367 53.7328C39.4826 54.3405 39.5074 54.9526 39.6105 55.5539C36.8683 58.6195 37.6769 59.1574 32.1925 60.2859C26.6449 61.4285 29.9074 63.4641 32.0308 63.9984C34.6113 64.6453 40.5808 65.5594 44.6168 59.9133L44.455 60.5566C45.5308 61.418 45.457 66.7441 45.6152 70.548C45.7734 74.3519 46.023 77.9062 46.8 79.998C47.5769 82.0898 48.4875 87.4863 55.6945 85.9746C61.7168 84.6844 66.3222 82.8246 66.7441 65.5488" stroke="black" stroke-width="5.3725"/>
<path d="M82.7402 54.8437C72.58 56.939 71.8417 53.4972 71.8417 53.4972C82.5749 37.5715 87.0644 17.3566 83.1902 12.4101C72.6292 -1.08987 54.3445 5.29802 54.0386 5.46326L53.9402 5.48083C51.7069 5.03272 49.4363 4.79613 47.1585 4.77419C42.5601 4.70388 39.0726 5.98005 36.4218 7.98748C36.4218 7.98748 3.80387 -5.44924 5.32262 24.8871C5.64605 31.3418 14.5687 73.7543 25.221 60.9222C29.1445 56.2043 32.9062 52.2422 32.9062 52.2422C34.7695 53.4832 37.0089 54.116 39.3539 53.8875L39.5367 53.7328C39.483 54.3405 39.5078 54.9525 39.6105 55.5539C36.8683 58.6195 37.6769 59.1574 32.1925 60.2859C26.6449 61.4285 29.9074 63.464 32.0308 63.9984C34.6113 64.6453 40.5808 65.5594 44.6168 59.9133L44.455 60.5566C45.5308 61.4179 46.2832 66.157 46.1566 70.4531C46.03 74.7492 45.9457 77.6953 46.7894 80.0015C47.6332 82.3078 48.4769 87.4898 55.6839 85.9781C61.7062 84.6879 64.8246 81.3375 65.264 75.7617C65.5734 71.7961 66.2695 72.3797 66.3187 68.8359L66.8812 67.1554C67.5246 61.7765 66.9867 60.0433 70.6957 60.8519L71.5992 60.9328C74.3308 61.0558 77.9062 60.4933 80.0015 59.5195C84.5191 57.4242 87.1945 53.9226 82.7402 54.8437Z" fill="#336791"/>
<path d="M45.0492 57.8918C44.768 67.8972 45.1195 77.973 46.0969 80.3918C47.0742 82.8105 49.173 87.5988 56.3836 86.0589C62.4059 84.7687 64.5996 82.2691 65.5488 76.7531L67.7742 59.1152M36.4078 7.73434C36.4078 7.73434 3.76874 -5.61097 5.28749 24.7254C5.61093 31.18 14.5336 73.5925 25.1859 60.7605C29.0742 56.0742 32.5898 52.4074 32.5898 52.4074M54.0352 5.29801C52.9102 5.64957 72.1898 -1.75082 83.1516 12.2519C87.0188 17.1984 82.5363 37.4132 71.8031 53.339" stroke="white" stroke-width="1.79" stroke-linecap="round" stroke-linejoin="round"/>
<path d="M71.8066 53.332C71.8066 53.332 72.5098 56.7773 82.7051 54.675C87.1594 53.7539 84.477 57.2555 79.9629 59.3508C76.2574 61.0734 67.9465 61.5129 67.8094 59.1398C67.4578 53.0051 72.1828 54.8683 71.8418 53.332C71.5324 51.9469 69.416 50.5898 68.0238 47.2008C66.8039 44.2476 51.2895 21.5719 72.327 24.9363C73.1004 24.7781 66.8426 4.89725 47.1551 4.60897C27.4676 4.32069 28.0898 28.814 28.0898 28.814" stroke="white" stroke-width="1.79" stroke-linecap="round" stroke-linejoin="bevel"/>
<path d="M39.5402 55.4344C36.798 58.5 37.6066 59.0379 32.1222 60.1664C26.5746 61.309 29.8371 63.3445 31.9605 63.8789C34.541 64.5258 40.5105 65.4399 44.5464 59.7902C45.7769 58.0676 44.5394 55.3254 42.8519 54.6293C42.0363 54.2918 40.9464 53.8699 39.5472 55.4379L39.5402 55.4344Z" stroke="white" stroke-width="1.79" stroke-linejoin="round"/>
<path d="M39.3609 55.3816C39.0797 53.5781 39.9515 51.4371 40.8832 48.9269C42.2824 45.1652 45.5097 41.4035 42.9293 29.4609C41.0062 20.5664 28.0933 27.6082 28.0933 28.814C28.0933 30.0199 28.6769 34.9312 27.8824 40.6441C26.8382 48.1043 32.6285 54.4113 39.2941 53.7679" stroke="white" stroke-width="1.79" stroke-linecap="round" stroke-linejoin="round"/>
<path d="M36.2882 28.6348C36.2285 29.0461 37.0441 30.1465 38.1023 30.2941C39.1605 30.4418 40.064 29.584 40.1238 29.1691C40.1836 28.7543 39.3679 28.3043 38.3097 28.1566C37.2515 28.009 36.341 28.227 36.2882 28.6348Z" fill="white" stroke="white" stroke-width="0.5975"/>
<path d="M68.5054 27.7946C68.5617 28.2059 67.7495 29.3063 66.6913 29.4539C65.6331 29.6016 64.7226 28.7438 64.6699 28.3289C64.6171 27.9141 65.4257 27.4641 66.4839 27.3164C67.5421 27.1688 68.4527 27.3867 68.5054 27.7946Z" fill="white" stroke="white" stroke-width="0.2975"/>
<path d="M72.2883 24.9434C72.464 28.1777 71.5922 30.375 71.4797 33.8168C71.3179 38.816 73.8633 44.5395 70.0277 50.2699" stroke="white" stroke-width="1.79" stroke-linecap="round" stroke-linejoin="round"/>
</svg>
