<svg width="62" height="44" viewBox="0 0 62 44" fill="none" xmlns="http://www.w3.org/2000/svg">
<path d="M20.3372 34.1432H41.467C41.5572 34.1446 41.6432 34.1823 41.7059 34.2481C41.7686 34.314 41.803 34.4024 41.8015 34.494V38.3961C41.8031 38.4877 41.7687 38.5762 41.706 38.642C41.6432 38.7078 41.5572 38.7455 41.467 38.7467H20.3372C20.2467 38.7459 20.1602 38.7084 20.0969 38.6426C20.0336 38.5768 19.9988 38.4881 20 38.3961V34.494C19.9988 34.4021 20.0337 34.3134 20.097 34.2476C20.1602 34.1818 20.2467 34.1442 20.3372 34.1432ZM40.9924 25.538C41.0593 25.7173 40.9727 25.9178 40.7976 25.9893C40.5848 26.0715 37.4633 27.3044 37.2912 27.3701C37.1165 27.4328 36.9246 27.3411 36.8609 27.1644C36.7969 26.9911 35.5033 23.35 35.3572 22.9421H26.4581C26.3117 23.35 25.0046 26.9977 24.9444 27.1644C24.9151 27.2501 24.8531 27.3202 24.7723 27.359C24.6915 27.3977 24.5988 27.4017 24.515 27.3701C24.3319 27.2961 21.1967 26.0624 21.0114 25.9893C20.8356 25.9186 20.7476 25.7182 20.8133 25.538C21.0344 24.9109 26.9489 8.4749 27.2518 7.62001C27.8368 5.96296 28.5907 4.25391 30.9021 4.25391C33.2146 4.25391 33.9414 5.93607 34.5489 7.62001C34.8067 8.3321 40.8131 25.0368 40.9924 25.538ZM27.8746 18.8855H33.9414L30.9216 9.70908H30.8841L27.8746 18.8855Z" fill="#8D7FD0"/>
</svg>
