<svg width="33" height="33" viewBox="0 0 33 33" fill="none" xmlns="http://www.w3.org/2000/svg">
<path id="Union" fill-rule="evenodd" clip-rule="evenodd" d="M0.456635 29.4776C-0.152019 30.0862 -0.152019 31.073 0.456635 31.6817C1.06529 32.2903 2.05211 32.2903 2.66077 31.6817L16.0692 18.2733L29.4776 31.6817C30.0862 32.2903 31.073 32.2903 31.6817 31.6817C32.2903 31.073 32.2903 30.0862 31.6817 29.4776L18.2733 16.0692L31.6818 2.66062C32.2905 2.05197 32.2905 1.06514 31.6818 0.45649C31.0732 -0.152163 30.0863 -0.152164 29.4777 0.45649L16.0692 13.865L2.66062 0.456493C2.05197 -0.152161 1.06514 -0.152161 0.456491 0.456493C-0.152163 1.06515 -0.152164 2.05197 0.45649 2.66062L13.865 16.0692L0.456635 29.4776Z" fill="white"/>
</svg>
