<svg width="92" height="59" viewBox="0 0 92 59" fill="none" xmlns="http://www.w3.org/2000/svg">
<path d="M28.9614 58.7688V0.370604H56.5754C63.027 0.370604 68.7 1.56638 73.5943 3.95792C78.4886 6.34947 82.2984 9.71432 85.0237 14.0525C87.8045 18.3906 89.195 23.563 89.195 29.5697C89.195 35.5208 87.8045 40.6932 85.0237 45.0869C82.2984 49.4251 78.4886 52.7899 73.5943 55.1815C68.7 57.573 63.027 58.7688 56.5754 58.7688H28.9614ZM45.4797 45.5875H55.908C59.245 45.5875 62.1371 44.9757 64.5843 43.7521C67.0871 42.4729 69.0337 40.6376 70.4241 38.246C71.8146 35.7988 72.5098 32.9067 72.5098 29.5697C72.5098 26.177 71.8146 23.2849 70.4241 20.8934C69.0337 18.5019 67.0871 16.6943 64.5843 15.4707C62.1371 14.1915 59.245 13.5519 55.908 13.5519H45.4797V45.5875Z" fill="#C0FF0D"/>
<path d="M9.80255 54.4648C7.57786 54.4648 5.70078 53.7232 4.1713 52.2401C2.64182 50.757 1.87708 48.8799 1.87708 46.6089C1.87708 44.2451 2.64182 42.368 4.1713 40.9776C5.70078 39.5408 7.57786 38.8224 9.80255 38.8224C12.0272 38.8224 13.9043 39.5408 15.4338 40.9776C16.9633 42.368 17.728 44.2451 17.728 46.6089C17.728 48.8799 16.9633 50.757 15.4338 52.2401C13.9043 53.7232 12.0272 54.4648 9.80255 54.4648Z" fill="#C0FF0D"/>
<path d="M9.80255 17.792C7.57786 17.792 5.70078 17.0504 4.1713 15.5673C2.64182 14.0841 1.87708 12.207 1.87708 9.93601C1.87708 7.57227 2.64182 5.69519 4.1713 4.30475C5.70078 2.86797 7.57786 2.14958 9.80255 2.14958C12.0272 2.14958 13.9043 2.86797 15.4338 4.30475C16.9633 5.69519 17.728 7.57227 17.728 9.93601C17.728 12.207 16.9633 14.0841 15.4338 15.5673C13.9043 17.0504 12.0272 17.792 9.80255 17.792Z" fill="#C0FF0D"/>
</svg>
