<svg width="62" height="44" viewBox="0 0 62 44" fill="none" xmlns="http://www.w3.org/2000/svg">
<g id="Visa_2021">
<path id="path3789" d="M40.3735 12C35.9757 12 32.0455 14.2647 32.0455 18.449C32.0455 23.2475 39.0157 23.5789 39.0157 25.9896C39.0157 27.0046 37.8449 27.9132 35.8453 27.9132C33.0073 27.9132 30.8863 26.6436 30.8863 26.6436L29.9787 30.866C29.9787 30.866 32.4221 31.9384 35.6662 31.9384C40.4744 31.9384 44.2579 29.5625 44.2579 25.3067C44.2579 20.2362 37.2587 19.9146 37.2587 17.6771C37.2587 16.882 38.2198 16.0108 40.2137 16.0108C42.4635 16.0108 44.2991 16.9341 44.2991 16.9341L45.1873 12.856C45.1873 12.856 43.1901 12 40.3735 12ZM0.137495 12.3078L0.0310059 12.9233C0.0310059 12.9233 1.88118 13.2598 3.54757 13.9308C5.69318 14.7004 5.84602 15.1484 6.20738 16.5398L10.1451 31.621H15.4235L23.5554 12.3078H18.2891L13.0638 25.4389L10.9316 14.3084C10.7361 13.0345 9.74561 12.3078 8.5332 12.3078H0.137495ZM25.6731 12.3078L21.5418 31.621H26.5638L30.6805 12.3078H25.6731ZM53.6822 12.3078C52.4712 12.3078 51.8296 12.9519 51.3588 14.0775L44.0014 31.621H49.2677L50.2867 28.6971H56.7026L57.3222 31.621H61.969L57.9152 12.3078H53.6822ZM54.3671 17.5256L55.9282 24.7729H51.746L54.3671 17.5256Z" fill="#796BBD"/>
</g>
</svg>
